<?xml version="1.0" encoding="UTF-8"?><svg id="b" xmlns="http://www.w3.org/2000/svg" viewBox="0 0 48 48"><defs><style>.c{fill:#722e3c;}</style></defs><path class="c" d="M27.29,39.72c-.32-.54-.7-1.12-.89-1.66-.44-1.26-1.06-2.29-1.84-3.35-1.23-1.67-2.69-2.89-4.53-3.88l-1.54-.98c-1.69-1.07-3.16-3.01-3.85-4.97-.76-2.13-.77-4.9.54-6.75.83-1.18,1.92-2.18,3.11-2.96,2.25-1.46,6.29-2.38,6.73-4.63.12-.6-.16-1.09-.68-1.36-2.11-1.11-4.73-.97-7.1-.92l-4.13.08-4.02.12c-.82.02-1.71.26-2.3.83-.56.76-.9,1.64-1.88,1.54-.36-.04-.77-.34-.99-.73-.69-1.27.59-3.85,2.18-4.84.98-.61,2.11-.96,3.3-1.06,2.31-.21,4.59-.13,6.93-.17l2.49-.05,4.75-.06c3.33-.04,7.08.59,9.6,2.81.64.56,1.27,1.31,1.66,2.1.7,1.41.76,3.15.22,4.61-.43,1.16-1.04,2.29-2.01,3.04-1.59,1.22-3.31,2.12-5.01,3.15-.54.33-1.08.71-1.42,1.2-.32.46-.41,1.12,0,1.53,1.59,1.57,6.76-.34,7.36,6.66.12,1.45.51,2.76,1.06,4.09,1.32,3.22,2.66,4.78,5.53,6.65,1.99,1.3,4.18,1.48,5.27,2.79.26.31.03.9-.35,1.09-1.96.95-4.26.85-6.51.83s-4.43-.2-6.55-.93l-1.82-.82c-1.4-.63-2.47-1.63-3.28-2.99Z"/><path class="c" d="M12.34,39.65c.08.96,1.6,1.81.85,3.32-.27.56-.83.91-1.58.95-1.76.07-3.54.07-5.3-.03-.82-.05-1.35-.53-1.56-1.24-.58-1.93,1.1-2.01,1.12-4.19l.05-5.51-.04-2.54c-.07-4.73-.18-9.37-.05-14.1.01-.35.33-.79.54-.95.26-.19.84-.23,1.16-.09.99.44,1.24,1.37,1.61,1.45.44.09,1.22-.74,2.05-.16.62.43.87,1.16.84,1.91l-.08,2.06v2.32s-.02,3.43-.02,3.43v7.69c.01,1.91.21,3.7.39,5.67Z"/></svg>