<?xml version="1.0" encoding="UTF-8"?>
<svg id="Layer_1" xmlns="http://www.w3.org/2000/svg" xmlns:xlink="http://www.w3.org/1999/xlink" version="1.1" viewBox="0 0 250 250">
  <!-- Generator: Adobe Illustrator 30.3.0, SVG Export Plug-In . SVG Version: 2.1.3 Build 182)  -->
  <defs>
    <style>
      .st0, .st1 {
        fill: none;
      }

      .st2 {
        fill: #543c1c;
      }

      .st3 {
        fill: #f9e9d2;
      }

      .st4 {
        stroke-width: 4px;
      }

      .st4, .st1, .st5 {
        stroke: #543c1c;
      }

      .st4, .st5 {
        fill: #cebc98;
      }

      .st1 {
        stroke-width: 5px;
      }

      .st5 {
        stroke-width: 2px;
      }

      .st6 {
        clip-path: url(#clippath);
      }
    </style>
    <clipPath id="clippath">
      <rect class="st0" width="250" height="250"/>
    </clipPath>
  </defs>
  <g class="st6">
    <g>
      <path class="st4" d="M40.76,94.48v22.29h128.11v-28.04l-39.45-40.2-38.05,40.2-25.14-22.29c-2.26,2.49-10.48,11.53-12.74,14.02-2.26,2.49-10.47,11.53-12.73,14.02Z"/>
      <rect class="st1" x="39.5" y="2.5" width="129.83" height="118.23" rx="5.5" ry="5.5"/>
      <ellipse class="st3" cx="79.13" cy="23.92" rx="11.15" ry="11.6"/>
      <path class="st5" d="M126.86,231.02v14.34h82.35v-18.04l-25.36-25.86-24.46,25.86-16.16-14.34-16.38,18.04h.01Z"/>
      <rect class="st1" x="126.84" y="171.89" width="83.2" height="75.61" rx="5.5" ry="5.5"/>
      <ellipse class="st3" cx="151.9" cy="185.04" rx="7.29" ry="7.59"/>
      <path class="st2" d="M159.21,158.91c1.1.07,2.05-.76,2.13-1.86l1.2-17.96c.07-1.1-.76-2.06-1.86-2.13s-2.05.76-2.13,1.86l-1.06,15.96-15.96-1.07c-1.1-.07-2.06.76-2.13,1.86s.76,2.06,1.86,2.13l17.96,1.2h0ZM140.72,135.64l-1.51,1.32,18.62,21.28,1.5-1.32,1.51-1.32-18.62-21.28-1.5,1.32Z"/>
      <path class="st4" d="M36.79,96.6"/>
      <path class="st4" d="M30.9,93.1"/>
    </g>
  </g>
  <path class="st4" d="M16.19,115.09"/>
</svg>