<svg width="250" height="250" viewBox="0 0 250 250" fill="none" xmlns="http://www.w3.org/2000/svg">
<g clip-path="url(#clip0_1880_10352)">
<path d="M37.666 96.4348V119.68H168.65V90.4475L128.32 48.5361L89.4173 90.4475L63.7201 67.2025L37.666 96.4348Z" fill="#CEBC98" stroke="#543C1C" stroke-width="4"/>
<rect x="39.5" y="2.5" width="129.83" height="118.232" rx="5.5" stroke="#543C1C" stroke-width="5"/>
<ellipse cx="79.1315" cy="23.9215" rx="11.1452" ry="11.5983" fill="#F9E9D2"/>
<path d="M126.096 231.903V246.676H209.207V228.098L183.617 201.463L158.933 228.098L142.627 213.326L126.096 231.903Z" fill="#CEBC98" stroke="#543C1C" stroke-width="2"/>
<rect x="126.836" y="171.891" width="83.1966" height="75.6098" rx="5.5" stroke="#543C1C" stroke-width="5"/>
<ellipse cx="151.896" cy="185.038" rx="7.29044" ry="7.5868" fill="#F9E9D2"/>
<path d="M159.207 158.91C160.309 158.983 161.262 158.149 161.335 157.047L162.533 139.087C162.606 137.985 161.772 137.032 160.67 136.959C159.568 136.885 158.615 137.719 158.541 138.821L157.477 154.786L141.513 153.721C140.41 153.648 139.457 154.482 139.384 155.584C139.311 156.686 140.144 157.639 141.247 157.713L159.207 158.91ZM140.723 135.638L139.218 136.955L157.835 158.231L159.34 156.914L160.845 155.597L142.228 134.321L140.723 135.638Z" fill="#543C1C"/>
</g>
<defs>
<clipPath id="clip0_1880_10352">
<rect width="250" height="250" fill="white"/>
</clipPath>
</defs>
</svg>
