<?xml version="1.0" encoding="UTF-8"?>
<svg id="Layer_3" data-name="Layer 3" xmlns="http://www.w3.org/2000/svg" viewBox="0 0 80 80">
  <defs>
    <style>
      .cls-1 {
        fill: #fff;
        opacity: .2;
      }

      .cls-2 {
        fill: #cebc98;
      }
    </style>
  </defs>
  <rect class="cls-2" width="80" height="80"/>
  <path class="cls-1" d="M82.68,47.35l-17.95,26.68c-.83,1.23-2.75.43-2.45-1.03l4.66-22.7c-.05-.44-.17-.88-.43-1.26-.27-.41-.65-.7-1.08-.91-1.19-.61-2.67-.57-2.77-.57h0l-4.66-.96c-.95-.19-1.39-1.28-.85-2.08l17.95-26.68c.83-1.23,2.75-.43,2.45,1.03l-4.66,22.7c.05.44.17.88.43,1.26.26.39.62.68,1.02.9l7.48,1.54c.95.19,1.39,1.28.85,2.08Z"/>
</svg>