<?xml version="1.0" encoding="UTF-8"?>
<svg id="Layer_1" data-name="Layer 1" xmlns="http://www.w3.org/2000/svg" viewBox="0 0 80 80">
  <defs>
    <style>
      .cls-1 {
        fill: #fff;
        opacity: .2;
      }

      .cls-2 {
        fill: #cebc98;
      }
    </style>
  </defs>
  <rect class="cls-2" width="80" height="80"/>
  <path class="cls-1" d="M94.15,37h-7.83c0-11.6-7.53-21-16.8-21s-16.8,9.4-16.8,21h-7.83c-2.37,0-4.19,2.13-3.79,4.48l4.55,27.3c.32,1.85,1.91,3.22,3.79,3.22h40.16c1.88,0,3.48-1.37,3.79-3.22l4.55-27.3c.4-2.35-1.42-4.48-3.79-4.48ZM69.53,20.67c7.74,0,11.67,6.67,11.67,16.33h-23.33c0-9.66,3.93-16.33,11.67-16.33Z"/>
</svg>