<?xml version="1.0" encoding="UTF-8"?>
<svg id="Layer_2" data-name="Layer 2" xmlns="http://www.w3.org/2000/svg" viewBox="0 0 80 80">
  <defs>
    <style>
      .cls-1 {
        fill: #fff;
        opacity: .2;
      }

      .cls-2 {
        fill: #cebc98;
      }
    </style>
  </defs>
  <rect class="cls-2" width="80" height="80"/>
  <g id="Layer_4" data-name="Layer 4">
    <path class="cls-1" d="M50.49,61.13c-1.65.76-3.21,1.67-4.7,2.73-.09.07-.17.14-.24.22-3.61-4.02-5.9-9.22-6.21-14.94h9.12c.12,4.32.84,8.4,2.03,11.99Z"/>
    <path class="cls-1" d="M55.9,70.89c-3.19-1.07-6.07-2.78-8.5-4.96,1.26-.9,2.61-1.67,4-2.32,1.22,2.91,2.75,5.4,4.5,7.28Z"/>
    <path class="cls-1" d="M79.93,65.93c-2.44,2.2-5.33,3.91-8.5,4.96,1.75-1.88,3.28-4.37,4.49-7.29,1.4.66,2.74,1.43,4.02,2.33Z"/>
    <path class="cls-1" d="M88,49.13c-.32,5.73-2.61,10.93-6.23,14.94-.07-.08-.14-.16-.24-.22-1.49-1.05-3.05-1.96-4.7-2.73,1.18-3.59,1.91-7.68,2.03-11.99h9.14Z"/>
    <path class="cls-1" d="M88,46.5h-9.14c-.12-4.32-.84-8.41-2.03-12.01,1.65-.76,3.21-1.67,4.7-2.73.09-.07.17-.14.24-.22,3.62,4.03,5.91,9.23,6.23,14.96Z"/>
    <path class="cls-1" d="M79.92,29.69c-1.26.9-2.61,1.69-4,2.33-1.21-2.91-2.74-5.4-4.49-7.28,3.17,1.05,6.06,2.76,8.49,4.95Z"/>
    <path class="cls-1" d="M55.9,24.74c-1.75,1.88-3.28,4.37-4.49,7.28-1.4-.65-2.74-1.43-4-2.33,2.44-2.19,5.32-3.88,8.49-4.95Z"/>
    <path class="cls-1" d="M50.49,34.5c-1.18,3.59-1.91,7.68-2.03,11.99h-9.12c.32-5.73,2.61-10.93,6.21-14.96.07.08.14.16.24.22,1.49,1.05,3.05,1.96,4.7,2.74Z"/>
    <path class="cls-1" d="M62.35,60.94v11.06c-3.13-.78-6.31-4.24-8.48-9.41,2.69-.97,5.53-1.53,8.48-1.65Z"/>
    <path class="cls-1" d="M62.35,49.13v9.16c-3.27.13-6.42.74-9.4,1.82-1.07-3.21-1.74-6.94-1.87-10.98h11.27Z"/>
    <path class="cls-1" d="M76.24,49.13c-.13,4.04-.8,7.77-1.87,10.98-2.98-1.08-6.14-1.69-9.39-1.82v-9.16h11.26Z"/>
    <path class="cls-1" d="M73.45,62.59c-2.17,5.17-5.35,8.64-8.47,9.41v-11.06c2.95.12,5.79.67,8.47,1.65Z"/>
    <path class="cls-1" d="M73.45,33.04c-2.67.97-5.52,1.53-8.47,1.65v-11.06c3.12.78,6.29,4.24,8.47,9.41Z"/>
    <path class="cls-1" d="M76.24,46.5h-11.26v-9.16c3.25-.13,6.41-.75,9.39-1.83,1.07,3.21,1.74,6.94,1.87,10.99Z"/>
    <path class="cls-1" d="M62.35,37.34v9.16h-11.27c.13-4.05.8-7.78,1.87-10.99,2.98,1.08,6.14,1.7,9.4,1.83Z"/>
    <path class="cls-1" d="M62.35,23.63v11.06c-2.95-.12-5.79-.67-8.48-1.65,2.17-5.17,5.35-8.64,8.48-9.41Z"/>
  </g>
</svg>