<svg width="504" height="503" viewBox="0 0 504 503" fill="none" xmlns="http://www.w3.org/2000/svg">
<path d="M265.839 397.118C258.489 381.741 248.666 368.359 236.301 356.907C223.937 345.391 209.511 336.32 193.025 329.693C176.539 323.066 158.885 319.721 140.131 319.721C121.378 319.721 103.243 323.131 86.5512 329.886C84.6965 330.658 82.8418 331.43 80.9871 332.266V287.488H60.9288L101.595 239.879L142.261 287.488H122.203V306.789C122.203 310.392 125.294 313.223 129.072 313.223C132.85 313.223 135.941 310.392 135.941 306.789V300.355H147.894C152.153 300.355 155.931 298.103 157.854 294.501C159.709 290.898 159.159 286.716 156.48 283.563L110.25 229.392C105.991 224.438 97.1985 224.438 92.9396 229.392L46.7094 283.563C44.0304 286.716 43.5495 290.898 45.4042 294.501C47.259 298.103 51.037 300.355 55.3647 300.355H67.2485V339.343C58.3872 344.49 50.2814 350.474 42.9313 357.358C30.5666 368.938 20.8123 382.578 13.5995 398.212C6.38681 413.846 2.74609 430.573 2.74609 448.394C2.74609 459.975 5.24141 473.354 7.55458 482.043C8.88543 487.042 10.5598 492.792 13.9085 495.406C17.2573 497.496 25.071 500.11 31.2103 500.11C38.4659 500.11 40.3897 500.11 45.4043 500.11H140.131C140.131 500.11 196.205 500.11 232.134 500.11C237.149 500.11 244.971 500.633 249.994 499.587C254.649 498.619 262.273 497.496 265.839 492.792C269.405 488.087 269.803 487.565 272.914 481.078C278.001 470.473 277.379 458.238 277.173 446.464C276.967 428.9 273.189 412.43 265.839 397.118ZM217.411 385.023L159.365 466.409C155.45 472.006 149.199 474.966 140.475 475.287C131.751 475.609 124.538 473.036 118.837 467.696C113.135 462.356 110.525 455.729 111.143 447.944C111.693 440.095 114.921 434.24 120.898 430.38L207.794 376.015C211.022 374.085 213.907 374.343 216.586 376.787C219.197 379.297 219.472 381.999 217.411 385.023Z" fill="#543C1C" stroke="#CEBC98" stroke-width="5.49129" stroke-miterlimit="10"/>
<path d="M137.833 357.758V327.813M153.852 360.459L158.044 329.029M169.912 364.769L180.766 334.13M186.009 371.966L201.374 343.048M201.374 381.079L219.869 355.131M215.26 393.709L235.722 369.841M224.346 410.818L249.11 388.228M234.251 426.726L257.955 409.855M241.376 443.825L266.37 434.459M243.798 461.801L269.624 459.055" stroke="#CEBC98" stroke-width="3.29478" stroke-linecap="round"/>
<path d="M137.833 357.758V327.813M121.813 360.459L117.621 329.029M105.753 364.769L94.8991 334.13M89.6562 371.966L74.2907 343.048M74.2907 381.079L55.7959 355.131M60.4053 393.709L39.9433 369.841M51.3194 410.818L26.5551 388.228M41.4141 426.726L17.7096 409.855M34.2886 443.825L9.29482 434.459M31.8673 461.801L6.04147 459.055" stroke="#CEBC98" stroke-width="3.29478" stroke-linecap="round"/>
<path d="M238.872 461.801H35.6942C35.6942 406.605 81.1771 361.86 137.283 361.86C193.389 361.86 238.872 406.605 238.872 461.801Z" fill="#CEBC98" fill-opacity="0.2"/>
<path d="M217.379 385.461L159.334 466.847C155.419 472.445 149.168 475.404 140.444 475.726C131.72 476.047 124.507 473.474 118.805 468.134C113.104 462.794 110.494 456.167 111.112 448.383C111.661 440.533 114.89 434.679 120.866 430.819L207.762 376.454C210.991 374.524 213.876 374.781 216.555 377.226C219.165 379.735 219.44 382.437 217.379 385.461Z" fill="#F9E9D2" stroke="#543C1C" stroke-width="4.39303" stroke-miterlimit="10"/>
<path d="M437.672 207.16C473.541 207.16 502.652 178.252 502.652 142.634C502.652 107.015 476.01 80.9467 442.22 78.6238C437.867 56.6849 425.975 36.8754 408.496 22.6797C391.081 8.4194 369.247 0.67627 346.699 0.67627C309.141 0.67627 276.521 21.8408 260.276 52.8133C241.171 54.8782 223.497 63.8473 210.696 78.043C197.829 92.2388 190.747 110.629 190.747 129.728C190.747 172.445 225.706 207.16 268.723 207.16H420.387V248.392H439.361L400.893 296.141L362.425 248.392H381.399V229.034C381.399 225.485 378.54 222.581 374.901 222.581C371.262 222.581 368.403 225.485 368.403 229.034V235.487H357.161C353.132 235.487 349.493 237.745 347.739 241.358C345.985 245.036 346.439 249.231 348.974 252.392L392.77 306.659C396.734 311.627 405.117 311.627 409.08 306.659L452.812 252.392C455.346 249.231 455.866 245.036 454.112 241.358C452.357 237.745 448.718 235.487 444.69 235.487H433.383V207.16H437.672ZM268.723 181.349C240.002 181.349 216.739 158.249 216.739 129.728C216.739 103.273 236.623 81.2048 263.005 78.4947L276.91 77.0751L283.408 64.8152C289.387 53.265 298.484 43.5861 309.596 36.8109C320.772 30.0356 333.638 26.4867 346.699 26.4867C380.749 26.4867 410.12 50.4904 416.748 83.6568L420.647 103.015L440.531 104.434C450.278 105.079 459.44 109.403 466.133 116.501C472.891 123.534 476.595 132.89 476.66 142.634C476.66 163.927 459.115 181.349 437.672 181.349H268.723Z" fill="#543C1C" stroke="#CEBC98" stroke-width="1.35257" stroke-miterlimit="10"/>
<path d="M476.661 142.633C476.661 163.927 459.116 181.349 437.673 181.349H268.724C240.003 181.349 216.74 158.249 216.74 129.728C216.74 103.272 236.624 81.2044 263.006 78.4943L276.911 77.0748L283.41 64.8148C289.388 53.2646 298.485 43.5857 309.597 36.8105C320.773 30.0353 333.639 26.4863 346.7 26.4863C380.75 26.4863 410.121 50.49 416.749 83.6564L420.648 103.014L440.532 104.434C450.279 105.079 459.441 109.402 466.134 116.5C472.892 123.534 476.596 132.89 476.661 142.633Z" fill="#F9E9D2" stroke="#CEBC98" stroke-width="13.5258" stroke-miterlimit="10"/>
<path d="M304.763 107.845C306.063 106.619 307.492 105.716 308.987 105.2C310.546 104.683 312.171 104.361 313.925 104.361C315.42 104.361 316.914 104.619 318.279 105.07C319.579 105.522 320.878 106.103 322.048 106.748C323.152 107.458 324.192 108.103 325.102 108.813C326.012 109.523 326.726 110.103 327.311 110.62H328.741V99.1986C327.831 98.8114 326.856 98.3597 325.687 97.8435C324.517 97.3273 323.282 96.8757 321.853 96.4885C320.488 96.1659 318.994 95.8432 317.434 95.6497C315.81 95.4561 313.99 95.327 312.041 95.327C308.467 95.327 305.153 95.9078 302.099 97.0047C299.045 98.1662 296.511 99.7793 294.431 101.844C292.352 103.909 290.662 106.619 289.558 109.587C288.453 112.62 287.868 116.04 287.868 119.718C287.868 123.719 288.453 127.267 289.623 130.3C290.857 133.333 292.482 135.849 294.626 137.914C296.77 139.915 299.305 141.463 302.294 142.496C305.218 143.528 308.467 144.044 311.976 144.044C314.38 144.044 316.265 143.915 317.564 143.722C318.929 143.463 320.358 143.141 321.918 142.689C323.087 142.367 324.257 141.979 325.297 141.528C326.401 141.011 327.506 140.56 328.741 140.044V128.816H327.441C326.856 129.332 326.142 129.913 325.232 130.623C324.387 131.268 323.412 131.913 322.373 132.559C321.138 133.268 319.838 133.914 318.344 134.301C316.914 134.752 315.42 135.011 313.99 135.011C312.431 135.011 310.871 134.752 309.247 134.236C307.687 133.72 306.258 132.946 304.958 131.784C303.658 130.623 302.619 129.074 301.774 127.138C300.994 125.138 300.539 122.686 300.539 119.782C300.539 116.879 300.929 114.556 301.709 112.62C302.489 110.62 303.463 109.071 304.763 107.845Z" fill="#543C1C"/>
<path d="M377.085 101.845C372.797 97.4571 366.818 95.2632 359.216 95.2632C351.613 95.2632 345.7 97.4571 341.411 101.845C337.057 106.233 334.913 112.169 334.913 119.719C334.913 127.268 337.057 133.14 341.411 137.528C345.7 141.916 351.678 144.109 359.216 144.109C366.753 144.109 372.797 141.916 377.15 137.528C381.439 133.14 383.583 127.204 383.583 119.719C383.583 112.234 381.439 106.233 377.085 101.845ZM370.067 126.494C369.548 128.494 368.638 130.172 367.468 131.591C366.429 132.817 365.194 133.785 363.764 134.366C362.335 134.947 360.84 135.269 359.281 135.269C357.721 135.269 356.227 134.947 354.797 134.366C353.367 133.785 352.133 132.882 351.093 131.656C350.053 130.43 349.209 128.817 348.559 126.816C347.909 124.881 347.584 122.493 347.584 119.719C347.584 116.944 347.909 114.556 348.559 112.492C349.209 110.427 350.118 108.814 351.158 107.652C352.328 106.362 353.562 105.458 354.927 104.942C356.292 104.361 357.721 104.103 359.281 104.103C360.84 104.103 362.27 104.361 363.699 104.942C365.064 105.523 366.299 106.426 367.403 107.717C368.443 108.943 369.288 110.491 369.937 112.492C370.652 114.427 370.977 116.879 370.977 119.654C370.977 122.429 370.652 124.558 370.067 126.494Z" fill="#543C1C"/>
<path d="M399.894 149.466C400.673 148.95 401.583 148.304 402.623 147.53C403.662 146.82 404.572 146.111 405.287 145.465C407.821 143.271 409.446 141.4 410.16 139.852C410.94 138.303 411.265 136.625 411.265 134.948C411.265 131.979 410.225 129.786 408.081 128.237C405.937 126.688 402.948 125.914 399.049 125.914C397.034 125.914 394.955 126.108 392.941 126.495C390.926 126.946 389.237 127.334 387.872 127.85V135.335H388.587C389.757 134.625 391.056 134.044 392.486 133.528C393.98 133.076 395.28 132.818 396.515 132.818C398.139 132.818 399.439 133.141 400.283 133.786C401.128 134.431 401.583 135.399 401.583 136.625C401.583 137.787 401.258 138.884 400.673 139.981C400.153 141.142 398.659 142.562 396.255 144.433C395.15 145.272 393.85 146.24 392.226 147.208C390.666 148.24 389.107 149.143 387.677 150.047V155.983H413.279V149.466H399.894Z" fill="#543C1C"/>
</svg>
