<svg width="505" height="500" viewBox="0 0 505 500" fill="none" xmlns="http://www.w3.org/2000/svg">
<path d="M265.839 378.343C258.489 362.967 248.666 349.585 236.301 338.133C223.937 326.616 209.511 317.545 193.025 310.918C176.539 304.291 158.885 300.946 140.131 300.946C121.378 300.946 103.243 304.356 86.5512 311.111C84.6965 311.883 82.8418 312.655 80.9871 313.492V268.713H60.9288L101.595 221.104L142.261 268.713H122.203V288.014C122.203 291.617 125.294 294.448 129.072 294.448C132.85 294.448 135.941 291.617 135.941 288.014V281.58H147.894C152.153 281.58 155.931 279.329 157.854 275.726C159.709 272.123 159.159 267.941 156.48 264.789L110.25 210.617C105.991 205.663 97.1985 205.663 92.9396 210.617L46.7094 264.789C44.0304 267.941 43.5495 272.123 45.4042 275.726C47.259 279.329 51.037 281.58 55.3647 281.58H67.2485V320.569C58.3872 325.716 50.2814 331.699 42.9313 338.583C30.5666 350.164 20.8123 363.803 13.5995 379.437C6.38681 395.071 2.74609 411.798 2.74609 429.62C2.74609 441.2 5.24141 454.579 7.55458 463.268C8.88543 468.267 10.5598 474.017 13.9085 476.631C17.2573 478.722 25.071 481.335 31.2103 481.335C38.4659 481.335 40.3897 481.335 45.4043 481.335H140.131C140.131 481.335 196.205 481.335 232.134 481.335C237.149 481.335 244.971 481.858 249.994 480.813C254.649 479.844 262.273 478.722 265.839 474.017C269.405 469.313 269.803 468.79 272.914 462.303C278.001 451.699 277.379 439.463 277.173 427.69C276.967 410.126 273.189 393.655 265.839 378.343ZM217.411 366.248L159.365 447.634C155.45 453.231 149.199 456.191 140.475 456.513C131.751 456.834 124.538 454.261 118.837 448.921C113.135 443.581 110.525 436.954 111.143 429.169C111.693 421.32 114.921 415.466 120.898 411.605L207.794 357.241C211.022 355.311 213.907 355.568 216.586 358.013C219.197 360.522 219.472 363.224 217.411 366.248Z" fill="#543C1C" stroke="#CEBC98" stroke-width="5.49129" stroke-miterlimit="10"/>
<path d="M137.832 338.983V309.038M153.852 341.684L158.043 310.254M169.911 345.994L180.765 315.355M186.008 353.191L201.374 324.273M201.374 362.304L219.869 336.356M215.259 374.934L235.721 351.066M224.345 392.043L249.109 369.453M234.25 407.951L257.955 391.08M241.376 425.05L266.37 415.684M243.797 443.026L269.623 440.28" stroke="#CEBC98" stroke-width="3.29478" stroke-linecap="round"/>
<path d="M137.832 338.983V309.038M121.812 341.684L117.621 310.254M105.753 345.994L94.8986 315.355M89.6557 353.191L74.2902 324.273M74.2902 362.304L55.7954 336.356M60.4048 374.934L39.9428 351.066M51.3189 392.043L26.5546 369.453M41.4136 407.951L17.7091 391.08M34.2881 425.05L9.29433 415.684M31.8669 443.026L6.04098 440.28" stroke="#CEBC98" stroke-width="3.29478" stroke-linecap="round"/>
<path d="M238.873 443.026H35.6952C35.6952 387.83 81.1781 343.085 137.284 343.085C193.39 343.085 238.873 387.83 238.873 443.026Z" fill="#CEBC98" fill-opacity="0.2"/>
<path d="M217.38 366.686L159.335 448.072C155.419 453.669 149.168 456.629 140.444 456.95C131.72 457.272 124.507 454.699 118.806 449.359C113.104 444.019 110.494 437.392 111.112 429.607C111.662 421.758 114.89 415.904 120.867 412.043L207.763 357.679C210.991 355.749 213.877 356.006 216.556 358.451C219.166 360.96 219.441 363.662 217.38 366.686Z" fill="#F9E9D2" stroke="#543C1C" stroke-width="4.39303" stroke-miterlimit="10"/>
<path d="M438.572 224.483C474.441 224.483 503.552 195.576 503.552 159.957C503.552 124.339 476.91 98.2704 443.12 95.9475C438.767 74.0086 426.875 54.1991 409.395 40.0034C391.981 25.7431 370.147 18 347.599 18C310.041 18 277.42 39.1645 261.175 70.1371C242.071 72.2019 224.397 81.171 211.595 95.3667C198.729 109.562 191.646 127.952 191.646 147.052C191.646 189.768 226.606 224.483 269.623 224.483H421.287V265.716H440.261L401.793 313.465L363.324 265.716H382.299V246.358C382.299 242.809 379.44 239.905 375.801 239.905C372.162 239.905 369.303 242.809 369.303 246.358V252.81H358.061C354.032 252.81 350.393 255.069 348.639 258.682C346.884 262.36 347.339 266.554 349.874 269.716L393.67 323.983C397.634 328.951 406.016 328.951 409.98 323.983L453.712 269.716C456.246 266.554 456.766 262.36 455.012 258.682C453.257 255.069 449.618 252.81 445.59 252.81H434.283V224.483H438.572ZM269.623 198.673C240.902 198.673 217.639 175.573 217.639 147.052C217.639 120.596 237.523 98.5285 263.905 95.8184L277.81 94.3989L284.308 82.1389C290.287 70.5887 299.384 60.9098 310.495 54.1346C321.672 47.3594 334.538 43.8104 347.599 43.8104C381.649 43.8104 411.02 67.8141 417.648 100.981L421.547 120.338L441.431 121.758C451.178 122.403 460.34 126.726 467.033 133.824C473.791 140.858 477.495 150.214 477.56 159.957C477.56 181.251 460.015 198.673 438.572 198.673H269.623Z" fill="#543C1C" stroke="#CEBC98" stroke-width="1.35257" stroke-miterlimit="10"/>
<path d="M477.562 159.957C477.562 181.251 460.017 198.673 438.574 198.673H269.625C240.904 198.673 217.641 175.573 217.641 147.052C217.641 120.597 237.525 98.5286 263.907 95.8186L277.812 94.399L284.31 82.139C290.289 70.5889 299.386 60.91 310.497 54.1347C321.674 47.3595 334.54 43.8105 347.601 43.8105C381.651 43.8105 411.022 67.8142 417.65 100.981L421.549 120.338L441.433 121.758C451.18 122.403 460.342 126.727 467.035 133.824C473.793 140.858 477.497 150.214 477.562 159.957Z" fill="#F9E9D2" stroke="#CEBC98" stroke-width="13.5258" stroke-miterlimit="10"/>
<path d="M305.664 125.168C306.964 123.942 308.394 123.039 309.888 122.523C311.448 122.007 313.072 121.684 314.827 121.684C316.321 121.684 317.816 121.942 319.18 122.394C320.48 122.846 321.78 123.426 322.949 124.072C324.054 124.781 325.094 125.427 326.003 126.136C326.913 126.846 327.628 127.427 328.213 127.943H329.642V116.522C328.732 116.135 327.758 115.683 326.588 115.167C325.418 114.651 324.184 114.199 322.754 113.812C321.39 113.489 319.895 113.167 318.336 112.973C316.711 112.779 314.892 112.65 312.942 112.65C309.368 112.65 306.054 113.231 303 114.328C299.946 115.49 297.412 117.103 295.333 119.168C293.253 121.232 291.564 123.942 290.459 126.911C289.354 129.943 288.77 133.363 288.77 137.041C288.77 141.042 289.354 144.591 290.524 147.624C291.759 150.656 293.383 153.173 295.527 155.238C297.672 157.238 300.206 158.787 303.195 159.819C306.119 160.851 309.368 161.368 312.877 161.368C315.281 161.368 317.166 161.239 318.466 161.045C319.83 160.787 321.26 160.464 322.819 160.013C323.989 159.69 325.158 159.303 326.198 158.851C327.303 158.335 328.408 157.883 329.642 157.367V146.139H328.343C327.758 146.656 327.043 147.236 326.133 147.946C325.288 148.591 324.314 149.237 323.274 149.882C322.039 150.592 320.74 151.237 319.245 151.624C317.816 152.076 316.321 152.334 314.892 152.334C313.332 152.334 311.773 152.076 310.148 151.56C308.589 151.043 307.159 150.269 305.859 149.108C304.56 147.946 303.52 146.398 302.675 144.462C301.896 142.461 301.441 140.009 301.441 137.106C301.441 134.202 301.831 131.879 302.61 129.943C303.39 127.943 304.365 126.394 305.664 125.168Z" fill="#543C1C"/>
<path d="M377.987 119.168C373.698 114.78 367.72 112.586 360.117 112.586C352.514 112.586 346.601 114.78 342.312 119.168C337.959 123.555 335.814 129.492 335.814 137.041C335.814 144.591 337.959 150.463 342.312 154.851C346.601 159.238 352.579 161.432 360.117 161.432C367.655 161.432 373.698 159.238 378.052 154.851C382.34 150.463 384.485 144.526 384.485 137.041C384.485 129.556 382.34 123.555 377.987 119.168ZM370.969 143.817C370.449 145.817 369.539 147.495 368.37 148.914C367.33 150.14 366.095 151.108 364.666 151.689C363.236 152.269 361.742 152.592 360.182 152.592C358.623 152.592 357.128 152.269 355.698 151.689C354.269 151.108 353.034 150.205 351.995 148.979C350.955 147.753 350.11 146.139 349.46 144.139C348.811 142.203 348.486 139.816 348.486 137.041C348.486 134.267 348.811 131.879 349.46 129.814C350.11 127.75 351.02 126.136 352.06 124.975C353.229 123.684 354.464 122.781 355.828 122.265C357.193 121.684 358.623 121.426 360.182 121.426C361.742 121.426 363.171 121.684 364.601 122.265C365.965 122.846 367.2 123.749 368.305 125.039C369.344 126.265 370.189 127.814 370.839 129.814C371.554 131.75 371.879 134.202 371.879 136.977C371.879 139.751 371.554 141.881 370.969 143.817Z" fill="#543C1C"/>
<path d="M400.794 166.789C401.574 166.273 402.484 165.628 403.524 164.854C404.563 164.144 405.473 163.434 406.188 162.789C408.722 160.595 410.347 158.724 411.061 157.175C411.841 155.626 412.166 153.949 412.166 152.271C412.166 149.303 411.126 147.109 408.982 145.56C406.838 144.012 403.848 143.237 399.95 143.237C397.935 143.237 395.856 143.431 393.842 143.818C391.827 144.27 390.138 144.657 388.773 145.173V152.658H389.488C390.657 151.948 391.957 151.368 393.387 150.851C394.881 150.4 396.181 150.142 397.415 150.142C399.04 150.142 400.34 150.464 401.184 151.109C402.029 151.755 402.484 152.723 402.484 153.949C402.484 155.11 402.159 156.207 401.574 157.304C401.054 158.465 399.56 159.885 397.156 161.756C396.051 162.595 394.751 163.563 393.127 164.531C391.567 165.563 390.008 166.467 388.578 167.37V173.306H414.18V166.789H400.794Z" fill="#543C1C"/>
</svg>
