<svg width="252" height="252" viewBox="0 0 252 252" fill="none" xmlns="http://www.w3.org/2000/svg">
<path d="M198.532 167.292C227.282 167.292 250.615 143.957 250.615 115.206C250.615 86.454 229.261 65.4113 202.178 63.5362C198.688 45.8269 189.157 29.8365 175.146 18.3776C161.188 6.86654 143.688 0.616211 125.615 0.616211C95.5111 0.616211 69.3652 17.7004 56.3444 42.7017C41.0319 44.3685 26.8652 51.6085 16.6048 63.0674C6.29232 74.5263 0.615234 89.3708 0.615234 104.788C0.615234 139.269 28.6361 167.292 63.1152 167.292H184.678V200.575H199.886L169.053 239.118L138.219 200.575H153.428V184.949C153.428 182.084 151.136 179.74 148.219 179.74C145.303 179.74 143.011 182.084 143.011 184.949V190.157H134.001C130.771 190.157 127.855 191.98 126.449 194.897C125.042 197.866 125.407 201.252 127.438 203.804L162.542 247.608C165.719 251.619 172.438 251.619 175.615 247.608L210.667 203.804C212.699 201.252 213.115 197.866 211.709 194.897C210.303 191.98 207.386 190.157 204.157 190.157H195.094V167.292H198.532ZM63.1152 146.457C40.0944 146.457 21.4486 127.81 21.4486 104.788C21.4486 83.433 37.3861 65.6196 58.5319 63.432L69.6777 62.2861L74.8861 52.3897C79.6777 43.0663 86.9694 35.2534 95.8757 29.7844C104.834 24.3154 115.146 21.4506 125.615 21.4506C152.907 21.4506 176.449 40.8266 181.761 67.5989L184.886 83.2247L200.824 84.3706C208.636 84.8914 215.98 88.3812 221.344 94.1107C226.761 99.7881 229.73 107.341 229.782 115.206C229.782 132.394 215.719 146.457 198.532 146.457H63.1152Z" fill="#543C1C" stroke="#CEBC98" stroke-width="1.23156" stroke-miterlimit="10"/>
<path d="M229.784 115.205C229.784 132.393 215.722 146.457 198.534 146.457H63.1178C40.097 146.457 21.4512 127.81 21.4512 104.788C21.4512 83.4326 37.3887 65.6192 58.5345 63.4316L69.6803 62.2857L74.8887 52.3893C79.6803 43.0659 86.972 35.253 95.8783 29.784C104.837 24.3149 115.149 21.4502 125.618 21.4502C152.909 21.4502 176.451 40.8262 181.764 67.5984L184.889 83.2243L200.826 84.3701C208.639 84.891 215.982 88.3808 221.347 94.1102C226.764 99.7876 229.732 107.34 229.784 115.205Z" fill="#F9E9D2" stroke="#CEBC98" stroke-width="12.3156" stroke-miterlimit="10"/>
<path d="M92.0006 87.1252C93.0423 86.1356 94.1882 85.4064 95.3861 84.9897C96.6361 84.573 97.9381 84.3126 99.3444 84.3126C100.542 84.3126 101.74 84.5209 102.834 84.8855C103.876 85.2501 104.917 85.7189 105.855 86.2397C106.74 86.8127 107.574 87.3335 108.303 87.9065C109.032 88.4794 109.605 88.9482 110.074 89.3649H111.219V80.1457C110.49 79.8332 109.709 79.4685 108.771 79.0519C107.834 78.6352 106.844 78.2706 105.699 77.9581C104.605 77.6976 103.407 77.4372 102.157 77.2809C100.855 77.1247 99.3965 77.0205 97.834 77.0205C94.9694 77.0205 92.3131 77.4893 89.8652 78.3747C87.4173 79.3123 85.3861 80.6144 83.7194 82.2812C82.0527 83.948 80.6986 86.1356 79.8131 88.5315C78.9277 90.9796 78.459 93.7401 78.459 96.709C78.459 99.9384 78.9277 102.803 79.8652 105.251C80.8548 107.699 82.1569 109.731 83.8757 111.397C85.5944 113.012 87.6257 114.262 90.0215 115.095C92.3652 115.929 94.9694 116.345 97.7819 116.345C99.709 116.345 101.219 116.241 102.261 116.085C103.355 115.877 104.501 115.616 105.751 115.252C106.688 114.991 107.626 114.679 108.459 114.314C109.344 113.897 110.23 113.533 111.219 113.116V104.053H110.178C109.709 104.47 109.136 104.939 108.407 105.512C107.73 106.032 106.949 106.553 106.115 107.074C105.126 107.647 104.084 108.168 102.886 108.48C101.74 108.845 100.542 109.053 99.3965 109.053C98.1465 109.053 96.8965 108.845 95.5944 108.428C94.3444 108.012 93.1986 107.387 92.1569 106.449C91.1152 105.512 90.2819 104.262 89.6048 102.699C88.9798 101.084 88.6152 99.105 88.6152 96.7611C88.6152 94.4172 88.9277 92.5422 89.5527 90.9796C90.1777 89.3649 90.959 88.1148 92.0006 87.1252Z" fill="#543C1C"/>
<path d="M149.97 82.2806C146.533 78.7387 141.741 76.9678 135.647 76.9678C129.553 76.9678 124.814 78.7387 121.376 82.2806C117.887 85.8224 116.168 90.6143 116.168 96.7084C116.168 102.802 117.887 107.542 121.376 111.084C124.814 114.626 129.605 116.397 135.647 116.397C141.689 116.397 146.533 114.626 150.022 111.084C153.46 107.542 155.178 102.75 155.178 96.7084C155.178 90.6664 153.46 85.8224 149.97 82.2806ZM144.345 102.177C143.928 103.792 143.199 105.146 142.262 106.292C141.428 107.282 140.439 108.063 139.293 108.532C138.147 109.001 136.949 109.261 135.699 109.261C134.449 109.261 133.251 109.001 132.105 108.532C130.96 108.063 129.97 107.334 129.137 106.344C128.303 105.355 127.626 104.053 127.105 102.438C126.585 100.875 126.324 98.9481 126.324 96.7084C126.324 94.4687 126.585 92.5415 127.105 90.8747C127.626 89.208 128.355 87.9058 129.189 86.9683C130.126 85.9266 131.116 85.1974 132.21 84.7807C133.303 84.3119 134.449 84.1036 135.699 84.1036C136.949 84.1036 138.095 84.3119 139.241 84.7807C140.335 85.2495 141.324 85.9787 142.21 87.0204C143.043 88.01 143.72 89.2601 144.241 90.8747C144.814 92.4373 145.074 94.4166 145.074 96.6563C145.074 98.896 144.814 100.615 144.345 102.177Z" fill="#543C1C"/>
<path d="M168.253 120.72C168.878 120.304 169.607 119.783 170.44 119.158C171.273 118.585 172.003 118.012 172.576 117.491C174.607 115.72 175.909 114.21 176.482 112.96C177.107 111.71 177.367 110.355 177.367 109.001C177.367 106.605 176.534 104.834 174.815 103.584C173.096 102.334 170.701 101.709 167.576 101.709C165.961 101.709 164.294 101.865 162.68 102.178C161.065 102.542 159.711 102.855 158.617 103.272V109.314H159.19C160.128 108.741 161.169 108.272 162.315 107.855C163.513 107.491 164.555 107.282 165.544 107.282C166.846 107.282 167.888 107.543 168.565 108.063C169.242 108.584 169.607 109.366 169.607 110.355C169.607 111.293 169.346 112.178 168.878 113.064C168.461 114.001 167.263 115.147 165.336 116.658C164.451 117.335 163.409 118.116 162.107 118.897C160.857 119.731 159.607 120.46 158.461 121.189V125.981H178.982V120.72H168.253Z" fill="#543C1C"/>
</svg>
