<?xml version="1.0" encoding="UTF-8"?><svg id="s" xmlns="http://www.w3.org/2000/svg" viewBox="0 0 25.52 80"><defs><style>.u{fill:#543c1c;}.v{fill:#cebc98;}</style></defs><path class="v" d="M4.72,79.22c-2.39,0-4.34-1.95-4.34-4.35V9.22c0-2.39,1.95-4.34,4.34-4.34h16.03c2.39,0,4.34,1.95,4.34,4.34v65.65c0,2.4-1.95,4.35-4.34,4.35H4.72ZM4.72,7.43c-1.84,0-3.34,1.5-3.34,3.35v59.86c0,1.84,1.5,3.34,3.34,3.34h16.03c1.84,0,3.34-1.5,3.34-3.34V10.78c0-1.85-1.5-3.35-3.34-3.35H4.72Z"/><path class="u" d="M20.75,5.13c2.26,0,4.09,1.83,4.09,4.09v65.65c0,2.26-1.83,4.1-4.09,4.1H4.72c-2.26,0-4.09-1.84-4.09-4.1V9.22c0-2.26,1.83-4.09,4.09-4.09h16.03M4.72,74.23h16.03c1.98,0,3.59-1.61,3.59-3.59V10.78c0-1.99-1.61-3.6-3.59-3.6H4.72c-1.98,0-3.59,1.61-3.59,3.6v59.86c0,1.98,1.61,3.59,3.59,3.59M20.75,4.63H4.72C2.19,4.63.13,6.69.13,9.22v65.65c0,2.54,2.06,4.6,4.59,4.6h16.03c2.53,0,4.59-2.06,4.59-4.6V9.22c0-2.53-2.06-4.59-4.59-4.59h0ZM4.72,73.73c-1.7,0-3.09-1.39-3.09-3.09V10.78c0-1.71,1.39-3.1,3.09-3.1h16.03c1.7,0,3.09,1.39,3.09,3.1v59.86c0,1.7-1.39,3.09-3.09,3.09H4.72Z"/><path class="v" d="M8.39,4.86v-.79c0-.69.56-1.25,1.25-1.25h6.26c.69,0,1.25.56,1.25,1.25v.79h-8.76Z"/><path class="u" d="M15.9,3.06c.55,0,1,.45,1,1v.54h-8.26v-.54c0-.55.45-1,1-1h6.26M15.9,2.56h-6.26c-.83,0-1.5.67-1.5,1.5v1.04h9.26v-1.04c0-.83-.67-1.5-1.5-1.5h0Z"/></svg>