<svg width="250" height="250" viewBox="0 0 250 250" fill="none" xmlns="http://www.w3.org/2000/svg">
<g clip-path="url(#clip0_1880_10217)">
<path d="M40.1803 10.8128L0 117.716H12.6353L26.6786 80.4508H64.4041L78.7361 117.716H91.3715L51.1911 10.8128C50.7579 9.69775 49.9998 8.72656 48.989 8.04313C48.0142 7.3597 46.859 7 45.6677 7C44.4764 7 43.3211 7.3597 42.3464 8.04313C41.3717 8.72656 40.6136 9.69775 40.1442 10.8128H40.1803ZM31.1912 68.7606L45.7038 30.1287L60.1442 68.7606H31.1912ZM119.35 44.229C113.068 43.5456 106.75 45.2002 101.588 48.9051C96.3895 52.5741 92.6711 58.0415 91.0827 64.3003L102.491 67.2858C103.501 63.6888 105.776 60.5594 108.844 58.5451C111.949 56.5308 115.631 55.7035 119.277 56.279C126.534 56.279 134.259 58.7969 134.259 65.9189V73.1489C131.696 73.1489 128.303 74.0122 125.415 74.4079C117.364 74.9474 109.422 76.638 101.841 79.4437C97.5086 80.8825 93.8263 83.7961 91.3715 87.7528C88.9527 91.6735 87.9419 96.3856 88.5195 100.99C88.8083 103.795 89.6747 106.493 91.1188 108.903C92.5628 111.313 94.5122 113.363 96.8227 114.874C101.408 117.716 106.714 119.155 112.093 119.011C116.462 119.011 120.794 118.291 124.909 116.889C128.339 115.845 131.552 114.155 134.332 111.853V117.752H146.1V65.811C146.1 53.2575 135.342 44.193 119.314 44.193L119.35 44.229ZM121.444 105.378C118.555 106.529 115.451 107.069 112.382 106.961C109.278 106.853 106.245 106.062 103.429 104.695C102.563 104.191 101.841 103.436 101.299 102.572C100.758 101.709 100.469 100.702 100.397 99.6589C99.4581 91.062 108.122 88.4722 126.786 86.3499L133.934 85.3787C132.129 101.601 125.09 104.119 121.407 105.378H121.444Z" fill="#CEBC98" stroke="#543C1C" stroke-miterlimit="10"/>
<path d="M170.976 237.244L140.507 133.29C139.821 130.916 137.583 129.262 135.092 129.262C133.864 129.262 132.673 129.657 131.662 130.413C130.723 131.132 130.038 132.139 129.677 133.29L99.2435 237.244C98.5215 239.618 99.8933 242.136 102.276 242.819C102.709 242.927 103.142 242.999 103.576 242.999C105.525 242.999 107.33 241.74 107.872 239.762L116.897 208.971H153.287L162.312 239.762C162.998 242.136 165.525 243.503 167.907 242.819C170.29 242.136 171.662 239.618 170.976 237.244ZM119.532 199.979L135.092 146.887L150.651 199.979H119.532Z" fill="#543C1C" stroke="#CEBC98" stroke-width="0.5" stroke-miterlimit="10"/>
<path d="M216.57 160.665H203.43C200.939 160.665 198.917 162.679 198.917 165.161C198.917 167.643 200.939 169.658 203.43 169.658H216.57C229.386 169.658 239.928 179.585 240.866 192.103H203.43C196.607 192.103 190.181 194.765 185.379 199.549C180.542 204.369 177.906 210.771 177.906 217.57C177.906 224.368 180.542 230.735 185.379 235.555C190.181 240.339 196.607 243 203.43 243H216.57C226.173 243 234.874 238.936 240.975 232.461V238.504C240.975 240.986 242.996 243 245.487 243C247.978 243 250 240.986 250 238.504V193.973C250 175.629 235.018 160.665 216.57 160.665ZM216.57 234.008H203.43C199.025 234.008 194.874 232.281 191.769 229.188C188.628 226.095 186.931 221.958 186.931 217.57C186.931 213.181 188.628 209.045 191.769 205.915C194.874 202.822 199.025 201.095 203.43 201.095H240.975V209.692C240.975 223.109 230.036 234.008 216.57 234.008Z" fill="#543C1C" stroke="#CEBC98" stroke-width="0.5" stroke-miterlimit="10"/>
</g>
<defs>
<clipPath id="clip0_1880_10217">
<rect width="250" height="250" fill="white"/>
</clipPath>
</defs>
</svg>
