<svg width="250" height="250" viewBox="0 0 250 250" fill="none" xmlns="http://www.w3.org/2000/svg">
<g clip-path="url(#clip0_1880_10349)">
<path d="M124.5 151.841C124.5 150.925 124.708 150.028 125.145 149.223C127.136 145.556 133.474 134.724 140.429 131.581C148.845 127.777 152.887 126.982 164.322 126.974C173.409 126.967 191.217 136.67 198.146 140.654C199.936 141.683 201 143.59 201 145.655V230.785C201 234.969 196.763 237.872 192.81 236.503C185.037 233.813 173.516 230.297 166.418 230.305C154.924 230.317 151.747 231.401 143.573 236.886C140.42 239.002 136.862 241.378 133.68 243.499C129.753 246.118 124.5 243.3 124.5 238.58V151.841Z" fill="#543C1C" stroke="#543C1C" stroke-width="3.9433"/>
<path d="M124.5 151.841C124.5 150.925 124.292 150.028 123.855 149.223C121.864 145.556 115.526 134.724 108.571 131.581C100.155 127.777 96.1127 126.982 84.6781 126.974C75.5909 126.967 57.7828 136.67 50.8539 140.654C49.0644 141.683 48 143.59 48 145.655V230.785C48 234.969 52.2365 237.872 56.1902 236.503C63.9634 233.813 75.4837 230.297 82.5822 230.305C94.0764 230.317 97.2534 231.401 105.427 236.886C108.58 239.002 112.138 241.378 115.32 243.499C119.247 246.118 124.5 243.3 124.5 238.58V151.841Z" fill="#543C1C" stroke="#543C1C" stroke-width="3.9433"/>
<path d="M124.5 153.368C124.5 152.356 124.756 151.364 125.287 150.502C127.424 147.034 133.631 137.756 140.429 135.02C148.845 131.633 152.887 130.925 164.322 130.917C173.297 130.911 190.777 139.34 197.884 142.967C199.816 143.954 201 145.947 201 148.117V222.774C201 226.862 196.942 229.75 193.037 228.542C185.262 226.138 173.586 222.945 166.418 222.951C154.924 222.962 151.747 223.928 143.573 228.813C140.334 230.749 136.667 232.93 133.42 234.858C129.481 237.197 124.5 234.356 124.5 229.774V153.368Z" fill="#CEBC98" stroke="#543C1C" stroke-width="1.97165"/>
<path d="M124.5 153.291C124.5 152.328 124.733 151.38 125.216 150.547C127.207 147.115 133.086 137.768 139.526 135.02C147.465 131.633 151.278 130.925 162.064 130.917C170.508 130.911 186.933 139.296 193.67 142.939C195.532 143.946 196.662 145.9 196.662 148.018V222.604C196.662 226.739 192.52 229.637 188.587 228.359C181.263 225.978 170.632 222.945 164.041 222.951C153.199 222.962 150.202 223.928 142.491 228.813C139.646 230.616 136.451 232.631 133.551 234.457C129.616 236.935 124.5 234.104 124.5 229.454V153.291Z" fill="#543C1C" stroke="#543C1C" stroke-width="1.97165"/>
<path d="M124.5 153.368C124.5 152.356 124.244 151.364 123.713 150.502C121.576 147.034 115.369 137.756 108.571 135.02C100.155 131.633 96.1127 130.925 84.6781 130.917C75.7035 130.911 58.2226 139.34 51.1163 142.967C49.1836 143.954 48 145.947 48 148.117V222.774C48 226.862 52.0583 229.75 55.9635 228.542C63.7379 226.138 75.4143 222.945 82.5822 222.951C94.0764 222.962 97.2534 223.928 105.427 228.813C108.666 230.749 112.333 232.93 115.58 234.858C119.519 237.197 124.5 234.356 124.5 229.774V153.368Z" fill="#CEBC98" stroke="#543C1C" stroke-width="1.97165"/>
<path d="M124.105 153.291C124.105 152.328 123.872 151.38 123.389 150.547C121.398 147.115 115.52 137.768 109.08 135.02C101.141 131.633 97.3278 130.925 86.5415 130.917C78.0979 130.911 61.6722 139.296 54.9355 142.939C53.073 143.946 51.9431 145.9 51.9431 148.018V222.604C51.9431 226.739 56.0857 229.637 60.0182 228.359C67.3429 225.978 77.974 222.945 84.5644 222.951C95.407 222.962 98.4038 223.928 106.114 228.813C108.96 230.616 112.155 232.631 115.054 234.457C118.989 236.935 124.105 234.104 124.105 229.454V153.291Z" fill="#543C1C" stroke="#543C1C" stroke-width="1.97165"/>
<path d="M133.065 82.2582C131.628 81.9462 128.524 80.8987 125.215 77.4217C121.906 80.9209 118.779 81.9462 117.364 82.2582C117.592 83.1721 117.775 84.0859 118.003 84.9774L119.236 90.282C120.331 95.074 121.426 99.8882 122.476 104.702H127.953C129.003 99.8882 130.076 95.074 131.194 90.282C131.605 88.5881 132.016 86.805 132.426 84.9774C132.655 84.0859 132.86 83.1943 133.065 82.2582Z" fill="#CEBC98"/>
<path d="M124.188 71.8496C123.846 72.3623 123.982 73.0755 124.302 73.7664H124.279C124.53 74.2568 124.827 74.7471 125.192 75.1706C125.557 74.7248 125.877 74.2568 126.128 73.7664C126.47 73.0755 126.584 72.3623 126.242 71.8496C125.968 71.4484 125.58 71.2033 125.215 71.2033C124.85 71.2033 124.462 71.4262 124.188 71.8496Z" fill="#CEBC98"/>
<path d="M145.204 84.727L145.229 84.6876H145.252L145.352 84.535C150.615 76.4474 156.047 68.1023 156.047 60.5495C156.047 46.1736 142.217 34.4946 125.238 34.4946C108.258 34.4946 94.4285 46.1736 94.4285 60.5495C94.4285 68.1023 99.8599 76.4474 105.124 84.535L105.223 84.6876C109.673 91.4633 113.873 97.9046 115.858 104.702H121.404C120.194 99.9996 118.985 95.2746 117.798 90.5494L116.474 85.2449C116.2 84.2642 115.995 83.2835 115.744 82.2805C114.466 82.1914 113.211 81.8125 112.252 80.9432C111.248 79.9848 110.746 78.759 110.974 77.4217C111.065 76.7976 111.568 75.973 112.503 75.6832C112.96 75.5495 113.462 75.5272 113.918 75.6609C114.306 75.8169 114.648 76.0398 114.945 76.3296C115.858 77.3325 116.177 78.3132 116.565 79.2939C116.748 79.7842 116.885 80.2746 117.022 80.7649C117.022 80.7649 118.482 80.8764 121.586 78.8258C123.321 77.6892 123.823 76.8645 124.325 76.3296C123.777 75.7501 123.275 75.1037 122.864 74.3236C122.636 73.8556 122.476 73.3875 122.408 72.8749C122.339 72.34 122.431 71.7382 122.75 71.2256C123.092 70.6461 123.617 70.2003 124.234 69.9551C124.53 69.8437 124.895 69.7991 125.238 69.7991C125.58 69.7991 125.922 69.8437 126.242 69.9551C126.881 70.2003 127.383 70.6461 127.725 71.2256C128.022 71.7382 128.136 72.34 128.068 72.8749C127.999 73.4098 127.817 73.8779 127.611 74.3236C127.2 75.1037 126.698 75.7501 126.151 76.3296C126.653 76.8645 127.155 77.6892 128.889 78.8258C131.993 80.8764 133.453 80.7649 133.453 80.7649L133.453 80.7648C133.59 80.2745 133.727 79.7842 133.91 79.2939C134.275 78.3132 134.617 77.3103 135.53 76.3296C135.827 76.0398 136.169 75.7947 136.557 75.6609C137.014 75.5272 137.516 75.5272 137.972 75.6832C138.908 75.973 139.387 76.7976 139.501 77.4217C139.729 78.759 139.205 79.9848 138.223 80.9432C137.265 81.7902 136.032 82.1914 134.731 82.2805C134.48 83.2835 134.252 84.2865 134.001 85.2449C133.545 87.0725 133.088 88.8333 132.678 90.5494C131.514 95.2746 130.304 99.9996 129.072 104.702H134.617C136.599 97.8955 140.786 91.4881 145.204 84.727Z" fill="#CEBC98"/>
<path d="M135.15 80.7147C135.147 80.724 135.145 80.7333 135.142 80.7426L135.119 80.7204C135.13 80.7185 135.14 80.7166 135.15 80.7147C135.24 80.3885 135.351 80.0424 135.462 79.7174C135.781 78.8259 136.192 77.8675 136.763 77.3102C136.9 77.1542 137.036 77.1097 137.105 77.0651C137.105 77.0651 137.265 77.0651 137.379 77.0874C137.561 77.1319 137.744 77.3325 137.812 77.6892C137.949 78.4024 137.607 79.3162 136.968 79.8957C136.54 80.2913 135.869 80.5785 135.15 80.7147Z" fill="#CEBC98"/>
<path d="M115.281 80.7414C115.283 80.7418 115.285 80.7422 115.287 80.7426V80.7649C115.285 80.7571 115.283 80.7493 115.281 80.7414C114.576 80.6071 113.894 80.3179 113.462 79.918C112.823 79.3385 112.48 78.4247 112.617 77.7114C112.686 77.3325 112.868 77.1542 113.051 77.1097C113.165 77.0651 113.325 77.0874 113.325 77.0874C113.393 77.1319 113.53 77.1765 113.667 77.3325C114.238 77.912 114.648 78.8704 114.968 79.7397C115.079 80.0662 115.191 80.4139 115.281 80.7414Z" fill="#CEBC98"/>
<path d="M135.586 111.599L135.89 112.32L134.803 112.778L135.89 112.321L135.893 112.327C135.894 112.33 135.895 112.335 135.897 112.34C135.902 112.35 135.907 112.364 135.914 112.381C135.928 112.416 135.948 112.464 135.972 112.525C136.019 112.648 136.083 112.822 136.153 113.031C136.293 113.446 136.467 114.023 136.584 114.645C136.698 115.251 136.776 115.982 136.668 116.673C136.559 117.373 136.226 118.198 135.375 118.671C135.31 118.707 135.243 118.738 135.176 118.769C135.246 119.022 135.315 119.302 135.369 119.595C135.468 120.13 135.535 120.781 135.441 121.407C135.347 122.038 135.058 122.8 134.303 123.27C134.222 123.32 134.137 123.364 134.053 123.405C134.155 123.742 134.264 124.133 134.347 124.542C134.467 125.134 134.557 125.862 134.449 126.541C134.338 127.244 133.969 128.085 133.024 128.474C132.427 128.719 131.74 128.703 131.312 128.669C130.113 130.719 127.904 132.121 125.335 132.121C122.764 132.121 120.553 130.717 119.355 128.664C118.942 128.694 118.299 128.703 117.735 128.479C116.788 128.101 116.413 127.264 116.295 126.565C116.181 125.889 116.264 125.163 116.38 124.569C116.432 124.302 116.496 124.042 116.562 123.8C115.651 123.486 115.262 122.687 115.141 122.017C115.018 121.339 115.108 120.594 115.228 119.992C115.287 119.695 115.36 119.403 115.436 119.134C115.03 118.999 114.686 118.76 114.427 118.433C114.133 118.062 113.989 117.638 113.92 117.26C113.785 116.525 113.884 115.705 114.018 115.032C114.157 114.333 114.362 113.663 114.528 113.177C114.612 112.931 114.688 112.727 114.743 112.583C114.771 112.511 114.793 112.453 114.81 112.413C114.818 112.393 114.824 112.377 114.829 112.365C114.831 112.36 114.833 112.355 114.834 112.352L114.837 112.346V112.345L115.14 111.618H116.199V111.599H135.586Z" fill="#CEBC98" stroke="#543C1C" stroke-width="2.35901"/>
<path d="M124.5 149.324C124.5 148.371 124.729 147.431 125.203 146.604C127.177 143.157 133.05 133.695 139.485 130.917C147.402 127.498 151.205 126.784 161.961 126.776C170.39 126.77 186.793 135.247 193.5 138.917C195.348 139.928 196.465 141.874 196.465 143.981V219.332C196.465 223.477 192.304 226.376 188.366 225.082C181.063 222.683 170.492 219.634 163.933 219.641C153.12 219.652 150.131 220.627 142.442 225.556C139.621 227.364 136.455 229.385 133.577 231.218C129.644 233.724 124.5 230.896 124.5 226.232V149.324Z" fill="#F9E9D2" stroke="#543C1C" stroke-width="3.9433"/>
<path d="M133.726 202.581C133.726 202.581 138.462 196.888 142.301 194.213C145.691 191.85 147.807 190.67 151.764 189.48C156.501 188.057 159.459 187.932 164.383 188.394C168.986 188.826 171.664 189.426 175.819 191.452C179.102 193.053 183.508 196.776 183.508 196.776" stroke="#543C1C" stroke-width="3.9433" stroke-linecap="round"/>
<path d="M133.726 202.581C133.726 202.581 138.462 196.888 142.301 194.213C145.691 191.85 147.807 190.67 151.764 189.48C156.501 188.057 159.459 187.932 164.383 188.394C168.986 188.826 171.664 189.426 175.819 191.452C179.102 193.053 183.508 196.776 183.508 196.776" stroke="#CEBC98" stroke-width="1.57732" stroke-linecap="round"/>
<path d="M124.303 149.521C124.303 148.568 124.074 147.628 123.6 146.801C121.626 143.354 115.753 133.892 109.318 131.114C101.401 127.696 97.5982 126.981 86.8414 126.974C78.4131 126.968 62.0098 135.444 55.3031 139.114C53.4551 140.125 52.3375 142.071 52.3375 144.178V219.53C52.3375 223.674 56.4989 226.573 60.4365 225.279C67.7396 222.88 78.311 219.832 84.8697 219.838C95.6826 219.849 98.6713 220.824 106.361 225.753C109.182 227.561 112.347 229.582 115.225 231.416C119.159 233.922 124.303 231.094 124.303 226.43V149.521Z" fill="#F9E9D2" stroke="#543C1C" stroke-width="3.9433"/>
<path d="M113.95 158.022C113.95 158.022 109.214 152.329 105.375 149.653C101.985 147.29 99.8687 146.11 95.9115 144.921C91.1745 143.497 88.217 143.372 83.2925 143.835C78.6899 144.267 76.0118 144.866 71.8569 146.893C68.5742 148.494 64.1675 152.216 64.1675 152.216" stroke="#543C1C" stroke-width="3.9433" stroke-linecap="round"/>
<path d="M113.95 158.022C113.95 158.022 109.214 152.329 105.375 149.653C101.985 147.29 99.8687 146.11 95.9115 144.921C91.1745 143.497 88.217 143.372 83.2925 143.835C78.6899 144.267 76.0118 144.866 71.8569 146.893C68.5742 148.494 64.1675 152.216 64.1675 152.216" stroke="#CEBC98" stroke-width="1.57732" stroke-linecap="round"/>
<path d="M113.95 178.921C113.95 178.921 109.214 173.228 105.375 170.552C101.985 168.19 99.8687 167.009 95.9115 165.82C91.1745 164.397 88.217 164.272 83.2925 164.734C78.6899 165.166 76.0118 165.765 71.8569 167.792C68.5742 169.393 64.1675 173.116 64.1675 173.116" stroke="#543C1C" stroke-width="3.9433" stroke-linecap="round"/>
<path d="M113.95 178.922C113.95 178.922 109.214 173.229 105.375 170.553C101.985 168.19 99.8687 167.01 95.9115 165.821C91.1745 164.398 88.217 164.272 83.2925 164.735C78.6899 165.167 76.0118 165.766 71.8569 167.793C68.5742 169.394 64.1675 173.117 64.1675 173.117" stroke="#CEBC98" stroke-width="1.57732" stroke-linecap="round"/>
<path d="M131.753 158.023C131.753 158.023 136.49 152.33 140.328 149.654C143.718 147.291 145.834 146.111 149.792 144.922C154.529 143.498 157.486 143.373 162.411 143.836C167.013 144.268 169.691 144.867 173.846 146.894C177.129 148.495 181.536 152.217 181.536 152.217" stroke="#543C1C" stroke-width="3.9433" stroke-linecap="round"/>
<path d="M131.753 158.023C131.753 158.023 136.49 152.33 140.328 149.654C143.718 147.291 145.834 146.111 149.792 144.922C154.529 143.498 157.486 143.373 162.411 143.836C167.013 144.268 169.691 144.867 173.846 146.894C177.129 148.495 181.536 152.217 181.536 152.217" stroke="#CEBC98" stroke-width="1.57732" stroke-linecap="round"/>
<path d="M132.542 177.738C132.542 177.738 137.279 172.046 141.117 169.37C144.507 167.007 146.624 165.827 150.581 164.638C155.318 163.214 158.275 163.089 163.2 163.551C167.802 163.984 170.48 164.583 174.635 166.609C177.918 168.211 182.325 171.933 182.325 171.933" stroke="#543C1C" stroke-width="3.9433" stroke-linecap="round"/>
<path d="M132.542 177.738C132.542 177.738 137.279 172.046 141.117 169.37C144.507 167.007 146.624 165.827 150.581 164.638C155.318 163.214 158.275 163.089 163.2 163.551C167.802 163.984 170.48 164.583 174.635 166.609C177.918 168.211 182.325 171.933 182.325 171.933" stroke="#CEBC98" stroke-width="1.57732" stroke-linecap="round"/>
<path d="M112.768 202.582C112.768 202.582 108.032 196.889 104.193 194.214C100.804 191.851 98.687 190.671 94.7299 189.481C89.9929 188.058 87.0354 187.933 82.1108 188.395C77.5083 188.827 74.8301 189.427 70.6752 191.453C67.3926 193.054 62.9858 196.777 62.9858 196.777" stroke="#543C1C" stroke-width="3.9433" stroke-linecap="round"/>
<path d="M112.768 202.582C112.768 202.582 108.032 196.889 104.193 194.214C100.804 191.851 98.687 190.671 94.7299 189.481C89.9929 188.058 87.0354 187.933 82.1108 188.395C77.5083 188.827 74.8301 189.427 70.6752 191.453C67.3926 193.054 62.9858 196.777 62.9858 196.777" stroke="#CEBC98" stroke-width="1.57732" stroke-linecap="round"/>
<path d="M125.08 29.9688C105.846 29.9688 90.1934 43.434 90.1934 59.9699C90.1934 68.7269 96.0776 77.7341 101.752 86.4456C106.637 93.9288 111.311 101.094 112.777 108.44H137.407C138.872 101.094 143.523 93.9288 148.431 86.4456C154.106 77.7341 159.99 68.7269 159.99 59.9699C159.99 43.434 144.337 29.9688 125.103 29.9688H125.08ZM125.08 77.1882C128.452 80.7365 131.615 81.8055 133.081 82.124C132.871 83.0793 132.662 83.9891 132.429 84.8989C132.011 86.764 131.592 88.5837 131.173 90.3123C130.034 95.2026 128.941 100.116 127.871 105.029H122.289C121.219 100.116 120.103 95.2026 118.986 90.3123L117.73 84.8989C117.498 83.9891 117.312 83.0565 117.079 82.124C118.521 81.8055 121.708 80.7592 125.08 77.1882ZM124.15 73.458C123.824 72.7529 123.684 72.025 124.033 71.5019C124.312 71.0697 124.708 70.8422 125.08 70.8422C125.452 70.8422 125.847 71.0924 126.127 71.5019C126.475 72.025 126.359 72.7529 126.01 73.458C125.754 73.9584 125.429 74.436 125.057 74.8909C124.685 74.4588 124.382 73.9584 124.126 73.458H124.15ZM145.477 84.6032C140.965 91.5178 136.686 98.0685 134.662 105.029H129.01C130.266 100.229 131.499 95.4073 132.685 90.5853C133.104 88.8339 133.569 87.037 134.034 85.1719C134.29 84.1938 134.523 83.1703 134.778 82.1467C136.104 82.0557 137.36 81.6463 138.337 80.782C139.337 79.8039 139.872 78.5529 139.639 77.1882C139.523 76.5513 139.035 75.7098 138.081 75.4141C137.616 75.2549 137.104 75.2549 136.639 75.3913C136.244 75.5278 135.895 75.778 135.592 76.0737C134.662 77.0745 134.313 78.098 133.941 79.0988C133.755 79.5992 133.616 80.0996 133.476 80.6C133.476 80.6 131.987 80.7138 128.824 78.6212C127.057 77.4612 126.545 76.6196 126.034 76.0737C126.592 75.4823 127.103 74.8227 127.522 74.0266C127.731 73.5717 127.917 73.094 127.987 72.5482C128.057 72.0023 127.941 71.3881 127.638 70.865C127.289 70.2736 126.778 69.8187 126.127 69.5685C125.801 69.4548 125.452 69.4093 125.103 69.4093C124.754 69.4093 124.382 69.4548 124.08 69.5685C123.452 69.8187 122.917 70.2736 122.568 70.865C122.242 71.3881 122.149 72.0023 122.219 72.5482C122.289 73.0713 122.452 73.5489 122.684 74.0266C123.103 74.8227 123.615 75.4823 124.173 76.0737C123.661 76.6196 123.15 77.4612 121.382 78.6212C118.219 80.7138 116.73 80.6 116.73 80.6C116.591 80.0996 116.451 79.5992 116.265 79.0988C115.87 78.098 115.544 77.0972 114.614 76.0737C114.312 75.778 113.963 75.5505 113.567 75.3913C113.102 75.2549 112.591 75.2776 112.125 75.4141C111.172 75.7098 110.66 76.5513 110.567 77.1882C110.335 78.5529 110.846 79.8039 111.87 80.782C112.846 81.6691 114.126 82.0557 115.428 82.1467C115.684 83.1703 115.893 84.1711 116.172 85.1719L117.521 90.5853C118.731 95.4073 119.963 100.229 121.196 105.029H115.544C113.521 98.0912 109.241 91.5178 104.706 84.6032C99.3104 76.3011 93.7053 67.7261 93.7053 59.9699C93.7053 45.2992 107.799 33.3806 125.103 33.3806C142.407 33.3806 156.501 45.2992 156.501 59.9699C156.501 67.7261 150.896 76.3011 145.5 84.6032H145.477ZM135.197 80.5773C135.29 80.2361 135.406 79.8722 135.523 79.531C135.848 78.6212 136.267 77.6431 136.848 77.0745C136.988 76.9153 137.127 76.8698 137.197 76.8243C137.197 76.8243 137.36 76.8243 137.476 76.847C137.662 76.8925 137.848 77.0972 137.918 77.4612C138.058 78.189 137.709 79.1216 137.058 79.713C136.616 80.1224 135.918 80.4181 135.174 80.5545L135.197 80.5773ZM114.963 80.5773C114.242 80.4408 113.544 80.1451 113.102 79.7357C112.451 79.1443 112.102 78.2118 112.242 77.4839C112.311 77.0972 112.498 76.9153 112.684 76.8698C112.8 76.8243 112.963 76.847 112.963 76.847C113.032 76.8925 113.172 76.938 113.312 77.0972C113.893 77.6886 114.312 78.6667 114.637 79.5537C114.754 79.8949 114.87 80.2588 114.963 80.6V80.5773Z" fill="#543C1C"/>
<path d="M125.194 32.7959C107.437 32.7959 92.9863 45.5115 92.9863 61.1268C92.9863 69.3962 98.4187 77.9019 103.658 86.1284C108.167 93.195 112.483 99.9609 113.836 106.899H136.574C137.927 99.9609 142.221 93.195 146.752 86.1284C151.991 77.9019 157.423 69.3962 157.423 61.1268C157.423 45.5115 142.973 32.7959 125.216 32.7959H125.194ZM125.194 77.3864C128.308 80.7371 131.228 81.7467 132.581 82.0474C132.387 82.9495 132.194 83.8086 131.979 84.6678C131.593 86.4291 131.206 88.1474 130.82 89.7798C129.768 94.3978 128.759 99.0373 127.771 103.677H122.618C121.63 99.0373 120.599 94.3978 119.569 89.7798L118.409 84.6678C118.194 83.8086 118.023 82.928 117.808 82.0474C119.139 81.7467 122.081 80.7586 125.194 77.3864ZM124.335 73.8638C124.035 73.198 123.906 72.5107 124.228 72.0166C124.486 71.6085 124.851 71.3937 125.194 71.3937C125.538 71.3937 125.903 71.63 126.16 72.0166C126.482 72.5107 126.375 73.198 126.053 73.8638C125.817 74.3364 125.516 74.7874 125.173 75.217C124.829 74.8089 124.55 74.3364 124.314 73.8638H124.335ZM144.025 84.3886C139.859 90.9182 135.909 97.1042 134.041 103.677H128.823C129.982 99.1447 131.12 94.5911 132.215 90.0376C132.602 88.3837 133.031 86.6868 133.461 84.9256C133.697 84.002 133.912 83.0354 134.148 82.0688C135.372 81.9829 136.531 81.5963 137.433 80.7801C138.356 79.8565 138.85 78.6751 138.636 77.3864C138.528 76.785 138.077 75.9903 137.197 75.711C136.768 75.5607 136.295 75.5607 135.866 75.6896C135.501 75.8184 135.179 76.0547 134.899 76.3339C134.041 77.279 133.719 78.2456 133.375 79.1906C133.203 79.6632 133.074 80.1357 132.946 80.6083C132.946 80.6083 131.571 80.7157 128.651 78.7396C127.019 77.6442 126.547 76.8494 126.075 76.3339C126.59 75.7755 127.062 75.1526 127.449 74.4008C127.642 73.9712 127.814 73.5202 127.878 73.0047C127.943 72.4892 127.835 71.9092 127.556 71.4152C127.234 70.8568 126.762 70.4272 126.16 70.1909C125.86 70.0835 125.538 70.0406 125.216 70.0406C124.894 70.0406 124.55 70.0835 124.271 70.1909C123.691 70.4272 123.197 70.8568 122.875 71.4152C122.575 71.9092 122.489 72.4892 122.553 73.0047C122.618 73.4987 122.768 73.9498 122.983 74.4008C123.369 75.1526 123.841 75.7755 124.357 76.3339C123.884 76.8494 123.412 77.6442 121.78 78.7396C118.86 80.7157 117.486 80.6083 117.486 80.6083C117.357 80.1357 117.228 79.6632 117.056 79.1906C116.691 78.2456 116.391 77.3005 115.532 76.3339C115.253 76.0547 114.931 75.8399 114.566 75.6896C114.136 75.5607 113.664 75.5822 113.234 75.711C112.354 75.9903 111.882 76.785 111.796 77.3864C111.581 78.6751 112.053 79.8565 112.998 80.7801C113.9 81.6178 115.081 81.9829 116.283 82.0688C116.52 83.0354 116.713 83.9805 116.97 84.9256L118.216 90.0376C119.332 94.5911 120.47 99.1447 121.608 103.677H116.391C114.523 97.1256 110.572 90.9182 106.385 84.3886C101.403 76.5487 96.2286 68.4511 96.2286 61.1268C96.2286 47.2728 109.241 36.0178 125.216 36.0178C141.191 36.0178 154.203 47.2728 154.203 61.1268C154.203 68.4511 149.028 76.5487 144.047 84.3886H144.025ZM134.534 80.5868C134.62 80.2646 134.728 79.9209 134.835 79.5988C135.136 78.7396 135.522 77.816 136.059 77.279C136.188 77.1287 136.317 77.0857 136.381 77.0427C136.381 77.0427 136.531 77.0427 136.639 77.0642C136.81 77.1072 136.982 77.3005 137.047 77.6442C137.175 78.3315 136.853 79.2121 136.252 79.7706C135.844 80.1572 135.2 80.4364 134.513 80.5653L134.534 80.5868ZM115.854 80.5868C115.188 80.4579 114.544 80.1787 114.136 79.7921C113.535 79.2336 113.213 78.353 113.342 77.6656C113.406 77.3005 113.578 77.1287 113.75 77.0857C113.857 77.0427 114.007 77.0642 114.007 77.0642C114.072 77.1072 114.201 77.1501 114.329 77.3005C114.866 77.8589 115.253 78.7825 115.553 79.6202C115.661 79.9424 115.768 80.2861 115.854 80.6083V80.5868Z" fill="#F9E9D2"/>
<path d="M121.346 127.368C121.346 127.368 123.8 128.174 125.396 128.157C126.908 128.14 129.232 127.368 129.232 127.368" stroke="#F9E9D2" stroke-width="0.78866" stroke-linecap="round"/>
<path d="M118.586 123.425C118.586 123.425 122.759 124.23 125.471 124.213C128.042 124.197 131.993 123.425 131.993 123.425" stroke="#F9E9D2" stroke-width="0.78866" stroke-linecap="round"/>
<path d="M117.797 118.298C117.797 118.298 122.584 119.103 125.694 119.086C128.644 119.07 133.176 118.298 133.176 118.298" stroke="#F9E9D2" stroke-width="0.78866" stroke-linecap="round"/>
<path d="M125.682 21.6875V-0.000644803" stroke="#F9E9D2" stroke-width="1.97165" stroke-linecap="round"/>
<path d="M147.766 28.1309L165.015 14.9842" stroke="#F9E9D2" stroke-width="1.97165" stroke-linecap="round"/>
<path d="M103.5 28.1309L86.2506 14.9842" stroke="#F9E9D2" stroke-width="1.97165" stroke-linecap="round"/>
<path d="M137.514 23.7861L142.806 11.041" stroke="#F9E9D2" stroke-width="1.97165" stroke-linecap="round"/>
<path d="M114.02 23.7861L108.727 11.041" stroke="#F9E9D2" stroke-width="1.97165" stroke-linecap="round"/>
</g>
<defs>
<clipPath id="clip0_1880_10349">
<rect width="250" height="250" fill="white"/>
</clipPath>
</defs>
</svg>
