<?xml version="1.0" encoding="UTF-8"?><svg id="a" xmlns="http://www.w3.org/2000/svg" xmlns:xlink="http://www.w3.org/1999/xlink" viewBox="0 0 1280 548"><defs><style>.d{fill:#543c1c;}.e{fill:#cebc98;}.f{fill:url(#c);}.g{fill:none;}.h{clip-path:url(#b);}.i{opacity:.5;}</style><clipPath id="b"><rect class="g" width="1280" height="548"/></clipPath><radialGradient id="c" cx="-1195.08" cy="429.98" fx="-1195.08" fy="429.98" r="1" gradientTransform="translate(-549737.18 654903.17) rotate(90) scale(548 -1280)" gradientUnits="userSpaceOnUse"><stop offset="0" stop-color="#cebc98"/><stop offset=".5" stop-color="#cebc98"/><stop offset=".75" stop-color="#cebc98" stop-opacity=".75"/><stop offset="1" stop-color="#cebc98" stop-opacity=".25"/></radialGradient></defs><g class="h"><rect class="e" width="1280" height="548"/><g class="i"><circle class="d" cx="1.08" cy="-10.14" r="67.86"/><path class="d" d="M1.16,65.81c-41.83,0-75.86-34.03-75.86-75.86S-40.67-85.91,1.16-85.91,77.02-51.88,77.02-10.05,42.99,65.81,1.16,65.81ZM1.16-77.67c-37.28,0-67.61,30.33-67.61,67.61S-36.12,57.56,1.16,57.56,68.78,27.23,68.78-10.05,38.44-77.67,1.16-77.67Z"/><path class="d" d="M343.32,51.54h-165.35l-2.14-3.71c-15.65-27.16-15.2-62.98,1.14-91.25,16.71-28.91,46.61-44.83,84.18-44.83s64.42,14.51,80.71,40.86c17.1,27.67,18.48,64.9,3.51,94.84l-2.05,4.1ZM186.71,36.7h147.3c10.47-24.4,8.71-54.5-4.76-76.3-9.54-15.43-29.09-33.83-68.09-33.83-32.05,0-57.39,13.29-71.34,37.42-12.79,22.13-13.89,50.79-3.11,72.71Z"/><path class="d" d="M188.93,12.6h-.04l-17.03-.19c-2.05-.02-3.69-1.7-3.67-3.75.02-2.03,1.68-3.67,3.71-3.67h.04l17.03.19c2.05.02,3.69,1.7,3.67,3.75-.02,2.03-1.68,3.67-3.71,3.67ZM331.48,11.59c-1.83,0-3.43-1.36-3.67-3.23-.27-2.03,1.16-3.89,3.19-4.16l16.91-2.22c2.03-.27,3.89,1.16,4.16,3.19.27,2.03-1.16,3.89-3.19,4.16l-16.91,2.22c-.16.02-.33.03-.49.03ZM191.7.46c-.28,0-.57-.03-.85-.1l-16.39-3.86c-1.99-.47-3.23-2.47-2.76-4.46.47-1.99,2.47-3.23,4.46-2.76l16.39,3.86c1.99.47,3.23,2.47,2.76,4.46-.4,1.71-1.93,2.86-3.61,2.86ZM329.87-.17c-1.53,0-2.97-.96-3.5-2.49-.67-1.93.35-4.05,2.28-4.72l14.73-5.14c1.94-.67,4.05.35,4.72,2.28.67,1.93-.35,4.05-2.28,4.72l-14.73,5.14c-.4.14-.82.21-1.22.21ZM194.89-10.81c-.65,0-1.31-.17-1.91-.53l-13.36-8.06c-1.75-1.06-2.32-3.34-1.26-5.09,1.06-1.75,3.34-2.32,5.09-1.26l13.36,8.06c1.75,1.06,2.32,3.34,1.26,5.09-.7,1.15-1.92,1.79-3.18,1.79ZM325.09-11.36c-1.17,0-2.32-.55-3.04-1.59-1.17-1.68-.76-3.99.92-5.16l12.65-8.83c1.68-1.17,3.99-.76,5.16.92,1.17,1.68.76,3.99-.92,5.16l-12.65,8.83c-.65.45-1.39.67-2.12.67ZM202.19-21.34c-.76,0-1.53-.23-2.19-.72l-13.91-10.19c-1.65-1.21-2.01-3.53-.8-5.18,1.21-1.65,3.53-2.01,5.18-.8l13.91,10.19c1.65,1.21,2.01,3.53.8,5.18-.73.99-1.85,1.52-2.99,1.52ZM318.44-21.77c-1.03,0-2.06-.43-2.79-1.26-1.35-1.54-1.2-3.88.34-5.23l12.22-10.71c1.54-1.35,3.88-1.2,5.23.34s1.2,3.88-.34,5.23l-12.22,10.71c-.7.62-1.58.92-2.44.92ZM209.38-31.02c-.95,0-1.9-.36-2.62-1.08l-11.73-11.72c-1.45-1.45-1.45-3.8,0-5.24,1.45-1.45,3.79-1.45,5.24,0l11.73,11.72c1.45,1.45,1.45,3.8,0,5.24-.72.73-1.67,1.09-2.62,1.09ZM311.1-31.46c-.86,0-1.73-.3-2.43-.91-1.54-1.34-1.71-3.69-.36-5.23l10.59-12.16c1.34-1.54,3.69-1.71,5.23-.36,1.54,1.34,1.71,3.69.36,5.23l-10.59,12.16c-.73.84-1.76,1.27-2.8,1.27ZM218.32-39.47c-1.06,0-2.12-.45-2.85-1.34l-10.98-13.19c-1.31-1.57-1.1-3.91.48-5.22,1.57-1.31,3.91-1.1,5.22.48l10.98,13.19c1.31,1.57,1.1,3.91-.48,5.22-.69.58-1.53.86-2.37.86ZM301.42-40.38c-.79,0-1.59-.25-2.27-.77-1.62-1.25-1.92-3.58-.67-5.2l9.99-12.92c1.25-1.62,3.58-1.92,5.2-.66,1.62,1.25,1.92,3.58.67,5.2l-9.99,12.92c-.73.94-1.83,1.44-2.94,1.44ZM227.61-45.99c-1.41,0-2.76-.81-3.38-2.18l-7.32-16.13c-.85-1.86-.02-4.06,1.84-4.91,1.87-.85,4.06-.02,4.91,1.84l7.32,16.13c.85,1.86.02,4.06-1.84,4.91-.5.23-1.02.33-1.53.33ZM292.73-47.19c-.58,0-1.17-.14-1.73-.43-1.81-.95-2.51-3.2-1.55-5.01l7.92-15.03c.95-1.81,3.2-2.51,5.01-1.55,1.81.95,2.51,3.2,1.55,5.01l-7.92,15.03c-.66,1.26-1.95,1.98-3.28,1.98ZM236.98-51.2c-1.67,0-3.19-1.14-3.6-2.84l-4.14-17.22c-.48-1.99.75-3.99,2.74-4.47,1.99-.48,3.99.75,4.47,2.74l4.14,17.22c.48,1.99-.75,3.99-2.74,4.47-.29.07-.58.1-.87.1ZM281.93-51.89c-.38,0-.77-.06-1.15-.18-1.95-.63-3.01-2.73-2.38-4.67l5.32-16.32c.63-1.95,2.73-3.01,4.67-2.38,1.95.63,3.01,2.73,2.38,4.67l-5.32,16.32c-.51,1.56-1.96,2.56-3.52,2.56ZM248.22-54.45c-1.88,0-3.5-1.43-3.69-3.34l-1.66-16.72c-.2-2.04,1.29-3.85,3.32-4.06,2.04-.2,3.85,1.29,4.06,3.32l1.66,16.72c.2,2.04-1.29,3.85-3.32,4.06-.12.01-.25.02-.37.02ZM271.17-54.71c-.13,0-.27,0-.4-.02-2.04-.22-3.51-2.05-3.29-4.08l1.8-16.72c.22-2.04,2.04-3.51,4.08-3.29,2.04.22,3.51,2.05,3.29,4.08l-1.8,16.72c-.21,1.9-1.81,3.31-3.68,3.31ZM260.42-55.18c-2.05,0-3.71-1.66-3.71-3.71v-17.5c0-2.05,1.66-3.71,3.71-3.71s3.71,1.66,3.71,3.71v17.5c0,2.05-1.66,3.71-3.71,3.71Z"/><path class="d" d="M264.69,11.16c-.93,3.82-3.56,6.8-7.89,8.96-4.32,2.16-8.43,2.43-12.32.81-3.89-1.62-6.47-4.66-7.74-9.1-1.26-4.44-.75-8.33,1.53-11.68l35.84-56.02c1.34-2.02,3.01-2.61,5.01-1.77,2.01.84,2.73,2.42,2.16,4.76l-16.59,64.04Z"/><path class="d" d="M607.02,20.72c-.52.27-1.08.4-1.63.4-1.25,0-2.47-.68-3.09-1.86-13.4-25.43-28.46-26.76-45.9-28.29-18.91-1.67-40.34-3.56-59.02-39.21-3.69-7.04-12.3-12.63-20.43-16.61l58.24,135.85.37.89c.95,2.38,1.49,4.25,1.66,5.75.12,1.12.04,2.06-.24,2.88-.4,1.14-1.21,2.01-2.3,2.45-.42.17-.93.3-1.51.3-1.13,0-2.52-.48-4.06-2.02-1.25-1.24-2.58-3.15-4.09-5.82l-.05-.1-74.82-134.53c-.97-1.7-1.87-3.42-2.72-5.15-17.76,24.06-11.18,44.27-5.4,54.47,9.39,16.59,26,25.49,33.31,24.34,1.81-.29,2.7-1.09,3.04-2.77.38-1.89,2.23-3.12,4.12-2.73,1.89.39,3.11,2.23,2.72,4.12-.92,4.52-4.13,7.54-8.79,8.28-.73.11-1.5.17-2.3.17-11.01,0-28.41-10.72-38.18-27.96-6.89-12.17-14.85-36.69,8.3-65.22-1.67-4.34-2.94-8.73-3.81-13.13-.9-4.53-1.16-8.05-.8-10.76.57-4.23,2.67-5.91,4.33-6.58,2.3-.92,4.96-.44,7.93,1.44,2.47,1.56,5.21,4.08,8.37,7.71,4.93,5.64,9.11,11.87,12.43,18.58,10.54,4.29,25.12,11.92,30.87,22.91,16.91,32.27,34.66,33.83,53.45,35.49,17.84,1.57,36.28,3.2,51.46,31.99.9,1.7.24,3.82-1.46,4.72Z"/><path class="d" d="M793.32,12.74v17.06h5.98c2.13,0,4.05,1.36,4.98,3.54.93,2.22.65,4.74-.69,6.65l-23.11,32.69c-2.1,2.99-6.53,2.99-8.62,0l-23.15-32.69c-1.34-1.91-1.58-4.43-.65-6.65.93-2.18,2.85-3.54,4.98-3.54h5.94v-3.88c0-2.14,1.51-3.89,3.43-3.89s3.44,1.75,3.44,3.89v11.66h-10.03l20.33,28.76,20.33-28.76h-10.03V12.74h-80.15c-22.74,0-41.21-20.91-41.21-46.64,0-11.51,3.74-22.58,10.54-31.13,6.77-8.56,16.11-13.96,26.2-15.2,8.59-18.66,25.83-31.41,45.68-31.41,11.92,0,23.46,4.67,32.66,13.26,9.24,8.55,15.52,20.48,17.82,33.7,17.86,1.39,31.94,17.1,31.94,38.55s-15.38,38.87-34.34,38.87h-2.27Z"/><path class="d" d="M1063.39-10.05c0,41.83-34.03,75.86-75.86,75.86s-75.85-34.03-75.85-75.86,34.03-75.86,75.85-75.86,75.86,34.03,75.86,75.86Z"/><path class="d" d="M1329.7,51.54h-165.35l-2.14-3.71c-15.65-27.16-15.2-62.97,1.14-91.24,16.71-28.91,46.61-44.84,84.18-44.84s64.42,14.51,80.7,40.86c17.1,27.67,18.48,64.9,3.51,94.84l-2.05,4.1ZM1173.08,36.7h147.3c10.47-24.4,8.71-54.51-4.76-76.31-9.54-15.43-29.09-33.82-68.08-33.82-32.05,0-57.39,13.29-71.34,37.43-12.79,22.13-13.89,50.79-3.11,72.7Z"/><path class="d" d="M1175.3,12.6h-.04l-17.03-.19c-2.05-.02-3.69-1.7-3.67-3.75.02-2.03,1.68-3.67,3.71-3.67h.04l17.03.19c2.05.02,3.69,1.7,3.67,3.75-.02,2.03-1.68,3.67-3.71,3.67ZM1317.86,11.59c-1.83,0-3.43-1.36-3.67-3.23-.27-2.03,1.16-3.89,3.19-4.16l16.91-2.22c2.03-.27,3.89,1.16,4.16,3.19.27,2.03-1.16,3.89-3.19,4.16l-16.91,2.22c-.16.02-.33.03-.49.03ZM1178.08.46c-.28,0-.57-.03-.85-.1l-16.39-3.86c-1.99-.47-3.23-2.47-2.76-4.46.47-1.99,2.46-3.23,4.46-2.76l16.39,3.86c1.99.47,3.23,2.47,2.76,4.46-.4,1.71-1.92,2.86-3.61,2.86ZM1316.24-.17c-1.53,0-2.97-.96-3.5-2.49-.67-1.93.35-4.05,2.28-4.72l14.73-5.14c1.93-.67,4.05.35,4.72,2.28.67,1.93-.35,4.05-2.28,4.72l-14.73,5.14c-.4.14-.82.21-1.22.21ZM1181.27-10.81c-.65,0-1.31-.17-1.91-.53l-13.36-8.06c-1.75-1.06-2.32-3.34-1.26-5.09s3.33-2.32,5.09-1.26l13.36,8.06c1.75,1.06,2.32,3.34,1.26,5.09-.7,1.15-1.92,1.79-3.18,1.79ZM1311.47-11.36c-1.17,0-2.32-.55-3.04-1.59-1.17-1.68-.76-3.99.92-5.16l12.65-8.83c1.68-1.17,3.99-.76,5.16.92s.76,3.99-.92,5.16l-12.65,8.83c-.65.45-1.39.67-2.12.67ZM1188.57-21.34c-.76,0-1.53-.23-2.19-.72l-13.91-10.19c-1.65-1.21-2.01-3.53-.8-5.18,1.21-1.65,3.53-2.01,5.18-.8l13.91,10.19c1.65,1.21,2.01,3.53.8,5.18-.73.99-1.85,1.52-2.99,1.52ZM1304.81-21.77c-1.03,0-2.06-.43-2.79-1.26-1.35-1.54-1.2-3.88.34-5.23l12.22-10.71c1.54-1.35,3.88-1.19,5.23.34,1.35,1.54,1.2,3.88-.34,5.23l-12.22,10.71c-.7.62-1.58.92-2.44.92ZM1195.75-31.02c-.95,0-1.9-.36-2.62-1.08l-11.74-11.72c-1.45-1.45-1.45-3.79,0-5.24,1.45-1.45,3.79-1.45,5.24,0l11.74,11.72c1.45,1.45,1.45,3.79,0,5.24-.72.73-1.67,1.09-2.62,1.09ZM1297.47-31.46c-.86,0-1.73-.3-2.43-.91-1.54-1.34-1.71-3.69-.36-5.23l10.59-12.16c1.34-1.54,3.69-1.71,5.23-.36,1.54,1.34,1.71,3.69.36,5.23l-10.59,12.16c-.73.84-1.76,1.27-2.8,1.27ZM1204.69-39.47c-1.06,0-2.12-.46-2.85-1.34l-10.98-13.19c-1.31-1.57-1.1-3.91.48-5.22,1.58-1.31,3.91-1.1,5.22.48l10.98,13.19c1.31,1.57,1.1,3.91-.48,5.22-.69.58-1.53.86-2.37.86ZM1287.79-40.38c-.79,0-1.59-.25-2.27-.78-1.62-1.25-1.92-3.58-.67-5.2l9.99-12.92c1.25-1.62,3.58-1.92,5.2-.66,1.62,1.25,1.92,3.58.67,5.2l-9.99,12.92c-.73.94-1.83,1.44-2.94,1.44ZM1213.98-45.99c-1.41,0-2.76-.81-3.38-2.18l-7.32-16.13c-.85-1.86-.02-4.06,1.84-4.91,1.86-.85,4.06-.02,4.91,1.84l7.32,16.13c.85,1.86.02,4.06-1.84,4.91-.5.23-1.02.33-1.53.33ZM1279.1-47.19c-.58,0-1.17-.14-1.73-.43-1.81-.95-2.51-3.2-1.55-5.01l7.92-15.03c.96-1.81,3.2-2.51,5.01-1.55,1.81.95,2.51,3.2,1.55,5.01l-7.92,15.03c-.66,1.26-1.95,1.98-3.28,1.98ZM1223.36-51.2c-1.67,0-3.19-1.14-3.6-2.84l-4.15-17.22c-.48-1.99.75-3.99,2.74-4.47,1.99-.48,3.99.75,4.47,2.74l4.15,17.22c.48,1.99-.75,3.99-2.74,4.47-.29.07-.58.1-.87.1ZM1268.3-51.89c-.38,0-.77-.06-1.15-.18-1.95-.63-3.01-2.73-2.38-4.67l5.32-16.32c.63-1.95,2.73-3.01,4.67-2.38,1.95.63,3.01,2.73,2.38,4.67l-5.32,16.32c-.51,1.56-1.96,2.56-3.52,2.56ZM1234.59-54.45c-1.88,0-3.5-1.43-3.69-3.34l-1.65-16.72c-.2-2.04,1.29-3.85,3.33-4.05,2.04-.2,3.85,1.29,4.05,3.33l1.65,16.72c.2,2.04-1.29,3.85-3.33,4.05-.12.01-.25.02-.37.02ZM1257.54-54.71c-.13,0-.27,0-.4-.02-2.04-.22-3.51-2.05-3.29-4.08l1.8-16.72c.22-2.04,2.05-3.5,4.08-3.29,2.04.22,3.51,2.05,3.29,4.08l-1.8,16.72c-.2,1.9-1.81,3.31-3.68,3.31ZM1246.79-55.18c-2.05,0-3.71-1.66-3.71-3.71v-17.5c0-2.05,1.66-3.71,3.71-3.71s3.71,1.66,3.71,3.71v17.5c0,2.05-1.66,3.71-3.71,3.71Z"/><path class="d" d="M1267.66-52.88l-16.59,64.04c-.93,3.82-3.56,6.81-7.89,8.96-4.32,2.16-8.43,2.43-12.32.81-3.89-1.63-6.47-4.66-7.74-9.1-1.26-4.44-.75-8.33,1.53-11.68l35.84-56.02c1.34-2.01,3.01-2.61,5.02-1.77,2,.84,2.72,2.42,2.15,4.76Z"/><path class="d" d="M53.54,264.13v17.07h5.98c2.13,0,4.05,1.36,4.98,3.53.92,2.22.65,4.74-.69,6.65l-23.11,32.69c-2.1,2.99-6.53,2.99-8.62,0l-23.15-32.69c-1.34-1.91-1.58-4.43-.65-6.65.92-2.17,2.85-3.53,4.98-3.53h5.94v-3.89c0-2.14,1.51-3.89,3.43-3.89s3.44,1.75,3.44,3.89v11.66h-10.03l20.33,28.76,20.33-28.76h-10.03v-24.84H-33.48c-22.74,0-41.21-20.91-41.21-46.64,0-11.5,3.74-22.58,10.54-31.13,6.76-8.55,16.11-13.96,26.2-15.2,8.59-18.66,25.83-31.41,45.68-31.41,11.91,0,23.45,4.67,32.66,13.26,9.24,8.55,15.52,20.48,17.82,33.7,17.86,1.4,31.94,17.1,31.94,38.55s-15.38,38.87-34.34,38.87h-2.27Z"/><path class="d" d="M271.51,152.95v16.82c0,7.27-5.92,13.19-13.2,13.19h-18.8c-7.27,0-13.19-5.92-13.19-13.19v-16.82c0-7.28,5.92-13.2,13.19-13.2h18.8c7.28,0,13.2,5.92,13.2,13.2Z"/><path class="d" d="M323.24,192.45c-.2,3.52-1.75,6.75-4.38,9.1l-12.54,11.21c-2.44,2.18-5.53,3.36-8.78,3.36-.25,0-.5-.01-.75-.02-3.52-.2-6.75-1.75-9.1-4.38l-7.39-8.26c-2.35-2.63-3.53-6.01-3.34-9.53.2-3.52,1.76-6.75,4.38-9.1l12.54-11.21c5.42-4.85,13.78-4.39,18.63,1.04l7.39,8.26c2.35,2.63,3.53,6.01,3.34,9.53Z"/><path class="d" d="M223.2,191.68c.03.49.03,1,0,1.5-.02.47-.07.94-.15,1.4-.06.4-.14.79-.24,1.18,0,.02-.01.04-.02.07-.11.44-.25.87-.41,1.3-.08.21-.17.42-.26.63-.08.2-.17.39-.27.59-.08.16-.16.32-.24.47-.08.14-.16.27-.23.4-.68,1.13-1.52,2.17-2.53,3.07l-8.23,7.42c-1.27,1.14-2.71,2.01-4.26,2.58-.16.06-.32.11-.48.16-.19.07-.39.13-.58.18s-.38.1-.57.14c-.2.04-.39.08-.59.12-.3.05-.6.1-.9.13-.07.01-.15.02-.22.02-.16.02-.31.03-.47.04-.25.01-.5.02-.75.02-.23,0-.47,0-.7-.02-.95-.05-1.87-.2-2.77-.44-.18-.05-.36-.1-.54-.16-.22-.07-.43-.14-.65-.22-.21-.08-.42-.16-.63-.26-.21-.09-.42-.18-.62-.29-.21-.1-.41-.21-.61-.32-.2-.11-.4-.23-.6-.36-.19-.12-.38-.25-.57-.39s-.38-.28-.56-.42c-.56-.45-1.08-.94-1.57-1.48l-11.25-12.5c-1.12-1.24-1.98-2.66-2.55-4.18-.14-.37-.26-.75-.37-1.14-.1-.38-.19-.77-.26-1.16-.06-.32-.1-.64-.13-.96-.08-.68-.1-1.38-.06-2.08.05-.95.2-1.87.44-2.77.05-.18.1-.36.16-.54.07-.22.14-.43.22-.65.25-.67.55-1.31.91-1.93.1-.18.21-.35.32-.52.12-.2.25-.39.39-.58.12-.17.24-.33.37-.49.46-.58.97-1.13,1.53-1.63l8.24-7.42c.31-.28.64-.55.97-.8.32-.23.65-.46.99-.66l.24-.15.33-.18c.53-.29,1.08-.55,1.65-.76.19-.07.37-.13.56-.19.19-.07.38-.12.58-.18.76-.21,1.54-.35,2.32-.42h0c.61-.06,1.24-.07,1.87-.04.43.02.86.07,1.29.14.22.03.44.07.66.11.03,0,.07.01.11.02.64.14,1.28.33,1.9.56.63.24,1.26.53,1.86.87.2.11.4.23.59.36.29.18.57.37.84.59.15.1.3.22.44.34.17.14.33.28.49.43.33.29.64.6.93.93l11.26,12.5c1.12,1.24,1.98,2.66,2.55,4.18.13.35.24.7.35,1.05,0,.02.01.05.02.08.1.39.19.77.26,1.16.06.31.1.62.13.93,0,.06.02.12.02.19.02.14.03.28.04.43Z"/><path class="d" d="M323.62,241.34c0,41.83-34.03,75.86-75.86,75.86s-75.86-34.03-75.86-75.86,34.03-75.86,75.86-75.86,75.86,34.03,75.86,75.86Z"/><path class="d" d="M589.92,302.93h-165.35l-2.14-3.71c-15.65-27.16-15.2-62.98,1.14-91.25,16.71-28.91,46.61-44.83,84.18-44.83s64.42,14.51,80.71,40.86c17.1,27.67,18.48,64.9,3.51,94.83l-2.05,4.1ZM433.3,288.1h147.3c10.47-24.4,8.71-54.5-4.76-76.3-9.54-15.43-29.09-33.83-68.09-33.83-32.05,0-57.39,13.29-71.34,37.43-12.79,22.13-13.89,50.79-3.11,72.71Z"/><path class="d" d="M435.52,264h-.04l-17.03-.19c-2.05-.02-3.69-1.7-3.67-3.75.02-2.03,1.68-3.67,3.71-3.67h.04l17.03.19c2.05.02,3.69,1.7,3.67,3.75-.02,2.03-1.68,3.67-3.71,3.67ZM578.08,262.98c-1.83,0-3.43-1.36-3.67-3.23-.27-2.03,1.16-3.89,3.19-4.16l16.91-2.22c2.04-.26,3.89,1.16,4.16,3.19.27,2.03-1.16,3.89-3.19,4.16l-16.91,2.22c-.16.02-.33.03-.49.03ZM438.29,251.85c-.28,0-.57-.03-.85-.1l-16.39-3.86c-1.99-.47-3.23-2.47-2.76-4.46.47-1.99,2.46-3.23,4.46-2.76l16.39,3.86c1.99.47,3.23,2.47,2.76,4.46-.4,1.71-1.93,2.86-3.61,2.86ZM576.46,251.22c-1.53,0-2.97-.96-3.5-2.49-.67-1.93.35-4.05,2.28-4.72l14.73-5.14c1.94-.68,4.05.35,4.72,2.28s-.35,4.05-2.28,4.72l-14.73,5.14c-.4.14-.82.21-1.22.21ZM441.49,240.58c-.65,0-1.31-.17-1.91-.53l-13.36-8.05c-1.75-1.06-2.32-3.34-1.26-5.09,1.06-1.75,3.34-2.32,5.09-1.26l13.36,8.05c1.75,1.06,2.32,3.34,1.26,5.09-.7,1.15-1.92,1.79-3.18,1.79ZM571.68,240.03c-1.17,0-2.32-.55-3.04-1.59-1.17-1.68-.76-3.99.92-5.16l12.66-8.83c1.68-1.17,3.99-.76,5.16.92,1.17,1.68.76,3.99-.92,5.16l-12.66,8.83c-.65.45-1.39.67-2.12.67ZM448.79,230.05c-.76,0-1.53-.23-2.19-.72l-13.91-10.19c-1.65-1.21-2.01-3.53-.8-5.18,1.21-1.65,3.53-2.01,5.18-.8l13.91,10.19c1.65,1.21,2.01,3.53.8,5.18-.73.99-1.85,1.52-2.99,1.52ZM565.04,229.62c-1.03,0-2.06-.43-2.79-1.26-1.35-1.54-1.2-3.88.34-5.23l12.21-10.71c1.54-1.35,3.88-1.2,5.23.34,1.35,1.54,1.2,3.88-.34,5.23l-12.21,10.71c-.7.62-1.58.92-2.44.92ZM455.97,220.38c-.95,0-1.9-.36-2.62-1.08l-11.74-11.72c-1.45-1.45-1.45-3.79,0-5.24,1.45-1.45,3.79-1.45,5.24,0l11.74,11.72c1.45,1.45,1.45,3.8,0,5.24-.72.73-1.67,1.09-2.62,1.09ZM557.7,219.93c-.86,0-1.73-.3-2.43-.91-1.54-1.34-1.71-3.69-.36-5.23l10.59-12.16c1.34-1.54,3.69-1.71,5.23-.36s1.71,3.69.36,5.23l-10.59,12.16c-.73.84-1.76,1.27-2.8,1.27ZM464.92,211.92c-1.06,0-2.12-.45-2.85-1.33l-10.99-13.19c-1.31-1.57-1.1-3.91.48-5.22,1.57-1.31,3.91-1.1,5.22.48l10.99,13.19c1.31,1.57,1.1,3.91-.48,5.22-.69.58-1.53.86-2.37.86ZM548.02,211.01c-.79,0-1.59-.25-2.27-.77-1.62-1.25-1.92-3.58-.67-5.2l9.99-12.92c1.25-1.62,3.58-1.92,5.2-.67,1.62,1.25,1.92,3.58.67,5.2l-9.99,12.92c-.73.94-1.83,1.44-2.94,1.44ZM474.21,205.4c-1.41,0-2.76-.81-3.38-2.18l-7.32-16.13c-.85-1.86-.02-4.06,1.84-4.91,1.86-.84,4.06-.02,4.91,1.84l7.32,16.13c.85,1.86.02,4.06-1.84,4.91-.5.23-1.02.33-1.53.33ZM539.32,204.21c-.58,0-1.17-.14-1.73-.43-1.81-.96-2.51-3.2-1.55-5.01l7.92-15.03c.95-1.81,3.2-2.51,5.01-1.55,1.81.96,2.51,3.2,1.55,5.01l-7.92,15.03c-.66,1.26-1.95,1.98-3.28,1.98ZM483.58,200.19c-1.67,0-3.19-1.14-3.6-2.84l-4.14-17.22c-.48-1.99.75-3.99,2.74-4.47,1.99-.48,3.99.75,4.47,2.74l4.14,17.22c.48,1.99-.75,3.99-2.74,4.47-.29.07-.58.1-.87.1ZM528.53,199.5c-.38,0-.77-.06-1.15-.18-1.95-.63-3.01-2.73-2.38-4.67l5.32-16.32c.63-1.95,2.73-3.01,4.67-2.38,1.95.63,3.01,2.73,2.38,4.67l-5.32,16.32c-.51,1.57-1.96,2.56-3.52,2.56ZM494.81,196.94c-1.88,0-3.5-1.43-3.69-3.34l-1.65-16.72c-.2-2.04,1.29-3.85,3.32-4.06,2.04-.19,3.85,1.29,4.06,3.33l1.65,16.72c.2,2.04-1.29,3.85-3.32,4.06-.12.01-.25.02-.37.02ZM517.76,196.68c-.13,0-.27,0-.4-.02-2.04-.22-3.51-2.05-3.29-4.08l1.8-16.72c.22-2.04,2.04-3.51,4.08-3.29,2.04.22,3.51,2.05,3.29,4.08l-1.8,16.72c-.21,1.9-1.81,3.31-3.68,3.31ZM507.01,196.21c-2.05,0-3.71-1.66-3.71-3.71v-17.5c0-2.05,1.66-3.71,3.71-3.71s3.71,1.66,3.71,3.71v17.5c0,2.05-1.66,3.71-3.71,3.71Z"/><path class="d" d="M527.88,198.52l-16.59,64.03c-.93,3.82-3.56,6.81-7.89,8.96-4.32,2.16-8.43,2.43-12.32.81-3.9-1.62-6.48-4.66-7.74-9.1-1.27-4.44-.76-8.33,1.53-11.67l35.84-56.02c1.34-2.02,3.01-2.61,5.01-1.78,2.01.84,2.73,2.43,2.16,4.77Z"/><path class="d" d="M853.61,272.11c-.52.27-1.08.4-1.63.4-1.25,0-2.46-.67-3.09-1.86-13.4-25.42-28.46-26.75-45.9-28.29-18.91-1.67-40.34-3.55-59.01-39.21-3.69-7.03-12.3-12.63-20.44-16.62l58.25,135.87.36.89c.95,2.36,1.49,4.24,1.66,5.74.12,1.12.04,2.06-.24,2.88-.4,1.14-1.21,2.02-2.3,2.45-.42.17-.93.3-1.51.3-1.13,0-2.52-.48-4.06-2.02-1.24-1.24-2.58-3.15-4.09-5.82l-74.86-134.63c-.97-1.7-1.88-3.42-2.73-5.15-17.76,24.06-11.17,44.28-5.39,54.48,9.39,16.58,25.99,25.49,33.3,24.33,1.82-.29,2.7-1.09,3.04-2.77.39-1.89,2.23-3.11,4.12-2.73,1.89.39,3.11,2.24,2.73,4.13-.93,4.52-4.13,7.53-8.8,8.27-.73.12-1.5.17-2.3.17-11.01,0-28.41-10.72-38.17-27.96-6.9-12.17-14.86-36.69,8.28-65.22-1.66-4.34-2.93-8.73-3.8-13.13-.9-4.53-1.16-8.05-.79-10.76.57-4.23,2.66-5.91,4.32-6.58,2.3-.92,4.97-.44,7.93,1.44,2.47,1.56,5.21,4.08,8.38,7.71,4.93,5.64,9.1,11.88,12.44,18.58,10.54,4.3,25.1,11.93,30.85,22.91,16.91,32.27,34.66,33.83,53.45,35.49,17.84,1.57,36.28,3.2,51.46,31.99.9,1.71.25,3.82-1.46,4.72Z"/><path class="d" d="M1040.26,264.48v16.37h5.64c2.28,0,4.3,1.44,5.29,3.75.96,2.31.68,4.98-.72,6.98l-23.11,32.69c-1.07,1.51-2.74,2.38-4.6,2.38h0c-1.85,0-3.52-.87-4.58-2.39l-23.14-32.68c-1.4-1.99-1.67-4.66-.69-6.98.97-2.31,3-3.75,5.3-3.75h5.59v-3.54c0-2.33,1.69-4.23,3.77-4.23s3.79,1.9,3.79,4.23v12h-9.71l19.66,27.83,19.67-27.83h-9.71v-24.83h-79.81c-22.91,0-41.55-21.08-41.55-46.99,0-11.6,3.77-22.74,10.61-31.35,6.78-8.57,16.1-13.99,26.25-15.3,8.99-19.39,26.57-31.43,45.91-31.43,11.98,0,23.66,4.74,32.89,13.35,9.18,8.49,15.53,20.43,17.88,33.63,18.55,1.59,31.99,17.9,31.99,38.87s-15.56,39.22-34.68,39.22h-1.93Z"/><path class="d" d="M1257.88,152.95v16.82c0,7.27-5.92,13.19-13.2,13.19h-18.8c-7.27,0-13.19-5.92-13.19-13.19v-16.82c0-7.28,5.92-13.2,13.19-13.2h18.8c7.28,0,13.2,5.92,13.2,13.2Z"/><path class="d" d="M1209.57,193.18c0,.31-.04.61-.07.91-.01.04-.01.08-.02.13-.04.3-.09.6-.15.9,0,.02-.01.04-.01.06-.09.4-.19.8-.31,1.2-.06.2-.13.41-.2.61-.05.14-.1.27-.16.41-.19.49-.42.96-.66,1.42-.08.14-.16.27-.23.4-.68,1.13-1.52,2.17-2.53,3.07l-8.24,7.42c-1.27,1.14-2.71,2.01-4.26,2.58-.16.06-.32.11-.48.16-.23.08-.45.15-.68.21-.16.04-.31.08-.47.11-.19.05-.39.09-.58.12-.29.05-.59.09-.88.13-.08.01-.16.02-.25.02-.15.02-.31.03-.47.04-.25.01-.49.02-.74.02s-.47,0-.71-.02c-.9-.05-1.79-.18-2.65-.41-.44-.11-.87-.25-1.3-.41-.21-.08-.42-.17-.63-.26-.21-.09-.42-.18-.62-.29-.21-.1-.41-.21-.61-.32s-.4-.23-.6-.36c-.19-.12-.38-.25-.57-.39s-.38-.28-.56-.42c-.17-.14-.34-.28-.5-.41-.37-.34-.73-.69-1.07-1.07l-11.26-12.5c-1.12-1.24-1.98-2.66-2.55-4.18-.14-.37-.26-.75-.37-1.14-.1-.38-.19-.77-.26-1.16-.06-.32-.1-.64-.13-.96-.08-.68-.1-1.38-.06-2.08.05-.95.2-1.87.44-2.77.05-.18.1-.36.16-.54.07-.22.14-.43.22-.65.24-.63.53-1.26.87-1.86.12-.2.24-.4.36-.59.13-.2.26-.39.39-.58.14-.19.28-.38.43-.56s.3-.36.46-.54c.16-.18.32-.35.49-.52.17-.17.34-.33.52-.5l8.24-7.42c.63-.57,1.31-1.07,2.02-1.49.35-.21.7-.41,1.06-.58.18-.09.37-.17.55-.25.18-.08.37-.16.56-.23.37-.14.75-.26,1.13-.37.77-.21,1.54-.35,2.32-.42h.01c.61-.06,1.24-.07,1.87-.04.43.02.86.07,1.29.14.22.03.44.07.66.11.03,0,.07.01.11.02.65.14,1.28.32,1.9.56.64.24,1.26.53,1.86.87.19.11.39.23.58.35.02,0,.03.01.04.02.18.12.37.25.55.38.17.12.33.24.49.37.12.08.24.18.35.29.12.09.24.2.36.31.33.29.64.6.93.93l11.26,12.5c.28.31.53.62.77.94.36.49.69,1,.98,1.53.1.17.19.35.28.53.09.18.17.36.25.54.08.18.16.37.23.55s.13.36.19.53c.07.2.13.4.19.61.05.19.1.38.15.58.09.41.17.82.23,1.25.11.82.15,1.64.09,2.46Z"/><path class="d" d="M1309.99,241.34c0,41.83-34.03,75.86-75.85,75.86s-75.86-34.03-75.86-75.86,34.03-75.86,75.86-75.86,75.85,34.03,75.85,75.86Z"/><path class="d" d="M113.78,523.47c-.52.27-1.08.4-1.63.4-1.25,0-2.46-.67-3.09-1.86-13.4-25.42-28.46-26.75-45.9-28.29-18.91-1.67-40.34-3.55-59.01-39.21-3.69-7.03-12.3-12.63-20.44-16.62l58.25,135.87.36.89c.95,2.36,1.49,4.24,1.66,5.74.12,1.12.04,2.06-.24,2.88-.4,1.14-1.21,2.02-2.3,2.45-.42.17-.93.3-1.51.3-1.13,0-2.52-.48-4.06-2.02-1.24-1.24-2.58-3.15-4.09-5.82l-74.86-134.63c-.97-1.7-1.88-3.42-2.73-5.15-17.76,24.06-11.17,44.28-5.39,54.48,9.39,16.58,25.99,25.49,33.3,24.33,1.82-.29,2.7-1.09,3.04-2.77.39-1.89,2.23-3.11,4.12-2.73,1.89.39,3.11,2.24,2.73,4.13-.93,4.52-4.13,7.53-8.8,8.27-.73.12-1.5.17-2.3.17-11.01,0-28.41-10.72-38.17-27.96-6.9-12.17-14.86-36.69,8.28-65.22-1.66-4.34-2.93-8.73-3.8-13.13-.9-4.53-1.16-8.05-.79-10.76.57-4.23,2.66-5.91,4.32-6.58,2.3-.92,4.97-.44,7.93,1.44,2.47,1.56,5.21,4.08,8.38,7.71,4.93,5.64,9.1,11.88,12.44,18.58,10.54,4.3,25.1,11.93,30.85,22.91,16.91,32.27,34.66,33.83,53.45,35.49,17.84,1.57,36.28,3.2,51.46,31.99.9,1.71.25,3.82-1.46,4.72Z"/><path class="d" d="M300.48,515.87v16.37h5.63c2.28,0,4.31,1.44,5.3,3.75.96,2.3.68,4.97-.73,6.98l-23.11,32.69c-1.06,1.52-2.73,2.39-4.59,2.39s-3.53-.87-4.59-2.39l-23.15-32.69c-1.39-1.99-1.66-4.66-.69-6.98.99-2.31,3.02-3.75,5.3-3.75h5.6v-3.54c0-2.33,1.69-4.23,3.78-4.23s3.77,1.9,3.77,4.23v12h-9.7l19.66,27.83,19.67-27.83h-9.71v-24.83h-79.81c-22.91,0-41.55-21.08-41.55-46.99,0-11.6,3.77-22.74,10.61-31.34,6.78-8.57,16.1-14,26.24-15.31,9-19.39,26.57-31.43,45.91-31.43,11.99,0,23.67,4.74,32.9,13.35,9.18,8.5,15.52,20.43,17.88,33.63,18.55,1.6,31.99,17.9,31.99,38.88s-15.56,39.21-34.69,39.21h-1.92Z"/><path class="d" d="M518.1,404.34v16.82c0,7.27-5.92,13.19-13.19,13.19h-18.8c-7.28,0-13.2-5.92-13.2-13.19v-16.82c0-7.28,5.92-13.19,13.2-13.19h18.8c7.27,0,13.19,5.91,13.19,13.19Z"/><path class="d" d="M565.45,452.94l-12.54,11.21c-2.43,2.18-5.53,3.36-8.77,3.36-.25,0-.5-.01-.75-.02-3.52-.2-6.75-1.75-9.1-4.38l-7.39-8.26c-4.85-5.42-4.39-13.78,1.04-18.63l12.53-11.21c2.63-2.35,6.02-3.53,9.53-3.34,3.52.19,6.75,1.75,9.1,4.38l7.39,8.26c4.85,5.42,4.39,13.78-1.04,18.63Z"/><path class="d" d="M469.19,447.88c-.14.43-.3.86-.48,1.28-.36.84-.82,1.64-1.36,2.4-.27.38-.57.75-.88,1.1-.32.35-.66.7-1.02,1.02l-8.24,7.42c-1.26,1.14-2.68,1.98-4.18,2.55-.37.14-.75.26-1.13.37-1.15.31-2.33.47-3.51.47-.45,0-.9-.02-1.35-.07-.68-.07-1.35-.19-2-.36-2.41-.63-4.67-1.94-6.46-3.93l-11.26-12.5c-.28-.31-.55-.64-.8-.97-.24-.34-.47-.68-.69-1.03-.52-.87-.94-1.79-1.25-2.74-1.35-4.15-.57-8.82,2.24-12.33.45-.55.94-1.07,1.48-1.56l8.23-7.42c1.58-1.42,3.43-2.42,5.43-2.95.16-.04.31-.08.47-.11.19-.05.38-.08.58-.12.28-.05.57-.09.85-.12.26-.04.53-.06.8-.07.46-.02.92-.02,1.39,0,.95.05,1.87.2,2.77.44.18.05.36.1.54.16.22.07.43.14.65.22.64.24,1.26.53,1.86.87.19.11.39.23.58.35.02,0,.03.01.04.02.18.12.37.25.55.38.17.12.33.24.49.37.12.08.24.18.35.29.12.09.24.2.36.31.33.29.64.6.93.93l11.25,12.5c.28.31.55.64.8.97.24.34.47.68.69,1.03.31.52.59,1.07.83,1.62.16.37.3.75.42,1.12.85,2.64.86,5.47.03,8.09Z"/><path class="d" d="M570.21,492.73c0,41.83-34.03,75.86-75.86,75.86s-75.86-34.03-75.86-75.86,34.03-75.86,75.86-75.86,75.86,34.03,75.86,75.86Z"/><path class="d" d="M835.05,455.39c-16.28-26.35-44.94-40.86-80.7-40.86-37.57,0-67.47,15.92-84.18,44.83-16.34,28.27-16.79,64.09-1.15,91.25l2.14,3.71h165.36l2.05-4.1c14.96-29.94,13.59-67.16-3.52-94.83ZM821,511.15c.25,1.86,1.84,3.22,3.67,3.22.17,0,.33-.01.49-.03l8.48-1.11c-.75,9.05-2.89,17.98-6.44,26.26h-147.3c-3.67-7.46-5.96-15.7-6.88-24.2l9.05.1h.05c2.02,0,3.68-1.63,3.7-3.67.03-2.05-1.62-3.72-3.66-3.75l-9.59-.11c-.05-2.46.02-4.92.21-7.37l11.26,2.66c.28.06.57.1.85.1,1.68,0,3.2-1.15,3.61-2.86.47-1.99-.77-3.99-2.76-4.46l-12.07-2.85c.46-2.73,1.05-5.44,1.78-8.11l10.72,6.47c.6.36,1.26.53,1.91.53,1.26,0,2.49-.64,3.18-1.79,1.06-1.76.5-4.04-1.26-5.09l-12.18-7.35c.8-2.14,1.71-4.25,2.72-6.3l12.66,9.28c.66.49,1.42.72,2.18.72,1.15,0,2.27-.52,3-1.52,1.21-1.65.85-3.97-.8-5.18l-13.44-9.84c1.27-2.06,2.62-4.04,4.08-5.93l11.73,11.71c.72.73,1.67,1.09,2.62,1.09s1.9-.37,2.62-1.09c1.45-1.45,1.45-3.8,0-5.24l-11.74-11.72c-.14-.14-.3-.27-.46-.38,1.48-1.6,3.05-3.12,4.69-4.56l10.98,13.2c.73.88,1.79,1.33,2.85,1.33.84,0,1.68-.28,2.37-.85,1.58-1.31,1.79-3.65.48-5.23l-10.87-13.05c2.28-1.63,4.67-3.13,7.16-4.48l6.77,14.92c.62,1.37,1.97,2.18,3.38,2.18.51,0,1.03-.11,1.53-.33,1.87-.85,2.69-3.05,1.85-4.91l-6.86-15.11c1.87-.81,3.79-1.55,5.76-2.21l3.49,14.5c.41,1.7,1.93,2.84,3.6,2.84.29,0,.58-.03.87-.1,2-.48,3.22-2.49,2.74-4.48l-3.57-14.84c2-.5,4.04-.93,6.12-1.29l1.39,14.12c.19,1.91,1.8,3.34,3.69,3.34.12,0,.24,0,.37-.01,2.04-.21,3.52-2.02,3.32-4.06l-1.42-14.38c2.04-.21,4.11-.35,6.22-.42v14.43c0,2.05,1.66,3.71,3.71,3.71s3.7-1.66,3.7-3.71v-14.49c1.67.04,3.31.11,4.9.22l-1.55,14.35c-.22,2.03,1.26,3.86,3.29,4.08.14.01.27.02.4.02,1.87,0,3.48-1.41,3.69-3.31l1.55-14.38c2.32.33,4.56.72,6.72,1.19l-4.71,14.46c-.64,1.95.43,4.04,2.37,4.68.38.12.77.18,1.15.18,1.56,0,3.02-.99,3.53-2.56l4.85-14.88c2.34.72,4.56,1.53,6.68,2.4l-7.54,14.31c-.96,1.81-.26,4.06,1.55,5.01.55.29,1.14.43,1.73.43,1.33,0,2.62-.72,3.28-1.98l7.68-14.59c2.07,1.12,4.03,2.31,5.86,3.55-.41.23-.77.54-1.07.93l-9.99,12.92c-1.25,1.62-.95,3.95.67,5.2.67.52,1.47.78,2.26.78,1.11,0,2.21-.5,2.94-1.44l9.99-12.92c.32-.42.54-.88.66-1.36,2.02,1.69,3.87,3.44,5.56,5.22-.63.2-1.21.58-1.68,1.11l-10.58,12.16c-1.35,1.55-1.18,3.89.36,5.23.7.62,1.57.92,2.43.92,1.04,0,2.07-.44,2.8-1.28l10.59-12.16c.22-.25.39-.52.53-.8,1.59,2.05,2.99,4.09,4.22,6.08-.37.15-.72.36-1.03.64l-12.21,10.71c-1.54,1.35-1.7,3.69-.35,5.23.74.84,1.76,1.27,2.79,1.27.87,0,1.74-.31,2.45-.92l11.9-10.44c.99,2.05,1.89,4.15,2.69,6.29l-12.52,8.73c-1.68,1.17-2.09,3.48-.91,5.16.72,1.03,1.87,1.59,3.04,1.59.73,0,1.47-.22,2.12-.67l10.64-7.43c.72,2.7,1.31,5.45,1.77,8.24l-10.98,3.83c-1.93.68-2.95,2.79-2.28,4.73.54,1.53,1.97,2.48,3.5,2.48.41,0,.82-.06,1.23-.2l9.43-3.29c.16,2.19.25,4.39.25,6.59l-9.76,1.28c-2.03.26-3.46,2.13-3.2,4.16Z"/><path class="d" d="M774.47,449.91l-16.59,64.03c-.93,3.82-3.56,6.81-7.89,8.96-4.32,2.17-8.43,2.43-12.32.81-3.89-1.62-6.47-4.65-7.74-9.09-1.26-4.44-.75-8.34,1.53-11.68l35.84-56.02c1.34-2.02,3.01-2.61,5.02-1.78,2,.84,2.72,2.43,2.15,4.77Z"/><path class="d" d="M836.52,554.02h-165.35l-2.14-3.71c-15.65-27.16-15.2-62.98,1.14-91.25,16.71-28.91,46.61-44.83,84.18-44.83s64.42,14.51,80.71,40.86c17.1,27.67,18.48,64.9,3.51,94.83l-2.05,4.1ZM679.9,539.19h147.3c10.47-24.4,8.71-54.5-4.76-76.3-9.54-15.43-29.09-33.83-68.09-33.83-32.05,0-57.39,13.29-71.34,37.43-12.79,22.13-13.89,50.79-3.11,72.71Z"/><path class="d" d="M1101.67,518.78c-15.18-28.79-33.63-30.42-51.47-31.99-18.79-1.65-36.54-3.22-53.44-35.49-5.76-10.98-20.33-18.62-30.87-22.91-3.32-6.7-7.5-12.94-12.43-18.58-3.17-3.63-5.91-6.15-8.37-7.71-2.97-1.87-5.64-2.36-7.94-1.44-1.65.67-3.75,2.35-4.32,6.58-.36,2.71-.11,6.23.79,10.77.87,4.4,2.15,8.78,3.81,13.12-23.14,28.53-15.18,53.05-8.29,65.22,9.76,17.24,27.16,27.96,38.18,27.96.8,0,1.56-.05,2.29-.17,4.67-.74,7.88-3.75,8.8-8.27.39-1.89-.83-3.74-2.72-4.12-1.88-.39-3.74.83-4.13,2.72-.34,1.68-1.22,2.48-3.04,2.77-7.3,1.15-23.91-7.75-33.3-24.33-5.78-10.21-12.36-30.43,5.4-54.48.84,1.73,1.75,3.44,2.72,5.15l74.69,134.32.17.31c1.51,2.68,2.85,4.58,4.1,5.82,1.53,1.54,2.92,2.02,4.05,2.02.58,0,1.09-.13,1.52-.3h.01c1.07-.44,1.88-1.31,2.28-2.45.29-.82.36-1.76.24-2.87-.16-1.47-.69-3.35-1.65-5.75l-.29-.71-58.33-136.04c8.14,3.98,16.75,9.58,20.44,16.62,18.68,35.65,40.11,37.53,59.02,39.2,17.43,1.54,32.49,2.87,45.89,28.29.63,1.19,1.84,1.86,3.1,1.86.55,0,1.1-.13,1.62-.4,1.71-.9,2.37-3.01,1.47-4.72ZM963.3,429.07h0c.09.19.19.38.28.57-.1-.19-.19-.38-.29-.57Z"/><path class="d" d="M1286.85,515.87v16.37h5.64c2.27,0,4.3,1.44,5.29,3.75.97,2.3.69,4.97-.72,6.98l-23.11,32.69c-1.07,1.52-2.74,2.39-4.6,2.39s-3.53-.88-4.59-2.39l-23.15-32.69c-1.39-1.99-1.66-4.66-.68-6.98.99-2.31,3.02-3.75,5.3-3.75h5.59v-3.54c0-2.33,1.69-4.23,3.78-4.23s3.78,1.9,3.78,4.23v12h-9.71l19.66,27.83,19.67-27.83h-9.71v-24.83h-79.8c-22.92,0-41.56-21.08-41.56-46.99,0-11.6,3.77-22.74,10.62-31.34,6.78-8.57,16.09-14,26.23-15.31,9-19.39,26.58-31.43,45.92-31.43,11.99,0,23.67,4.74,32.89,13.35,9.18,8.5,15.52,20.43,17.88,33.63,18.55,1.6,31.99,17.9,31.99,38.88s-15.56,39.21-34.68,39.21h-1.93Z"/><path class="d" d="M682.12,515.09h-.04l-17.03-.19c-2.05-.02-3.69-1.7-3.67-3.75.02-2.03,1.68-3.67,3.71-3.67h.04l17.03.19c2.05.02,3.69,1.7,3.67,3.75-.02,2.03-1.68,3.67-3.71,3.67ZM824.68,514.07c-1.83,0-3.43-1.36-3.67-3.23-.27-2.03,1.16-3.89,3.19-4.16l16.91-2.22c2.04-.26,3.89,1.16,4.16,3.19.27,2.03-1.16,3.89-3.19,4.16l-16.91,2.22c-.16.02-.33.03-.49.03ZM684.89,502.94c-.28,0-.57-.03-.85-.1l-16.39-3.86c-1.99-.47-3.23-2.47-2.76-4.46.47-1.99,2.46-3.23,4.46-2.76l16.39,3.86c1.99.47,3.23,2.47,2.76,4.46-.4,1.71-1.93,2.86-3.61,2.86ZM823.06,502.31c-1.53,0-2.97-.96-3.5-2.49-.67-1.93.35-4.05,2.28-4.72l14.73-5.14c1.94-.68,4.05.35,4.72,2.28s-.35,4.05-2.28,4.72l-14.73,5.14c-.4.14-.82.21-1.22.21ZM688.09,491.67c-.65,0-1.31-.17-1.91-.53l-13.36-8.05c-1.75-1.06-2.32-3.34-1.26-5.09,1.06-1.75,3.34-2.32,5.09-1.26l13.36,8.05c1.75,1.06,2.32,3.34,1.26,5.09-.7,1.15-1.92,1.79-3.18,1.79ZM818.28,491.12c-1.17,0-2.32-.55-3.04-1.59-1.17-1.68-.76-3.99.92-5.16l12.66-8.83c1.68-1.17,3.99-.76,5.16.92,1.17,1.68.76,3.99-.92,5.16l-12.66,8.83c-.65.45-1.39.67-2.12.67ZM695.39,481.14c-.76,0-1.53-.23-2.19-.72l-13.91-10.19c-1.65-1.21-2.01-3.53-.8-5.18,1.21-1.65,3.53-2.01,5.18-.8l13.91,10.19c1.65,1.21,2.01,3.53.8,5.18-.73.99-1.85,1.52-2.99,1.52ZM811.64,480.71c-1.03,0-2.06-.43-2.79-1.26-1.35-1.54-1.2-3.88.34-5.23l12.21-10.71c1.54-1.35,3.88-1.2,5.23.34,1.35,1.54,1.2,3.88-.34,5.23l-12.21,10.71c-.7.62-1.58.92-2.44.92ZM702.57,471.47c-.95,0-1.9-.36-2.62-1.08l-11.74-11.72c-1.45-1.45-1.45-3.79,0-5.24,1.45-1.45,3.79-1.45,5.24,0l11.74,11.72c1.45,1.45,1.45,3.8,0,5.24-.72.73-1.67,1.09-2.62,1.09ZM804.3,471.02c-.86,0-1.73-.3-2.43-.91-1.54-1.34-1.71-3.69-.36-5.23l10.59-12.16c1.34-1.54,3.69-1.71,5.23-.36s1.71,3.69.36,5.23l-10.59,12.16c-.73.84-1.76,1.27-2.8,1.27ZM711.52,463.01c-1.06,0-2.12-.45-2.85-1.33l-10.99-13.19c-1.31-1.57-1.1-3.91.48-5.22,1.57-1.31,3.91-1.1,5.22.48l10.99,13.19c1.31,1.57,1.1,3.91-.48,5.22-.69.58-1.53.86-2.37.86ZM794.61,462.1c-.79,0-1.59-.25-2.27-.77-1.62-1.25-1.92-3.58-.67-5.2l9.99-12.92c1.25-1.62,3.58-1.92,5.2-.67,1.62,1.25,1.92,3.58.67,5.2l-9.99,12.92c-.73.94-1.83,1.44-2.94,1.44ZM720.81,456.49c-1.41,0-2.76-.81-3.38-2.18l-7.32-16.13c-.85-1.86-.02-4.06,1.84-4.91,1.86-.84,4.06-.02,4.91,1.84l7.32,16.13c.85,1.86.02,4.06-1.84,4.91-.5.23-1.02.33-1.53.33ZM785.92,455.3c-.58,0-1.17-.14-1.73-.43-1.81-.96-2.51-3.2-1.55-5.01l7.92-15.03c.95-1.81,3.2-2.51,5.01-1.55,1.81.96,2.51,3.2,1.55,5.01l-7.92,15.03c-.66,1.26-1.95,1.98-3.28,1.98ZM730.18,451.28c-1.67,0-3.19-1.14-3.6-2.84l-4.14-17.22c-.48-1.99.75-3.99,2.74-4.47,1.99-.48,3.99.75,4.47,2.74l4.14,17.22c.48,1.99-.75,3.99-2.74,4.47-.29.07-.58.1-.87.1ZM775.13,450.59c-.38,0-.77-.06-1.15-.18-1.95-.63-3.01-2.73-2.38-4.67l5.32-16.32c.63-1.95,2.73-3.01,4.67-2.38,1.95.63,3.01,2.73,2.38,4.67l-5.32,16.32c-.51,1.57-1.96,2.56-3.52,2.56ZM741.41,448.03c-1.88,0-3.5-1.43-3.69-3.34l-1.65-16.72c-.2-2.04,1.29-3.85,3.32-4.06,2.04-.19,3.85,1.29,4.06,3.33l1.65,16.72c.2,2.04-1.29,3.85-3.32,4.06-.12.01-.25.02-.37.02ZM764.36,447.77c-.13,0-.27,0-.4-.02-2.04-.22-3.51-2.05-3.29-4.08l1.8-16.72c.22-2.04,2.04-3.51,4.08-3.29,2.04.22,3.51,2.05,3.29,4.08l-1.8,16.72c-.21,1.9-1.81,3.31-3.68,3.31ZM753.61,447.3c-2.05,0-3.71-1.66-3.71-3.71v-17.5c0-2.05,1.66-3.71,3.71-3.71s3.71,1.66,3.71,3.71v17.5c0,2.05-1.66,3.71-3.71,3.71Z"/><path class="d" d="M774.48,449.61l-16.59,64.03c-.93,3.82-3.56,6.81-7.89,8.96-4.32,2.16-8.43,2.43-12.32.81-3.9-1.62-6.48-4.66-7.74-9.1-1.27-4.44-.76-8.33,1.53-11.67l35.84-56.02c1.34-2.02,3.01-2.61,5.01-1.78,2.01.84,2.73,2.43,2.16,4.77Z"/></g><rect class="f" width="1280" height="548"/></g></svg>