<?xml version="1.0" encoding="UTF-8"?><svg id="a" xmlns="http://www.w3.org/2000/svg" xmlns:xlink="http://www.w3.org/1999/xlink" viewBox="0 0 1280 623"><defs><style>.n,.o,.p,.q,.r,.s,.t,.u,.v,.w,.x,.y,.z,.aa{stroke:#543c1c;}.n,.p{stroke-width:1.65px;}.n,.ab,.q,.r,.v,.z{fill:#543c1c;}.o{stroke-width:3.71px;}.o,.p,.ac,.s,.t,.u,.w,.x,.y,.aa{fill:none;}.o,.u,.w,.x,.y{stroke-linecap:round;}.ad{fill:#cebc98;}.q{stroke-width:.69px;}.q,.z{stroke-miterlimit:10;}.r{stroke-miterlimit:4;stroke-width:1.65px;}.s{stroke-width:8.25px;}.ae{fill:url(#m);}.t{stroke-width:2.62px;}.af{clip-path:url(#b);}.u{stroke-width:3.49px;}.v{stroke-miterlimit:4;stroke-width:1.65px;}.ag{fill:#030303;}.w{stroke-width:14.83px;}.x{stroke-width:7.42px;}.y{stroke-width:6.99px;}.z{stroke-width:6.88px;}.aa{stroke-width:.82px;}.ah{opacity:.5;}</style><clipPath id="b"><rect class="ac" width="1280" height="623"/></clipPath><radialGradient id="m" cx="140.3" cy="811.89" fx="140.3" fy="811.89" r="1" gradientTransform="translate(-1038580 -87408) rotate(90) scale(623 -1280)" gradientUnits="userSpaceOnUse"><stop offset="0" stop-color="#cebc98"/><stop offset=".5" stop-color="#cebc98"/><stop offset=".75" stop-color="#cebc98" stop-opacity=".75"/><stop offset="1" stop-color="#cebc98" stop-opacity=".25"/></radialGradient></defs><g class="af"><rect class="ad" width="1280" height="623"/><g class="ah"><rect class="n" x="23.25" y="-35.78" width="43.54" height="41.56" rx="12.37" ry="12.37"/><rect class="v" x="75.42" y="-1.09" width="41.56" height="35.82" rx="12.37" ry="12.37" transform="translate(13.27 68.41) rotate(-41.8)"/><rect class="ab" x="-22.36" y="-8.02" width="37.47" height="43.21" rx="13.19" ry="13.19" transform="translate(-10.02 1.07) rotate(-42)"/><rect class="r" x="-21.53" y="-7.19" width="35.82" height="41.56" rx="12.37" ry="12.37" transform="translate(-10.02 1.07) rotate(-42)"/><circle class="ab" cx="43.78" cy="64.9" r="67.86"/><path class="ab" d="M43.86,66.73V1.65c35.2,0,63.74,28.54,63.74,63.74l-63.74,1.34Z"/><path class="ab" d="M62.39-8l4.41,1.22-4.48,16.16c-.34,1.22-1.6,1.93-2.82,1.59-1.22-.34-1.93-1.6-1.59-2.82l4.48-16.16Z"/><path class="ab" d="M96.56,10.75l3.21,3.27-11.96,11.75c-.9.89-2.35.87-3.24-.03-.89-.9-.87-2.35.03-3.24l11.96-11.75Z"/><path class="ab" d="M116.78,44.08l1.15,4.43-16.23,4.2c-1.22.32-2.47-.42-2.79-1.64-.32-1.22.42-2.47,1.64-2.79l16.23-4.2Z"/><path class="ab" d="M117.63,83.06l-1.22,4.41-16.16-4.48c-1.22-.34-1.93-1.6-1.59-2.82.34-1.22,1.6-1.93,2.82-1.59l16.16,4.48Z"/><path class="ab" d="M98.87,117.23l-3.27,3.21-11.75-11.96c-.89-.9-.87-2.35.03-3.24.9-.89,2.35-.87,3.24.03l11.75,11.96Z"/><path class="ab" d="M65.54,137.45l-4.43,1.15-4.2-16.23c-.32-1.22.42-2.47,1.64-2.79,1.22-.32,2.47.42,2.79,1.64l4.2,16.23Z"/><path class="ab" d="M26.57,138.29l-4.41-1.22,4.48-16.16c.34-1.22,1.6-1.93,2.82-1.6s1.93,1.6,1.59,2.82l-4.48,16.16Z"/><path class="ab" d="M-7.61,119.54l-3.21-3.27,11.96-11.75c.9-.89,2.35-.87,3.24.03.89.9.87,2.35-.03,3.24l-11.96,11.75Z"/><path class="ab" d="M-9.91,13.06l3.27-3.21,11.75,11.96c.89.9.87,2.35-.03,3.24-.9.89-2.35.87-3.24-.03l-11.75-11.96Z"/><path class="ab" d="M23.42-7.16l4.43-1.15,4.2,16.23c.32,1.22-.42,2.47-1.64,2.79-1.22.32-2.47-.42-2.79-1.64l-4.2-16.23Z"/><path class="ab" d="M63.59-7.67l2.15.6-4.49,16.17c-.16.59-.78.94-1.38.78-.59-.16-.94-.78-.78-1.38l4.49-16.17Z"/><path class="ab" d="M97.42,11.59l1.57,1.59-11.97,11.76c-.44.43-1.15.43-1.58-.01-.43-.44-.43-1.15.01-1.58l11.97-11.76Z"/><path class="ab" d="M117.08,45.18l.56,2.16-16.25,4.2c-.6.15-1.21-.2-1.36-.8-.15-.6.21-1.21.8-1.36l16.25-4.2Z"/><path class="ab" d="M117.32,84.1l-.6,2.15-16.17-4.49c-.59-.17-.94-.78-.78-1.38.16-.59.78-.94,1.38-.78l16.17,4.49Z"/><path class="ab" d="M98.07,117.93l-1.59,1.57-11.76-11.97c-.43-.44-.43-1.15.01-1.58.44-.43,1.15-.43,1.58.01l11.76,11.97Z"/><path class="ab" d="M64.48,137.6l-2.16.56-4.2-16.25c-.15-.6.2-1.21.8-1.36.6-.15,1.21.2,1.36.8l4.2,16.25Z"/><path class="ab" d="M25.55,137.84l-2.15-.6,4.49-16.17c.16-.6.78-.94,1.38-.78s.94.78.78,1.38l-4.49,16.17Z"/><path class="ab" d="M-8.28,118.58l-1.57-1.59,11.97-11.76c.44-.43,1.15-.43,1.58.01.43.44.43,1.15-.01,1.58l-11.97,11.76Z"/><path class="ab" d="M-8.93,12.24l1.59-1.57,11.76,11.97c.43.44.43,1.15-.01,1.58-.44.43-1.15.43-1.58-.01l-11.76-11.97Z"/><path class="ab" d="M24.67-7.43l2.16-.56,4.2,16.25c.15.6-.2,1.21-.8,1.36-.6.15-1.21-.2-1.36-.8l-4.2-16.25Z"/><g id="c"><path class="ab" d="M41.93-3.1h5.94V13.38c0,1.64-1.33,2.97-2.97,2.97h0c-1.64,0-2.97-1.33-2.97-2.97V-3.1Z"/></g><g id="d"><path class="ab" d="M43.59-4.72h2.7V13.38c0,.75-.6,1.35-1.35,1.35h0c-.75,0-1.35-.6-1.35-1.35V-4.72Z"/></g><circle class="s" cx="43.86" cy="64.98" r="71.74"/><path class="p" d="M-18.64,22.1c-8.51,12.26-13.36,26.82-13.36,42.88,0,41.9,33.96,75.86,75.86,75.86s75.86-33.96,75.86-75.86c0-13.61-3.59-26.39-9.87-37.43"/><path class="p" d="M65.88-7.55c7.47,2.33,14.43,5.8,20.78,10.19"/><path class="ab" d="M52.13,63.84c-1.48,2.42-3.31,4.55-5.47,6.38-2.16,1.84-3.67,2.5-4.53,2-.86-.51-.84-2.03.07-4.56.91-2.53,2.27-4.95,4.08-7.25l29.49-38.27c1.08-1.38,1.84-1.95,2.28-1.69.44.26.21,1.13-.7,2.62l-25.22,40.77Z"/><path class="ab" d="M50.79,64.86c-1.17,1.9-2.81,3.5-4.58,5.02-1.77,1.53-2.99,2.11-3.63,1.67-.64-.44-.34-1.97.34-3.91s1.66-4.18,3.11-6.02l29.73-38.74c.87-1.11,1.65-2.1,1.97-1.91.32.18-.14.89-.71,1.78-.13.2-.26.41-.39.62l-25.85,41.49Z"/><path class="ab" d="M50.79,64.86c-1.17,1.9-2.81,3.5-4.58,5.02-1.77,1.53-2.99,2.11-3.63,1.67-.64-.44-.34-1.97.34-3.91s1.66-4.18,3.11-6.02l29.73-38.74c.87-1.11,1.65-2.1,1.97-1.91.32.18-.14.89-.71,1.78-.13.2-.26.41-.39.62l-25.85,41.49Z"/><path class="aa" d="M78.26,20.1c.23.13.36.35.4.59.04.23.01.47-.05.72-.1.37-.3.82-.58,1.34l-.32.54h0s-25.22,40.77-25.22,40.77c-1.41,2.31-3.13,4.35-5.14,6.13l-.41.35c-1.09.93-2.05,1.58-2.85,1.94-.8.35-1.55.45-2.15.1-.62-.36-.85-1.06-.83-1.88.01-.83.26-1.89.72-3.17.92-2.58,2.31-5.03,4.14-7.37l29.49-38.27h0c.55-.7,1.03-1.23,1.46-1.54.4-.29.9-.52,1.36-.25Z"/><path class="x" d="M381.44,119.15h-156.48c-26.7-46.35-2.3-124.96,78.9-124.96s101.69,76.76,77.58,124.96Z"/><path class="w" d="M381.44,119.15h-156.48c-26.7-46.35-2.3-124.96,78.9-124.96s101.69,76.76,77.58,124.96Z"/><path class="x" d="M303.11,16.14V-1.36M313.86,16.61l1.8-16.72M324.63,19.43l5.32-16.32M335.43,24.14l7.92-15.03M344.12,30.94l9.99-12.92M353.8,39.86l10.59-12.16M361.14,49.55l12.22-10.71M367.78,59.96l12.65-8.83M372.56,71.15l14.73-5.14M374.19,82.91l16.91-2.22M290.92,16.87l-1.65-16.72M279.68,20.12l-4.14-17.22M270.31,25.33l-7.32-16.13M261.02,31.85l-10.99-13.2M252.08,40.31l-11.74-11.72M244.9,49.98l-13.91-10.19M237.6,60.51l-13.36-8.06M234.4,71.78l-16.39-3.86M231.62,83.93l-17.03-.19"/><path class="o" d="M303.11,16.42V-5.07M313.86,16.89l2.45-19.74M324.63,19.69l6.26-19.22M335.43,24.38l10.42-19.48M344.12,31.16l14.44-18.51M353.8,40.05l15.05-17.67M361.14,49.7l16.61-14.72M367.78,60.06l15.9-10.99M372.56,71.2l14.73-5.12M374.19,82.91l16.91-2.21M290.92,17.15l-1.91-20.74M279.68,20.38l-4.89-20.65M270.31,25.58l-9.29-19.94M261.02,32.07l-13.05-16.37M252.08,40.49l-14.49-14.91M244.9,50.12l-16.95-12.54M237.6,60.6l-16.33-10.05M234.4,71.83l-16.39-3.85M231.62,83.93l-17.03-.19"/><path class="x" d="M381.44,119.15h-156.48c-26.7-46.35-2.3-124.96,78.9-124.96s101.69,76.76,77.58,124.96Z"/><path class="ab" d="M307.39,86.19c-.93,3.82-3.56,6.8-7.89,8.96-4.32,2.16-8.43,2.43-12.32.81s-6.47-4.66-7.74-9.1c-1.26-4.44-.75-8.33,1.53-11.68l35.84-56.02c1.34-2.02,3.01-2.61,5.01-1.77,2.01.84,2.72,2.42,2.16,4.76l-16.59,64.04Z"/><path class="ab" d="M304.02,84.29c-.71,2.82-2.68,5.03-5.92,6.64-3.23,1.61-6.3,1.83-9.19.65-2.9-1.18-4.81-3.4-5.74-6.67-.92-3.27-.53-6.14,1.19-8.61l33.31-54.5c1.01-1.49,1.93-2.83,3.28-2.21,1.59.73.76,2.13.33,3.86l-17.25,60.84Z"/><path class="y" d="M468.51,4.48c-47.71,56.97,29.32,105.53,33.93,82.94"/><path class="u" d="M468.51,4.48c-47.71,56.97,29.32,105.97,33.93,83.37"/><path class="ab" d="M493.16,6.5c-3.53-8.34-8.27-15.92-14.22-22.72-5.94-6.81-10.39-9.63-13.35-8.44-2.96,1.19-3.6,5.99-1.94,14.4,1.67,8.41,4.81,16.68,9.43,24.8l74.87,134.63c2.74,4.88,4.88,7.01,6.4,6.4,1.52-.61,1.21-3.47-.95-8.58L493.16,6.5Z"/><path class="ab" d="M489.4,2.65c-2.79-6.55-7.22-12.36-12.08-18-4.85-5.65-8.42-8.05-10.64-6.98-2.22,1.07-1.99,6.06-.77,12.48,1.23,6.42,3.25,13.97,6.96,20.46l75.4,136.23c2.2,3.9,4.2,7.39,5.32,6.96,1.08-.41-.02-2.87-1.39-5.94-.31-.69-.63-1.41-.94-2.15L489.4,2.65Z"/><path class="ab" d="M489.4,2.65c-2.79-6.55-7.22-12.36-12.08-18-4.85-5.65-8.42-8.05-10.64-6.98-2.22,1.07-1.99,6.06-.77,12.48,1.23,6.42,3.25,13.97,6.96,20.46l75.4,136.23c2.2,3.9,4.2,7.39,5.32,6.96,1.08-.41-.02-2.87-1.39-5.94-.31-.69-.63-1.41-.94-2.15L489.4,2.65Z"/><path class="ab" d="M479.86-4.74c-.26-.91-2.1-3.35-3.06-4.34,0,0-3.41-3.71-4.36-3.23-.95.48-.36,5.51-.36,5.51.18,1.37.74,4,1.49,5.1l8.99,12.66c.35.47.88,1.02,1.37.77.49-.25.55-1.09.39-1.65l-4.45-14.81Z"/><path class="t" d="M554.84,156.78c.78-.31,1.29-.92,1.55-1.67.24-.69.26-1.49.17-2.3-.16-1.42-.7-3.23-1.57-5.4l-.39-.95h0S494.37,5.98,494.37,5.98l-.34-.79c-3.55-8.16-8.24-15.59-14.1-22.28-3-3.44-5.7-5.96-8.08-7.46-2.35-1.48-4.68-2.16-6.74-1.33-2.12.85-3.16,2.93-3.51,5.53-.35,2.61-.06,6.08.78,10.34,1.7,8.56,4.89,16.96,9.58,25.19l74.86,134.62h0c1.39,2.48,2.68,4.35,3.88,5.55,1.11,1.11,2.59,2.06,4.16,1.43Z"/><path class="y" d="M480.56-.14s31.9,8.77,40.57,25.31c34.29,65.46,75.21,11.15,104.91,67.49"/><path class="u" d="M480.56-.29s31.9,8.77,40.57,25.31c34.29,65.46,75.21,11.15,104.91,67.49"/><path class="q" d="M838.28,87.77c18.96,0,34.34-17.41,34.34-38.87s-14.08-37.16-31.94-38.56c-2.3-13.22-8.58-25.15-17.82-33.7-9.2-8.59-20.74-13.25-32.66-13.25-19.85,0-37.09,12.75-45.68,31.41-10.1,1.24-19.44,6.65-26.2,15.2-6.8,8.55-10.54,19.63-10.54,31.13,0,25.73,18.48,46.64,41.21,46.64h80.16v24.84h10.03l-20.33,28.76-20.33-28.76h10.03v-11.66c0-2.14-1.51-3.89-3.43-3.89s-3.43,1.75-3.43,3.89v3.89h-5.94c-2.13,0-4.05,1.36-4.98,3.54-.93,2.22-.69,4.74.65,6.65l23.15,32.69c2.09,2.99,6.53,2.99,8.62,0l23.11-32.69c1.34-1.9,1.61-4.43.69-6.65-.93-2.18-2.85-3.54-4.98-3.54h-5.98v-17.06h2.27ZM748.99,72.22c-15.18,0-27.47-13.91-27.47-31.09,0-15.94,10.51-29.23,24.45-30.86l7.35-.86,3.43-7.38c3.16-6.96,7.97-12.79,13.84-16.87,5.91-4.08,12.71-6.22,19.61-6.22,18,0,33.52,14.46,37.02,34.44l2.06,11.66,10.51.86c5.15.39,9.99,2.99,13.53,7.27,3.57,4.24,5.53,9.87,5.56,15.74,0,12.83-9.27,23.32-20.61,23.32h-89.29Z"/><path class="z" d="M858.89,48.9c0,12.83-9.27,23.32-20.61,23.32h-89.29c-15.18,0-27.47-13.91-27.47-31.09,0-15.94,10.51-29.23,24.45-30.86l7.35-.86,3.44-7.38c3.16-6.96,7.97-12.79,13.84-16.87,5.91-4.08,12.71-6.22,19.61-6.22,17.99,0,33.52,14.46,37.02,34.44l2.06,11.66,10.51.86c5.15.39,9.99,2.99,13.53,7.27,3.57,4.24,5.53,9.87,5.56,15.74Z"/><path class="ab" d="M768.04,27.95c.69-.74,1.44-1.28,2.23-1.59.82-.31,1.68-.51,2.61-.51.79,0,1.58.16,2.3.43.69.27,1.37.62,1.99,1.01.58.43,1.13.82,1.61,1.24.48.43.86.78,1.17,1.09h.76v-6.88c-.48-.23-1-.51-1.61-.82-.62-.31-1.27-.58-2.03-.82-.72-.19-1.51-.39-2.34-.51-.86-.12-1.82-.19-2.85-.19-1.89,0-3.64.35-5.25,1.01-1.61.7-2.95,1.67-4.05,2.92-1.1,1.24-1.99,2.88-2.58,4.66-.58,1.83-.89,3.89-.89,6.1,0,2.41.31,4.55.93,6.37.65,1.83,1.51,3.34,2.64,4.59,1.13,1.2,2.47,2.14,4.05,2.76,1.55.62,3.26.93,5.12.93,1.27,0,2.27-.08,2.95-.19.72-.16,1.48-.35,2.3-.62.62-.19,1.24-.43,1.79-.7.58-.31,1.17-.58,1.82-.89v-6.76h-.69c-.31.31-.69.66-1.17,1.09-.45.39-.96.78-1.51,1.17-.65.43-1.34.82-2.13,1.05-.76.27-1.55.43-2.3.43-.82,0-1.65-.16-2.51-.47-.82-.31-1.58-.78-2.27-1.48-.69-.7-1.24-1.63-1.68-2.8-.41-1.2-.65-2.68-.65-4.43s.21-3.15.62-4.31c.41-1.2.93-2.14,1.62-2.88Z"/><path class="ab" d="M806.26,24.33c-2.27-2.64-5.43-3.96-9.44-3.96s-7.14,1.32-9.41,3.96c-2.3,2.64-3.43,6.22-3.43,10.77s1.13,8.08,3.43,10.73c2.27,2.64,5.43,3.96,9.41,3.96s7.18-1.32,9.48-3.96c2.27-2.64,3.4-6.22,3.4-10.73s-1.13-8.12-3.43-10.77ZM802.55,39.18c-.27,1.2-.76,2.22-1.37,3.07-.55.74-1.2,1.32-1.96,1.67-.76.35-1.55.54-2.37.54s-1.61-.19-2.37-.54c-.76-.35-1.41-.89-1.96-1.63-.55-.74-1-1.71-1.34-2.92-.34-1.17-.52-2.6-.52-4.28s.17-3.11.52-4.35c.34-1.24.82-2.22,1.37-2.92.62-.78,1.27-1.32,1.99-1.63.72-.35,1.48-.51,2.3-.51s1.58.16,2.34.51c.72.35,1.37.89,1.96,1.67.55.74,1,1.67,1.34,2.88.38,1.17.55,2.64.55,4.31s-.17,2.95-.48,4.12Z"/><path class="ab" d="M818.32,53.01c.41-.31.89-.7,1.44-1.17.55-.43,1.03-.86,1.41-1.24,1.34-1.32,2.2-2.45,2.58-3.38.41-.93.58-1.94.58-2.95,0-1.79-.55-3.11-1.68-4.04s-2.71-1.4-4.77-1.4c-1.06,0-2.16.12-3.23.35-1.07.27-1.96.51-2.68.82v4.51h.38c.62-.43,1.3-.78,2.06-1.09.79-.27,1.48-.43,2.13-.43.86,0,1.54.19,1.99.58.45.39.69.97.69,1.71,0,.7-.17,1.36-.48,2.02-.28.7-1.07,1.55-2.34,2.68-.58.51-1.27,1.09-2.13,1.67-.82.62-1.65,1.17-2.4,1.71v3.58h13.53v-3.93h-7.07Z"/><rect class="n" x="1009.62" y="-35.78" width="43.54" height="41.56" rx="12.37" ry="12.37"/><rect class="v" x="1061.8" y="-1.09" width="41.56" height="35.82" rx="12.37" ry="12.37" transform="translate(264.38 725.91) rotate(-41.8)"/><rect class="ab" x="964.02" y="-8.02" width="37.47" height="43.21" rx="13.19" ry="13.19" transform="translate(243.39 661.14) rotate(-42)"/><rect class="r" x="964.84" y="-7.19" width="35.82" height="41.56" rx="12.37" ry="12.37" transform="translate(243.39 661.14) rotate(-42)"/><circle class="ab" cx="1030.15" cy="64.9" r="67.86"/><path class="ab" d="M1030.23,66.73V1.65c35.21,0,63.74,28.54,63.74,63.74l-63.74,1.34Z"/><path class="ab" d="M1048.76-8l4.42,1.22-4.48,16.16c-.34,1.22-1.6,1.93-2.82,1.59-1.22-.34-1.93-1.6-1.6-2.82l4.48-16.16Z"/><path class="ab" d="M1082.94,10.75l3.21,3.27-11.96,11.75c-.9.89-2.35.87-3.24-.03-.89-.9-.87-2.35.03-3.24l11.96-11.75Z"/><path class="ab" d="M1103.16,44.08l1.14,4.43-16.23,4.2c-1.22.32-2.47-.42-2.79-1.64-.32-1.22.42-2.47,1.64-2.79l16.24-4.2Z"/><path class="ab" d="M1104,83.06l-1.22,4.41-16.16-4.48c-1.22-.34-1.93-1.6-1.6-2.82.34-1.22,1.6-1.93,2.82-1.59l16.16,4.48Z"/><path class="ab" d="M1085.24,117.23l-3.26,3.21-11.75-11.96c-.89-.9-.88-2.35.02-3.24.91-.89,2.36-.87,3.24.03l11.75,11.96Z"/><path class="ab" d="M1051.91,137.45l-4.43,1.15-4.2-16.23c-.31-1.22.42-2.47,1.65-2.79,1.22-.32,2.47.42,2.79,1.64l4.19,16.23Z"/><path class="ab" d="M1012.94,138.29l-4.41-1.22,4.48-16.16c.34-1.22,1.6-1.93,2.82-1.6,1.22.34,1.93,1.6,1.59,2.82l-4.48,16.16Z"/><path class="ab" d="M978.77,119.54l-3.21-3.27,11.96-11.75c.9-.89,2.35-.87,3.24.03.89.9.87,2.35-.03,3.24l-11.96,11.75Z"/><path class="ab" d="M958.55,86.21l-1.15-4.43,16.23-4.2c1.22-.32,2.47.42,2.79,1.64.32,1.22-.42,2.47-1.64,2.79l-16.23,4.2Z"/><path class="ab" d="M957.7,47.23l1.22-4.41,16.16,4.48c1.22.34,1.93,1.6,1.59,2.82s-1.6,1.93-2.82,1.59l-16.16-4.48Z"/><path class="ab" d="M976.46,13.06l3.27-3.21,11.75,11.96c.89.9.87,2.35-.03,3.24-.9.89-2.35.87-3.24-.03l-11.75-11.96Z"/><path class="ab" d="M1009.79-7.16l4.43-1.15,4.2,16.23c.32,1.22-.42,2.47-1.64,2.79-1.23.32-2.48-.42-2.79-1.64l-4.2-16.23Z"/><path class="ab" d="M1049.96-7.67l2.16.6-4.49,16.17c-.16.59-.78.94-1.37.78-.6-.16-.95-.78-.78-1.38l4.48-16.17Z"/><path class="ab" d="M1083.79,11.59l1.57,1.59-11.97,11.76c-.44.43-1.15.43-1.58-.01-.44-.44-.43-1.15,0-1.58l11.97-11.76Z"/><path class="ab" d="M1103.46,45.18l.56,2.16-16.25,4.2c-.6.15-1.21-.2-1.36-.8-.16-.6.2-1.21.8-1.36l16.25-4.2Z"/><path class="ab" d="M1103.7,84.1l-.6,2.15-16.17-4.49c-.6-.17-.95-.78-.78-1.38.16-.59.78-.94,1.37-.78l16.18,4.49Z"/><path class="ab" d="M1084.44,117.93l-1.59,1.57-11.77-11.97c-.43-.44-.42-1.15.02-1.58.44-.43,1.14-.43,1.58.01l11.76,11.97Z"/><path class="ab" d="M1050.85,137.6l-2.16.56-4.21-16.25c-.15-.6.21-1.21.81-1.36.59-.15,1.2.2,1.36.8l4.2,16.25Z"/><path class="ab" d="M1011.93,137.84l-2.16-.6,4.49-16.17c.16-.6.78-.94,1.37-.78.6.17.95.78.78,1.38l-4.48,16.17Z"/><path class="ab" d="M978.1,118.58l-1.57-1.59,11.97-11.76c.44-.43,1.15-.43,1.58.01.43.44.43,1.15-.01,1.58l-11.97,11.76Z"/><path class="ab" d="M958.43,84.99l-.56-2.16,16.25-4.2c.6-.15,1.21.2,1.36.8.15.6-.21,1.21-.8,1.36l-16.25,4.2Z"/><path class="ab" d="M958.19,46.07l.6-2.15,16.17,4.49c.59.16.94.78.78,1.38-.16.59-.78.94-1.38.78l-16.17-4.49Z"/><path class="ab" d="M977.45,12.24l1.59-1.57,11.76,11.97c.43.44.43,1.15-.01,1.58-.44.43-1.15.43-1.58-.01l-11.76-11.97Z"/><path class="ab" d="M1011.04-7.43l2.16-.56,4.2,16.25c.16.6-.2,1.21-.8,1.36-.59.15-1.2-.2-1.36-.8l-4.2-16.25Z"/><g id="e"><path class="ab" d="M1028.31-3.1h5.94V13.38c0,1.64-1.33,2.97-2.97,2.97h0c-1.64,0-2.97-1.33-2.97-2.97V-3.1Z"/></g><g id="f"><path class="ab" d="M1029.96-4.72h2.71V13.38c0,.75-.61,1.35-1.35,1.35h0c-.75,0-1.36-.6-1.36-1.35V-4.72Z"/></g><circle class="s" cx="1030.23" cy="64.98" r="71.74" transform="translate(794.54 1069.99) rotate(-80.41)"/><path class="p" d="M967.73,22.1c-8.51,12.26-13.36,26.82-13.36,42.88,0,41.9,33.96,75.86,75.86,75.86s75.86-33.96,75.86-75.86c0-13.61-3.58-26.39-9.86-37.43"/><path class="p" d="M1052.25-7.55c7.47,2.33,14.43,5.8,20.78,10.19"/><path class="ab" d="M1038.51,63.84c-1.49,2.42-3.31,4.55-5.47,6.38-2.16,1.84-3.67,2.5-4.54,2-.86-.51-.84-2.03.07-4.56.91-2.53,2.27-4.95,4.08-7.25l29.49-38.27c1.08-1.38,1.84-1.95,2.28-1.69.45.26.22,1.13-.69,2.62l-25.22,40.77Z"/><path class="ab" d="M1037.16,64.86c-1.17,1.9-2.82,3.5-4.58,5.02-1.77,1.53-2.99,2.11-3.63,1.67-.64-.44-.33-1.97.35-3.91.67-1.93,1.65-4.18,3.11-6.02l29.73-38.74c.86-1.11,1.64-2.1,1.97-1.91.32.18-.14.89-.71,1.78-.12.2-.26.41-.39.62l-25.85,41.49Z"/><path class="ab" d="M1037.16,64.86c-1.17,1.9-2.82,3.5-4.58,5.02-1.77,1.53-2.99,2.11-3.63,1.67-.64-.44-.33-1.97.35-3.91.67-1.93,1.65-4.18,3.11-6.02l29.73-38.74c.86-1.11,1.64-2.1,1.97-1.91.32.18-.14.89-.71,1.78-.12.2-.26.41-.39.62l-25.85,41.49Z"/><path class="aa" d="M1064.63,20.1c.23.13.36.35.41.59.04.23.01.47-.06.72-.1.37-.3.82-.58,1.34l-.32.54h0s-25.22,40.77-25.22,40.77c-1.42,2.31-3.13,4.35-5.15,6.13l-.41.35c-1.09.93-2.04,1.58-2.85,1.94-.8.35-1.55.45-2.15.1-.62-.36-.85-1.06-.84-1.88.02-.83.27-1.89.73-3.17.92-2.58,2.3-5.03,4.14-7.37l29.49-38.27h0c.54-.7,1.03-1.23,1.46-1.54.39-.29.9-.52,1.35-.25Z"/><path class="x" d="M1367.81,119.15h-156.48c-26.7-46.35-2.3-124.96,78.9-124.96s101.69,76.76,77.58,124.96Z"/><path class="w" d="M1367.81,119.15h-156.48c-26.7-46.35-2.3-124.96,78.9-124.96s101.69,76.76,77.58,124.96Z"/><path class="x" d="M1289.49,16.14V-1.36M1300.23,16.61l1.81-16.72M1311,19.43l5.32-16.32M1321.8,24.14l7.92-15.03M1330.5,30.94l9.98-12.92M1340.18,39.86l10.58-12.16M1347.51,49.55l12.22-10.71M1354.16,59.96l12.65-8.83M1358.94,71.15l14.73-5.14M1360.56,82.91l16.91-2.22M1277.3,16.87l-1.66-16.72M1266.06,20.12l-4.14-17.22M1256.68,25.33l-7.32-16.13M1247.39,31.85l-10.98-13.2M1238.45,40.31l-11.73-11.72M1231.27,49.98l-13.91-10.19M1223.97,60.51l-13.36-8.06M1220.77,71.78l-16.39-3.86M1218,83.93l-17.03-.19"/><path class="o" d="M1289.49,16.42V-5.07M1300.23,16.89l2.45-19.74M1311,19.69l6.27-19.22M1321.8,24.38l10.43-19.48M1330.5,31.16l14.44-18.51M1340.18,40.05l15.04-17.67M1347.51,49.7l16.61-14.72M1354.16,60.06l15.9-10.99M1358.94,71.2l14.73-5.12M1360.56,82.91l16.91-2.21M1277.3,17.15l-1.92-20.74M1266.06,20.38l-4.89-20.65M1256.68,25.58l-9.29-19.94M1247.39,32.07l-13.05-16.37M1238.45,40.49l-14.49-14.91M1231.27,50.12l-16.95-12.54M1223.97,60.6l-16.33-10.05M1220.77,71.83l-16.39-3.85M1218,83.93l-17.03-.19"/><path class="x" d="M1367.81,119.15h-156.48c-26.7-46.35-2.3-124.96,78.9-124.96s101.69,76.76,77.58,124.96Z"/><path class="ab" d="M1293.76,86.19c-.93,3.82-3.56,6.8-7.89,8.96-4.32,2.16-8.42,2.43-12.32.81-3.89-1.62-6.47-4.66-7.74-9.1-1.26-4.44-.75-8.33,1.53-11.68l35.84-56.02c1.34-2.02,3.01-2.61,5.02-1.77,2,.84,2.72,2.42,2.15,4.76l-16.59,64.04Z"/><path class="ab" d="M1290.4,84.29c-.71,2.82-2.68,5.03-5.92,6.64-3.24,1.61-6.3,1.83-9.2.65-2.9-1.18-4.81-3.4-5.73-6.67-.93-3.27-.53-6.14,1.18-8.61l33.31-54.5c1.01-1.49,1.93-2.83,3.28-2.21,1.59.73.76,2.13.32,3.86l-17.24,60.84Z"/><path class="q" d="M98.5,339.16c18.96,0,34.34-17.41,34.34-38.87s-14.08-37.16-31.94-38.56c-2.3-13.21-8.59-25.15-17.82-33.7-9.2-8.59-20.74-13.25-32.66-13.25-19.85,0-37.09,12.75-45.68,31.41-10.1,1.24-19.44,6.65-26.2,15.2-6.8,8.55-10.54,19.63-10.54,31.13,0,25.73,18.48,46.64,41.21,46.64h80.16v24.84h10.03l-20.33,28.76-20.33-28.76h10.03v-11.66c0-2.14-1.51-3.89-3.43-3.89s-3.43,1.75-3.43,3.89v3.89h-5.94c-2.13,0-4.05,1.36-4.98,3.54-.93,2.22-.69,4.74.65,6.65l23.15,32.69c2.09,2.99,6.53,2.99,8.62,0l23.11-32.69c1.34-1.9,1.61-4.43.69-6.65-.93-2.18-2.85-3.54-4.98-3.54h-5.98v-17.06h2.27ZM9.21,323.61c-15.18,0-27.47-13.92-27.47-31.1,0-15.94,10.51-29.23,24.45-30.86l7.35-.85,3.43-7.39c3.16-6.96,7.97-12.79,13.84-16.87,5.91-4.08,12.71-6.22,19.61-6.22,18,0,33.52,14.46,37.02,34.44l2.06,11.66,10.51.85c5.15.39,9.99,2.99,13.53,7.27,3.57,4.24,5.53,9.87,5.56,15.74,0,12.83-9.27,23.32-20.61,23.32H9.21Z"/><path class="z" d="M119.11,300.29c0,12.83-9.27,23.32-20.61,23.32H9.21c-15.18,0-27.47-13.91-27.47-31.09,0-15.94,10.51-29.23,24.45-30.86l7.35-.86,3.43-7.38c3.16-6.96,7.97-12.79,13.84-16.87,5.91-4.08,12.71-6.22,19.61-6.22,18,0,33.52,14.46,37.02,34.44l2.06,11.66,10.51.86c5.15.39,9.99,2.99,13.53,7.27,3.57,4.24,5.53,9.87,5.56,15.74Z"/><path class="ab" d="M28.26,279.34c.69-.74,1.44-1.28,2.23-1.59.82-.31,1.68-.51,2.61-.51.79,0,1.58.16,2.3.43.69.27,1.37.62,1.99,1.01.58.43,1.13.82,1.61,1.24.48.43.86.78,1.17,1.09h.76v-6.88c-.48-.23-1-.51-1.61-.82-.62-.31-1.27-.58-2.03-.82-.72-.19-1.51-.39-2.34-.51-.86-.12-1.82-.19-2.85-.19-1.89,0-3.64.35-5.25,1.01-1.61.7-2.95,1.67-4.05,2.92-1.1,1.24-1.99,2.88-2.58,4.66-.58,1.83-.89,3.89-.89,6.1,0,2.41.31,4.55.93,6.37.65,1.83,1.51,3.34,2.64,4.59,1.13,1.21,2.47,2.14,4.05,2.76,1.55.62,3.26.93,5.12.93,1.27,0,2.27-.08,2.95-.19.72-.16,1.48-.35,2.3-.62.62-.19,1.24-.43,1.79-.7.58-.31,1.17-.58,1.82-.89v-6.76h-.69c-.31.31-.69.66-1.17,1.09-.45.39-.96.78-1.51,1.17-.65.43-1.34.82-2.13,1.05-.76.27-1.55.43-2.3.43-.82,0-1.65-.16-2.51-.47-.82-.31-1.58-.78-2.27-1.48-.69-.7-1.24-1.63-1.68-2.8-.41-1.2-.65-2.68-.65-4.43s.21-3.15.62-4.32c.41-1.2.93-2.14,1.61-2.88Z"/><path class="ab" d="M66.48,275.72c-2.27-2.64-5.43-3.96-9.44-3.96s-7.14,1.32-9.41,3.96c-2.3,2.64-3.43,6.22-3.43,10.77s1.13,8.08,3.43,10.73c2.27,2.64,5.43,3.96,9.41,3.96s7.18-1.32,9.48-3.96c2.27-2.64,3.4-6.22,3.4-10.73s-1.13-8.12-3.43-10.77ZM62.77,290.57c-.27,1.2-.76,2.21-1.37,3.07-.55.74-1.2,1.32-1.96,1.67-.76.35-1.55.54-2.37.54s-1.61-.19-2.37-.54c-.76-.35-1.41-.89-1.96-1.63-.55-.74-1-1.71-1.34-2.91-.34-1.17-.52-2.6-.52-4.28s.17-3.11.52-4.35c.34-1.24.82-2.22,1.37-2.92.62-.78,1.27-1.32,1.99-1.63.72-.35,1.48-.5,2.3-.5s1.58.15,2.34.5c.72.35,1.37.89,1.96,1.67.55.74,1,1.67,1.34,2.88.38,1.17.55,2.64.55,4.31s-.17,2.95-.48,4.12Z"/><path class="ab" d="M78.54,304.41c.41-.31.89-.7,1.44-1.17.55-.43,1.03-.86,1.41-1.24,1.34-1.32,2.2-2.45,2.58-3.38.41-.93.58-1.94.58-2.95,0-1.79-.55-3.11-1.68-4.04-1.13-.93-2.71-1.4-4.77-1.4-1.06,0-2.16.12-3.23.35-1.06.27-1.96.51-2.68.82v4.51h.38c.62-.43,1.31-.78,2.06-1.09.79-.27,1.48-.43,2.13-.43.86,0,1.55.19,1.99.58.45.39.69.97.69,1.71,0,.7-.17,1.36-.48,2.02-.27.7-1.06,1.55-2.34,2.68-.58.51-1.27,1.09-2.13,1.67-.82.62-1.65,1.17-2.4,1.71v3.58h13.53v-3.92h-7.07Z"/><rect class="n" x="269.84" y="215.61" width="43.54" height="41.56" rx="12.37" ry="12.37"/><rect class="v" x="322.02" y="250.31" width="41.56" height="35.82" rx="12.37" ry="12.37" transform="translate(-91.52 296.78) rotate(-41.8)"/><rect class="ab" x="224.24" y="243.37" width="37.47" height="43.21" rx="13.19" ry="13.19" transform="translate(-114.9 230.67) rotate(-42)"/><rect class="r" x="225.06" y="244.2" width="35.82" height="41.56" rx="12.37" ry="12.37" transform="translate(-114.9 230.67) rotate(-42)"/><circle class="ab" cx="290.37" cy="316.29" r="67.86"/><path class="ab" d="M290.45,318.12v-65.08c35.2,0,63.74,28.54,63.74,63.74l-63.74,1.34Z"/><path class="ab" d="M308.98,243.39l4.41,1.23-4.48,16.16c-.34,1.22-1.6,1.93-2.82,1.6-1.22-.34-1.93-1.6-1.59-2.82l4.48-16.16Z"/><path class="ab" d="M343.16,262.15l3.21,3.27-11.96,11.75c-.9.89-2.35.87-3.24-.03-.89-.9-.87-2.35.03-3.24l11.96-11.75Z"/><path class="ab" d="M363.38,295.48l1.15,4.43-16.23,4.2c-1.22.32-2.47-.42-2.79-1.64-.32-1.22.42-2.47,1.64-2.79l16.23-4.2Z"/><path class="ab" d="M364.22,334.45l-1.22,4.41-16.16-4.48c-1.22-.34-1.93-1.6-1.6-2.82.34-1.22,1.6-1.93,2.82-1.6l16.16,4.48Z"/><path class="ab" d="M345.46,368.62l-3.27,3.21-11.75-11.96c-.89-.9-.87-2.35.03-3.24.9-.89,2.35-.87,3.24.03l11.75,11.96Z"/><path class="ab" d="M312.13,388.84l-4.43,1.15-4.2-16.23c-.32-1.22.42-2.47,1.64-2.79,1.22-.32,2.47.42,2.79,1.64l4.2,16.23Z"/><path class="ab" d="M273.16,389.69l-4.41-1.22,4.48-16.16c.34-1.22,1.6-1.93,2.82-1.6,1.22.34,1.93,1.6,1.6,2.82l-4.48,16.16Z"/><path class="ab" d="M238.99,370.93l-3.21-3.27,11.96-11.75c.9-.89,2.35-.87,3.24.03.89.9.87,2.35-.03,3.24l-11.96,11.75Z"/><path class="ab" d="M218.77,337.6l-1.15-4.43,16.23-4.2c1.22-.32,2.47.42,2.79,1.64.32,1.23-.42,2.47-1.64,2.79l-16.23,4.2Z"/><path class="ab" d="M217.92,298.63l1.22-4.41,16.16,4.48c1.22.34,1.93,1.6,1.59,2.82-.34,1.22-1.6,1.93-2.82,1.6l-16.16-4.48Z"/><path class="ab" d="M236.68,264.45l3.27-3.21,11.75,11.96c.89.9.87,2.35-.03,3.24-.9.89-2.35.87-3.24-.03l-11.75-11.96Z"/><path class="ab" d="M270.01,244.23l4.43-1.15,4.2,16.23c.32,1.22-.42,2.47-1.64,2.79-1.22.32-2.47-.42-2.79-1.64l-4.2-16.23Z"/><path class="ab" d="M310.18,243.72l2.15.6-4.49,16.17c-.17.59-.78.94-1.38.78-.59-.16-.94-.78-.78-1.38l4.49-16.17Z"/><path class="ab" d="M344.01,262.98l1.57,1.59-11.97,11.76c-.44.43-1.15.43-1.58-.01-.43-.44-.43-1.15.01-1.58l11.97-11.76Z"/><path class="ab" d="M363.68,296.57l.56,2.16-16.25,4.2c-.6.15-1.21-.2-1.36-.8-.16-.6.2-1.21.8-1.36l16.25-4.2Z"/><path class="ab" d="M363.92,335.5l-.6,2.15-16.17-4.49c-.6-.17-.94-.78-.78-1.38.17-.6.78-.94,1.38-.78l16.17,4.49Z"/><path class="ab" d="M344.66,369.32l-1.59,1.57-11.76-11.97c-.43-.44-.43-1.15.01-1.58.44-.43,1.15-.43,1.58.01l11.76,11.97Z"/><path class="ab" d="M311.07,388.99l-2.16.56-4.2-16.25c-.15-.6.2-1.21.8-1.36.6-.15,1.21.21,1.36.8l4.2,16.25Z"/><path class="ab" d="M272.14,389.23l-2.15-.6,4.49-16.17c.17-.6.78-.94,1.38-.78.6.16.94.78.78,1.38l-4.49,16.17Z"/><path class="ab" d="M238.32,369.97l-1.57-1.59,11.97-11.76c.44-.43,1.15-.43,1.58.01.43.44.43,1.15-.01,1.58l-11.97,11.76Z"/><path class="ab" d="M218.65,336.38l-.56-2.16,16.25-4.2c.6-.15,1.21.21,1.36.8.15.6-.21,1.21-.8,1.36l-16.25,4.2Z"/><path class="ab" d="M218.41,297.46l.6-2.15,16.17,4.49c.6.16.94.78.78,1.38-.16.59-.78.94-1.38.78l-16.17-4.49Z"/><path class="ab" d="M237.67,263.63l1.59-1.57,11.76,11.97c.43.44.43,1.15-.01,1.58-.44.43-1.15.43-1.58-.01l-11.76-11.97Z"/><path class="ab" d="M271.26,243.96l2.16-.56,4.2,16.25c.15.6-.2,1.21-.8,1.36-.6.15-1.21-.2-1.36-.8l-4.2-16.25Z"/><g id="g"><path class="ab" d="M288.53,248.29h5.94v16.48c0,1.64-1.33,2.97-2.97,2.97h0c-1.64,0-2.97-1.33-2.97-2.97v-16.48Z"/></g><g id="h"><path class="ab" d="M290.18,246.67h2.7v18.1c0,.75-.6,1.35-1.35,1.35h0c-.75,0-1.35-.6-1.35-1.35v-18.1Z"/></g><circle class="s" cx="290.45" cy="316.37" r="71.74"/><path class="p" d="M227.95,273.49c-8.51,12.26-13.36,26.82-13.36,42.88,0,41.9,33.96,75.86,75.86,75.86s75.86-33.96,75.86-75.86c0-13.61-3.59-26.39-9.87-37.43"/><path class="p" d="M253.02,250.57c5.64-3.27,11.27-5.72,17.56-7.42"/><path class="p" d="M312.47,243.84c7.47,2.32,14.43,5.8,20.78,10.19"/><path class="ab" d="M298.73,315.23c-1.48,2.42-3.3,4.55-5.47,6.38-2.16,1.84-3.67,2.5-4.53,2-.86-.51-.84-2.02.07-4.56.91-2.53,2.27-4.95,4.08-7.25l29.49-38.27c1.08-1.39,1.84-1.95,2.28-1.69s.21,1.13-.7,2.62l-25.22,40.77Z"/><path class="ab" d="M297.38,316.25c-1.17,1.9-2.82,3.5-4.58,5.02-1.77,1.53-2.99,2.11-3.62,1.67-.64-.43-.34-1.97.34-3.91.68-1.93,1.66-4.18,3.11-6.02l29.73-38.74c.87-1.11,1.65-2.1,1.97-1.91.32.18-.14.89-.71,1.78-.13.2-.26.41-.39.62l-25.85,41.49Z"/><path class="ab" d="M297.38,316.25c-1.17,1.9-2.82,3.5-4.58,5.02-1.77,1.53-2.99,2.11-3.62,1.67-.64-.43-.34-1.97.34-3.91.68-1.93,1.66-4.18,3.11-6.02l29.73-38.74c.87-1.11,1.65-2.1,1.97-1.91.32.18-.14.89-.71,1.78-.13.2-.26.41-.39.62l-25.85,41.49Z"/><path class="aa" d="M324.85,271.49c.23.13.36.35.4.59.04.23.01.47-.05.72-.1.37-.3.82-.58,1.34l-.32.54h0s-25.22,40.77-25.22,40.77c-1.41,2.31-3.13,4.35-5.14,6.13l-.41.35c-1.09.93-2.04,1.58-2.85,1.94-.8.35-1.55.45-2.15.1-.62-.36-.85-1.06-.83-1.88.01-.83.26-1.89.72-3.17.92-2.58,2.31-5.03,4.14-7.37l29.49-38.27h0c.55-.7,1.03-1.23,1.46-1.54.4-.29.9-.52,1.36-.25Z"/><path class="x" d="M628.03,370.54h-156.48c-26.7-46.35-2.3-124.96,78.9-124.96s101.69,76.76,77.58,124.96Z"/><path class="w" d="M628.03,370.54h-156.48c-26.7-46.35-2.3-124.96,78.9-124.96s101.69,76.76,77.58,124.96Z"/><path class="x" d="M549.71,267.53v-17.5M560.45,268l1.8-16.72M571.22,270.82l5.32-16.32M582.02,275.53l7.92-15.03M590.72,282.34l9.99-12.92M600.4,291.26l10.59-12.16M607.73,300.95l12.21-10.71M614.38,311.36l12.65-8.83M619.16,322.54l14.73-5.14M620.78,334.3l16.91-2.22M537.51,268.26l-1.65-16.72M526.28,271.51l-4.14-17.22M516.9,276.73l-7.32-16.13M507.61,283.24l-10.98-13.19M498.67,291.7l-11.74-11.72M491.49,301.37l-13.91-10.19M484.19,311.9l-13.36-8.05M480.99,323.18l-16.39-3.86M478.22,335.32l-17.03-.19"/><path class="o" d="M549.71,267.81v-21.49M560.45,268.28l2.45-19.74M571.22,271.09l6.26-19.22M582.02,275.78l10.42-19.48M590.72,282.55l14.44-18.51M600.4,291.44l15.05-17.67M607.73,301.09l16.61-14.72M614.38,311.45l15.9-10.99M619.16,322.6l14.73-5.12M620.78,334.31l16.91-2.21M537.51,268.54l-1.91-20.74M526.28,271.77l-4.89-20.65M516.9,276.97l-9.29-19.94M507.61,283.46l-13.05-16.37M498.67,291.88l-14.49-14.91M491.49,301.51l-16.95-12.54M484.19,312l-16.33-10.05M480.99,323.23l-16.39-3.85M478.22,335.32l-17.03-.19"/><path class="x" d="M628.03,370.54h-156.48c-26.7-46.35-2.3-124.96,78.9-124.96s101.69,76.76,77.58,124.96Z"/><path class="ab" d="M553.98,337.58c-.93,3.82-3.56,6.8-7.89,8.96-4.32,2.16-8.43,2.43-12.32.81-3.89-1.62-6.47-4.66-7.74-9.1-1.26-4.44-.75-8.33,1.53-11.68l35.84-56.02c1.34-2.02,3.01-2.61,5.01-1.77,2.01.84,2.73,2.42,2.16,4.76l-16.59,64.04Z"/><path class="ab" d="M550.62,335.68c-.71,2.82-2.68,5.03-5.92,6.64-3.23,1.61-6.3,1.83-9.2.65-2.9-1.18-4.81-3.4-5.73-6.67s-.53-6.14,1.19-8.61l33.31-54.5c1.01-1.49,1.92-2.83,3.28-2.21,1.59.73.76,2.13.33,3.86l-17.25,60.84Z"/><path class="y" d="M715.11,255.87c-47.71,56.97,29.32,105.53,33.93,82.94"/><path class="u" d="M715.11,255.87c-47.71,56.97,29.32,105.97,33.93,83.37"/><path class="ab" d="M739.75,257.89c-3.53-8.34-8.27-15.92-14.22-22.72-5.94-6.81-10.39-9.63-13.35-8.44-2.96,1.19-3.6,5.99-1.94,14.4,1.67,8.41,4.81,16.68,9.43,24.8l74.87,134.63c2.74,4.88,4.88,7.01,6.4,6.4,1.52-.61,1.21-3.47-.95-8.58l-60.24-140.49Z"/><path class="ab" d="M735.99,254.04c-2.79-6.55-7.22-12.36-12.08-17.99-4.85-5.65-8.42-8.05-10.64-6.98-2.22,1.07-1.99,6.07-.77,12.49,1.23,6.42,3.25,13.97,6.96,20.46l75.4,136.23c2.2,3.89,4.2,7.39,5.32,6.96,1.08-.41-.02-2.87-1.39-5.94-.31-.69-.63-1.41-.94-2.15l-61.87-143.06Z"/><path class="ab" d="M735.99,254.04c-2.79-6.55-7.22-12.36-12.08-17.99-4.85-5.65-8.42-8.05-10.64-6.98-2.22,1.07-1.99,6.07-.77,12.49,1.23,6.42,3.25,13.97,6.96,20.46l75.4,136.23c2.2,3.89,4.2,7.39,5.32,6.96,1.08-.41-.02-2.87-1.39-5.94-.31-.69-.63-1.41-.94-2.15l-61.87-143.06Z"/><path class="ab" d="M726.46,246.65c-.26-.91-2.1-3.35-3.06-4.34,0,0-3.41-3.71-4.36-3.23-.95.48-.36,5.51-.36,5.51.17,1.37.74,4,1.49,5.1l8.99,12.66c.35.46.88,1.02,1.37.77.49-.25.55-1.09.39-1.65l-4.45-14.82Z"/><path class="t" d="M801.43,408.17c.78-.31,1.29-.92,1.55-1.67.24-.69.26-1.49.17-2.3-.16-1.42-.7-3.23-1.56-5.4l-.39-.95h0s-60.23-140.49-60.23-140.49l-.34-.79c-3.55-8.16-8.25-15.59-14.1-22.28-3.01-3.44-5.7-5.96-8.08-7.46-2.35-1.49-4.68-2.16-6.74-1.33-2.12.85-3.16,2.93-3.51,5.53-.35,2.61-.07,6.08.78,10.34,1.7,8.56,4.89,16.96,9.58,25.19l74.86,134.62h0c1.39,2.48,2.68,4.35,3.87,5.55,1.11,1.11,2.59,2.06,4.16,1.43Z"/><path class="y" d="M727.15,251.25s31.9,8.77,40.57,25.31c34.29,65.46,75.22,11.15,104.91,67.49"/><path class="u" d="M727.15,251.1s31.9,8.77,40.57,25.31c34.29,65.46,75.22,11.15,104.91,67.49"/><path class="q" d="M1084.88,339.16c18.95,0,34.34-17.41,34.34-38.87s-14.08-37.16-31.94-38.56c-2.3-13.21-8.59-25.15-17.82-33.7-9.21-8.59-20.75-13.25-32.66-13.25-19.85,0-37.1,12.75-45.68,31.41-10.1,1.24-19.44,6.65-26.2,15.2-6.8,8.55-10.54,19.63-10.54,31.13,0,25.73,18.48,46.64,41.21,46.64h80.16v24.84h10.03l-20.33,28.76-20.33-28.76h10.02v-11.66c0-2.14-1.51-3.89-3.43-3.89s-3.43,1.75-3.43,3.89v3.89h-5.95c-2.12,0-4.05,1.36-4.97,3.54-.93,2.22-.69,4.74.65,6.65l23.14,32.69c2.1,2.99,6.53,2.99,8.62,0l23.12-32.69c1.34-1.9,1.61-4.43.68-6.65-.92-2.18-2.85-3.54-4.98-3.54h-5.97v-17.06h2.27ZM995.58,323.61c-15.18,0-27.47-13.92-27.47-31.1,0-15.94,10.51-29.23,24.45-30.86l7.35-.85,3.44-7.39c3.16-6.96,7.96-12.79,13.84-16.87,5.9-4.08,12.7-6.22,19.61-6.22,17.99,0,33.51,14.46,37.02,34.44l2.06,11.66,10.51.85c5.15.39,9.99,2.99,13.53,7.27,3.57,4.24,5.53,9.87,5.56,15.74,0,12.83-9.27,23.32-20.6,23.32h-89.3Z"/><path class="z" d="M1105.48,300.29c0,12.83-9.27,23.32-20.6,23.32h-89.29c-15.18,0-27.47-13.91-27.47-31.09,0-15.94,10.51-29.23,24.45-30.86l7.35-.86,3.44-7.38c3.16-6.96,7.97-12.79,13.84-16.87,5.91-4.08,12.7-6.22,19.61-6.22,17.99,0,33.52,14.46,37.02,34.44l2.06,11.66,10.51.86c5.15.39,9.99,2.99,13.53,7.27,3.57,4.24,5.53,9.87,5.56,15.74Z"/><path class="ab" d="M1014.63,279.34c.69-.74,1.44-1.28,2.23-1.59.83-.31,1.69-.51,2.61-.51.79,0,1.58.16,2.3.43.69.27,1.38.62,2,1.01.58.43,1.13.82,1.61,1.24.48.43.86.78,1.17,1.09h.75v-6.88c-.48-.23-.99-.51-1.61-.82-.62-.31-1.27-.58-2.03-.82-.72-.19-1.51-.39-2.33-.51-.86-.12-1.82-.19-2.85-.19-1.89,0-3.64.35-5.26,1.01-1.61.7-2.95,1.67-4.05,2.92-1.1,1.24-1.99,2.88-2.57,4.66-.59,1.83-.9,3.89-.9,6.1,0,2.41.31,4.55.93,6.37.65,1.83,1.51,3.34,2.64,4.59,1.14,1.21,2.48,2.14,4.06,2.76,1.54.62,3.26.93,5.11.93,1.27,0,2.27-.08,2.96-.19.72-.16,1.47-.35,2.3-.62.62-.19,1.23-.43,1.78-.7.59-.31,1.17-.58,1.82-.89v-6.76h-.68c-.31.31-.69.66-1.17,1.09-.45.39-.96.78-1.51,1.17-.65.43-1.34.82-2.13,1.05-.76.27-1.55.43-2.3.43-.83,0-1.65-.16-2.51-.47-.82-.31-1.58-.78-2.27-1.48-.68-.7-1.23-1.63-1.68-2.8-.41-1.2-.65-2.68-.65-4.43s.21-3.15.62-4.32c.41-1.2.92-2.14,1.61-2.88Z"/><path class="ab" d="M1052.86,275.72c-2.27-2.64-5.43-3.96-9.45-3.96s-7.14,1.32-9.41,3.96c-2.3,2.64-3.43,6.22-3.43,10.77s1.13,8.08,3.43,10.73c2.27,2.64,5.43,3.96,9.41,3.96s7.18-1.32,9.48-3.96c2.27-2.64,3.4-6.22,3.4-10.73s-1.13-8.12-3.43-10.77ZM1049.15,290.57c-.28,1.2-.76,2.21-1.38,3.07-.55.74-1.2,1.32-1.95,1.67-.76.35-1.55.54-2.37.54s-1.62-.19-2.37-.54c-.76-.35-1.41-.89-1.96-1.63-.55-.74-1-1.71-1.34-2.91-.34-1.17-.52-2.6-.52-4.28s.18-3.11.52-4.35c.34-1.24.82-2.22,1.37-2.92.62-.78,1.27-1.32,1.99-1.63.73-.35,1.48-.5,2.31-.5s1.58.15,2.33.5c.72.35,1.37.89,1.96,1.67.55.74.99,1.67,1.34,2.88.38,1.17.55,2.64.55,4.31s-.17,2.95-.48,4.12Z"/><path class="ab" d="M1064.91,304.41c.41-.31.89-.7,1.44-1.17.55-.43,1.03-.86,1.41-1.24,1.34-1.32,2.2-2.45,2.58-3.38.41-.93.58-1.94.58-2.95,0-1.79-.55-3.11-1.68-4.04-1.14-.93-2.72-1.4-4.78-1.4-1.06,0-2.16.12-3.22.35-1.07.27-1.96.51-2.68.82v4.51h.37c.62-.43,1.31-.78,2.07-1.09.79-.27,1.47-.43,2.12-.43.86,0,1.55.19,2,.58.44.39.68.97.68,1.71,0,.7-.17,1.36-.48,2.02-.27.7-1.06,1.55-2.33,2.68-.59.51-1.27,1.09-2.13,1.67-.83.62-1.65,1.17-2.41,1.71v3.58h13.54v-3.92h-7.08Z"/><rect class="n" x="1256.21" y="215.61" width="43.54" height="41.56" rx="12.37" ry="12.37"/><rect class="ab" x="1210.61" y="243.37" width="37.47" height="43.21" rx="13.19" ry="13.19" transform="translate(138.51 890.74) rotate(-42)"/><rect class="r" x="1211.43" y="244.2" width="35.82" height="41.56" rx="12.37" ry="12.37" transform="translate(138.51 890.74) rotate(-42)"/><circle class="ab" cx="1276.75" cy="316.29" r="67.86"/><path class="ab" d="M1276.83,318.12v-65.08c35.2,0,63.74,28.54,63.74,63.74l-63.74,1.34Z"/><path class="ab" d="M1259.53,389.69l-4.41-1.22,4.48-16.16c.34-1.22,1.6-1.93,2.82-1.6,1.22.34,1.93,1.6,1.6,2.82l-4.49,16.16Z"/><path class="ab" d="M1225.36,370.93l-3.21-3.27,11.96-11.75c.9-.89,2.35-.87,3.24.03.88.9.87,2.35-.03,3.24l-11.96,11.75Z"/><path class="ab" d="M1205.14,337.6l-1.14-4.43,16.23-4.2c1.22-.32,2.47.42,2.79,1.64.31,1.23-.42,2.47-1.65,2.79l-16.23,4.2Z"/><path class="ab" d="M1204.3,298.63l1.22-4.41,16.16,4.48c1.22.34,1.93,1.6,1.59,2.82-.33,1.22-1.6,1.93-2.82,1.6l-16.15-4.48Z"/><path class="ab" d="M1223.05,264.45l3.27-3.21,11.75,11.96c.89.9.88,2.35-.03,3.24-.9.89-2.35.87-3.23-.03l-11.76-11.96Z"/><path class="ab" d="M1256.38,244.23l4.44-1.15,4.2,16.23c.31,1.22-.42,2.47-1.65,2.79-1.22.32-2.47-.42-2.79-1.64l-4.2-16.23Z"/><path class="ab" d="M1258.52,389.23l-2.15-.6,4.48-16.17c.17-.6.78-.94,1.38-.78.59.16.94.78.78,1.38l-4.49,16.17Z"/><path class="ab" d="M1224.69,369.97l-1.57-1.59,11.98-11.76c.44-.43,1.14-.43,1.58.01.43.44.42,1.15-.02,1.58l-11.97,11.76Z"/><path class="ab" d="M1205.02,336.38l-.56-2.16,16.25-4.2c.6-.15,1.21.21,1.37.8.15.6-.21,1.21-.81,1.36l-16.25,4.2Z"/><path class="ab" d="M1204.79,297.46l.59-2.15,16.18,4.49c.59.16.94.78.78,1.38-.17.59-.79.94-1.38.78l-16.17-4.49Z"/><path class="ab" d="M1224.04,263.63l1.6-1.57,11.76,11.97c.43.44.43,1.15-.01,1.58-.44.43-1.15.43-1.58-.01l-11.77-11.97Z"/><path class="ab" d="M1257.63,243.96l2.17-.56,4.2,16.25c.15.6-.21,1.21-.8,1.36-.6.15-1.21-.2-1.36-.8l-4.21-16.25Z"/><g id="i"><path class="ab" d="M1274.9,248.29h5.94v16.48c0,1.64-1.33,2.97-2.97,2.97h0c-1.64,0-2.97-1.33-2.97-2.97v-16.48Z"/></g><g id="j"><path class="ab" d="M1276.56,246.67h2.7v18.1c0,.75-.6,1.35-1.35,1.35h0c-.75,0-1.35-.6-1.35-1.35v-18.1Z"/></g><circle class="s" cx="1276.83" cy="316.37" r="71.74"/><path class="p" d="M1214.33,273.49c-8.52,12.26-13.36,26.82-13.36,42.88,0,41.9,33.96,75.86,75.86,75.86s75.86-33.96,75.86-75.86c0-13.61-3.59-26.39-9.87-37.43"/><path class="p" d="M1239.39,250.57c5.65-3.27,11.27-5.72,17.57-7.42"/><path class="ab" d="M1285.1,315.23c-1.48,2.42-3.31,4.55-5.47,6.38-2.16,1.84-3.67,2.5-4.53,2-.86-.51-.84-2.02.07-4.56.91-2.53,2.27-4.95,4.08-7.25l29.49-38.27c1.07-1.39,1.83-1.95,2.28-1.69.44.26.21,1.13-.7,2.62l-25.22,40.77Z"/><path class="ab" d="M1283.75,316.25c-1.17,1.9-2.81,3.5-4.58,5.02-1.77,1.53-2.99,2.11-3.62,1.67-.64-.43-.34-1.97.34-3.91.68-1.93,1.66-4.18,3.11-6.02l29.73-38.74c.86-1.11,1.65-2.1,1.97-1.91.32.18-.14.89-.7,1.78-.13.2-.26.41-.4.62l-25.85,41.49Z"/><path class="ab" d="M1283.75,316.25c-1.17,1.9-2.81,3.5-4.58,5.02-1.77,1.53-2.99,2.11-3.62,1.67-.64-.43-.34-1.97.34-3.91.68-1.93,1.66-4.18,3.11-6.02l29.73-38.74c.86-1.11,1.65-2.1,1.97-1.91.32.18-.14.89-.7,1.78-.13.2-.26.41-.4.62l-25.85,41.49Z"/><path class="aa" d="M1311.23,271.49c.22.13.35.35.4.59.04.23.01.47-.06.72-.09.37-.29.82-.58,1.34l-.32.54h0s-25.22,40.77-25.22,40.77c-1.41,2.31-3.13,4.35-5.14,6.13l-.41.35c-1.09.93-2.05,1.58-2.86,1.94-.79.35-1.55.45-2.15.1-.62-.36-.85-1.06-.83-1.88,0-.83.26-1.89.72-3.17.92-2.58,2.31-5.03,4.14-7.37l29.49-38.27h0c.55-.7,1.03-1.23,1.46-1.54.4-.29.9-.52,1.36-.25Z"/><path class="y" d="M-24.67,507.26c-47.71,56.97,29.32,105.53,33.93,82.94"/><path class="u" d="M-24.67,507.26c-47.71,56.97,29.32,105.97,33.93,83.37"/><path class="ab" d="M-.03,509.28c-3.53-8.34-8.27-15.92-14.22-22.72-5.94-6.81-10.4-9.63-13.35-8.44s-3.6,5.99-1.94,14.4c1.67,8.41,4.81,16.68,9.43,24.8l74.87,134.63c2.74,4.88,4.88,7.01,6.4,6.4,1.52-.61,1.21-3.47-.95-8.58L-.03,509.28Z"/><path class="ab" d="M-3.79,505.44c-2.79-6.55-7.22-12.36-12.08-18-4.85-5.65-8.42-8.05-10.64-6.98-2.22,1.07-1.99,6.06-.77,12.48s3.25,13.97,6.96,20.46l75.4,136.23c2.2,3.9,4.2,7.39,5.32,6.96,1.08-.41-.02-2.87-1.39-5.94-.31-.69-.63-1.41-.94-2.15L-3.79,505.44Z"/><path class="ab" d="M-3.79,505.44c-2.79-6.55-7.22-12.36-12.08-18-4.85-5.65-8.42-8.05-10.64-6.98-2.22,1.07-1.99,6.06-.77,12.48s3.25,13.97,6.96,20.46l75.4,136.23c2.2,3.9,4.2,7.39,5.32,6.96,1.08-.41-.02-2.87-1.39-5.94-.31-.69-.63-1.41-.94-2.15L-3.79,505.44Z"/><path class="t" d="M61.65,659.57c.78-.31,1.29-.92,1.55-1.67.24-.69.26-1.49.17-2.3-.16-1.42-.7-3.23-1.56-5.4l-.39-.95h0S1.18,508.77,1.18,508.77l-.34-.79c-3.55-8.16-8.25-15.59-14.1-22.28-3-3.44-5.7-5.96-8.08-7.46-2.35-1.48-4.68-2.16-6.75-1.33-2.12.85-3.16,2.93-3.51,5.53-.35,2.61-.06,6.08.78,10.34,1.7,8.56,4.89,16.96,9.58,25.19l74.86,134.62h0c1.39,2.48,2.68,4.35,3.87,5.55,1.11,1.11,2.59,2.06,4.16,1.43Z"/><path class="y" d="M-12.63,502.64s31.9,8.77,40.57,25.31c34.29,65.46,75.21,11.15,104.91,67.49"/><path class="u" d="M-12.63,502.49s31.9,8.77,40.57,25.31c34.29,65.46,75.21,11.15,104.91,67.48"/><path class="q" d="M345.1,590.55c18.96,0,34.34-17.41,34.34-38.87s-14.08-37.16-31.94-38.56c-2.3-13.22-8.58-25.15-17.82-33.7-9.2-8.59-20.74-13.25-32.66-13.25-19.85,0-37.09,12.75-45.68,31.4-10.1,1.24-19.44,6.65-26.2,15.2-6.8,8.55-10.54,19.63-10.54,31.13,0,25.73,18.48,46.64,41.21,46.64h80.16v24.84h10.03l-20.33,28.76-20.33-28.76h10.03v-11.66c0-2.14-1.51-3.89-3.43-3.89s-3.43,1.75-3.43,3.89v3.89h-5.94c-2.13,0-4.05,1.36-4.98,3.54-.93,2.21-.69,4.74.65,6.65l23.15,32.69c2.1,2.99,6.53,2.99,8.62,0l23.11-32.69c1.34-1.91,1.61-4.43.69-6.65-.93-2.18-2.85-3.54-4.98-3.54h-5.97v-17.06h2.27ZM255.8,575.01c-15.18,0-27.47-13.91-27.47-31.09,0-15.94,10.51-29.23,24.45-30.86l7.35-.85,3.43-7.39c3.16-6.96,7.97-12.79,13.84-16.87,5.91-4.08,12.71-6.22,19.61-6.22,18,0,33.52,14.46,37.02,34.44l2.06,11.66,10.51.85c5.15.39,9.99,2.99,13.53,7.27,3.57,4.24,5.53,9.87,5.56,15.74,0,12.83-9.27,23.32-20.61,23.32h-89.29Z"/><path class="z" d="M365.7,551.68c0,12.83-9.27,23.32-20.61,23.32h-89.29c-15.18,0-27.47-13.91-27.47-31.09,0-15.94,10.51-29.23,24.45-30.86l7.35-.85,3.43-7.39c3.16-6.96,7.97-12.79,13.84-16.87,5.91-4.08,12.71-6.22,19.61-6.22,17.99,0,33.52,14.46,37.02,34.44l2.06,11.66,10.51.85c5.15.39,9.99,2.99,13.53,7.27,3.57,4.24,5.53,9.87,5.56,15.74Z"/><path class="ab" d="M274.85,530.73c.69-.74,1.44-1.28,2.23-1.59.82-.31,1.68-.51,2.61-.51.79,0,1.58.15,2.3.43.69.27,1.37.62,1.99,1.01.58.43,1.13.82,1.61,1.24.48.43.86.78,1.17,1.09h.76v-6.88c-.48-.23-.99-.51-1.61-.82-.62-.31-1.27-.58-2.03-.82-.72-.19-1.51-.39-2.33-.51-.86-.12-1.82-.2-2.85-.2-1.89,0-3.64.35-5.25,1.01-1.61.7-2.95,1.67-4.05,2.92-1.1,1.24-1.99,2.88-2.58,4.66-.58,1.83-.89,3.89-.89,6.1,0,2.41.31,4.55.93,6.37.65,1.83,1.51,3.34,2.64,4.59,1.13,1.21,2.47,2.14,4.05,2.76,1.55.62,3.26.93,5.12.93,1.27,0,2.27-.08,2.95-.19.72-.16,1.48-.35,2.3-.62.62-.2,1.24-.43,1.79-.7.58-.31,1.17-.58,1.82-.89v-6.76h-.69c-.31.31-.69.66-1.17,1.09-.45.39-.96.78-1.51,1.17-.65.43-1.34.82-2.13,1.05-.76.27-1.55.43-2.3.43-.82,0-1.65-.15-2.51-.47-.83-.31-1.58-.78-2.27-1.48-.69-.7-1.24-1.63-1.68-2.8-.41-1.2-.65-2.68-.65-4.43s.21-3.15.62-4.31c.41-1.2.93-2.14,1.61-2.88Z"/><path class="ab" d="M313.08,527.11c-2.27-2.64-5.43-3.96-9.44-3.96s-7.14,1.32-9.41,3.96c-2.3,2.64-3.43,6.22-3.43,10.77s1.13,8.09,3.43,10.73c2.27,2.64,5.43,3.96,9.41,3.96s7.18-1.32,9.48-3.96c2.27-2.64,3.4-6.22,3.4-10.73s-1.13-8.12-3.43-10.77ZM309.37,541.96c-.27,1.2-.76,2.21-1.37,3.07-.55.74-1.2,1.32-1.96,1.67-.76.35-1.55.55-2.37.55s-1.61-.2-2.37-.55c-.76-.35-1.41-.89-1.96-1.63-.55-.74-1-1.71-1.34-2.92-.34-1.17-.52-2.6-.52-4.28s.17-3.11.52-4.35c.34-1.24.82-2.22,1.37-2.92.62-.78,1.27-1.32,1.99-1.63.72-.35,1.48-.51,2.3-.51s1.58.16,2.33.51c.72.35,1.37.89,1.96,1.67.55.74,1,1.67,1.34,2.88.38,1.17.55,2.64.55,4.32s-.17,2.95-.48,4.12Z"/><path class="ab" d="M325.13,555.8c.41-.31.89-.7,1.44-1.17.55-.43,1.03-.85,1.41-1.24,1.34-1.32,2.2-2.45,2.58-3.38.41-.93.58-1.94.58-2.95,0-1.79-.55-3.11-1.68-4.04-1.13-.93-2.71-1.4-4.77-1.4-1.07,0-2.16.12-3.23.35-1.07.27-1.96.51-2.68.82v4.51h.38c.62-.43,1.3-.78,2.06-1.09.79-.27,1.48-.43,2.13-.43.86,0,1.55.2,1.99.58.45.39.69.97.69,1.71,0,.7-.17,1.36-.48,2.02-.27.7-1.06,1.55-2.33,2.68-.58.51-1.27,1.09-2.13,1.67-.82.62-1.65,1.17-2.4,1.71v3.58h13.53v-3.93h-7.07Z"/><rect class="n" x="516.43" y="467" width="43.54" height="41.56" rx="12.37" ry="12.37"/><rect class="v" x="568.61" y="501.7" width="41.56" height="35.82" rx="12.37" ry="12.37" transform="translate(-196.32 525.15) rotate(-41.8)"/><rect class="ab" x="470.83" y="494.77" width="37.47" height="43.21" rx="13.19" ry="13.19" transform="translate(-219.77 460.27) rotate(-42)"/><rect class="r" x="471.66" y="495.59" width="35.82" height="41.56" rx="12.37" ry="12.37" transform="translate(-219.77 460.27) rotate(-42)"/><circle class="ab" cx="536.97" cy="567.68" r="67.86"/><path class="ab" d="M537.05,569.51v-65.08c35.2,0,63.74,28.54,63.74,63.74l-63.74,1.34Z"/><path class="ab" d="M555.58,494.78l4.41,1.22-4.48,16.16c-.34,1.22-1.6,1.93-2.82,1.59s-1.93-1.6-1.59-2.82l4.48-16.16Z"/><path class="ab" d="M589.75,513.54l3.21,3.27-11.96,11.75c-.9.89-2.35.87-3.24-.03-.89-.9-.87-2.35.03-3.24l11.96-11.75Z"/><path class="ab" d="M609.97,546.87l1.15,4.43-16.23,4.2c-1.22.32-2.47-.42-2.79-1.64-.32-1.22.42-2.47,1.64-2.79l16.23-4.2Z"/><path class="ab" d="M610.81,585.84l-1.22,4.41-16.16-4.48c-1.22-.34-1.93-1.6-1.6-2.82.34-1.22,1.6-1.93,2.82-1.59l16.16,4.48Z"/><path class="ab" d="M592.06,620.02l-3.27,3.21-11.75-11.96c-.89-.9-.87-2.35.03-3.24.9-.89,2.35-.87,3.24.03l11.75,11.96Z"/><path class="ab" d="M558.73,640.23l-4.43,1.15-4.2-16.23c-.32-1.23.42-2.47,1.64-2.79,1.22-.32,2.47.42,2.79,1.64l4.2,16.23Z"/><path class="ab" d="M519.75,641.08l-4.41-1.22,4.48-16.16c.34-1.22,1.6-1.93,2.82-1.59,1.22.34,1.93,1.6,1.59,2.82l-4.48,16.16Z"/><path class="ab" d="M485.58,622.32l-3.21-3.27,11.96-11.75c.9-.89,2.35-.87,3.24.03.89.9.87,2.35-.03,3.24l-11.96,11.75Z"/><path class="ab" d="M465.36,588.99l-1.15-4.43,16.23-4.2c1.23-.32,2.47.42,2.79,1.64.32,1.22-.42,2.47-1.64,2.79l-16.23,4.2Z"/><path class="ab" d="M464.52,550.02l1.22-4.41,16.16,4.48c1.22.34,1.93,1.6,1.59,2.82-.34,1.22-1.6,1.93-2.82,1.59l-16.16-4.48Z"/><path class="ab" d="M483.27,515.84l3.27-3.21,11.75,11.96c.89.9.87,2.35-.03,3.24-.9.89-2.35.87-3.24-.03l-11.75-11.96Z"/><path class="ab" d="M516.6,495.63l4.43-1.15,4.2,16.23c.32,1.23-.42,2.47-1.64,2.79-1.22.32-2.47-.42-2.79-1.64l-4.2-16.23Z"/><path class="ab" d="M556.78,495.11l2.15.6-4.49,16.17c-.16.6-.78.94-1.38.78-.59-.16-.94-.78-.78-1.38l4.49-16.17Z"/><path class="ab" d="M590.6,514.37l1.57,1.59-11.97,11.76c-.44.43-1.15.43-1.58-.01-.43-.44-.43-1.15.01-1.58l11.97-11.77Z"/><path class="ab" d="M610.27,547.96l.56,2.16-16.25,4.2c-.6.15-1.21-.21-1.36-.8-.15-.6.21-1.21.8-1.36l16.25-4.2Z"/><path class="ab" d="M610.51,586.89l-.6,2.15-16.18-4.49c-.59-.17-.94-.78-.78-1.38.16-.59.78-.94,1.38-.78l16.17,4.49Z"/><path class="ab" d="M591.25,620.71l-1.59,1.57-11.76-11.97c-.43-.44-.43-1.15.01-1.58.44-.43,1.15-.43,1.58.01l11.76,11.97Z"/><path class="ab" d="M484.91,621.36l-1.57-1.59,11.97-11.76c.44-.43,1.15-.43,1.58.01.43.44.43,1.15-.01,1.58l-11.97,11.76Z"/><path class="ab" d="M465.24,587.77l-.56-2.16,16.25-4.2c.6-.15,1.21.21,1.36.8.15.6-.21,1.21-.8,1.36l-16.25,4.2Z"/><path class="ab" d="M465.01,548.85l.6-2.15,16.18,4.49c.59.16.94.78.78,1.38-.16.59-.78.94-1.38.78l-16.17-4.49Z"/><path class="ab" d="M484.26,515.02l1.59-1.57,11.76,11.97c.43.44.43,1.15-.01,1.58-.44.43-1.15.43-1.58-.01l-11.76-11.97Z"/><path class="ab" d="M517.85,495.35l2.16-.56,4.2,16.25c.15.6-.21,1.21-.8,1.36-.6.15-1.21-.21-1.36-.8l-4.2-16.25Z"/><g id="k"><path class="ab" d="M535.12,499.68h5.95v16.48c0,1.64-1.33,2.97-2.97,2.97h0c-1.64,0-2.97-1.33-2.97-2.97v-16.48Z"/></g><g id="l"><path class="ab" d="M536.78,498.06h2.7v18.1c0,.75-.6,1.35-1.35,1.35h0c-.75,0-1.35-.61-1.35-1.35v-18.1Z"/></g><circle class="s" cx="537.05" cy="567.76" r="71.74"/><path class="p" d="M474.55,524.89c-8.51,12.26-13.36,26.82-13.36,42.88,0,41.9,33.96,75.86,75.86,75.86s75.86-33.96,75.86-75.86c0-13.61-3.59-26.39-9.86-37.43"/><path class="p" d="M499.61,501.96c5.64-3.27,11.27-5.72,17.56-7.42"/><path class="p" d="M559.06,495.23c7.47,2.33,14.43,5.8,20.78,10.19"/><path class="ab" d="M545.32,566.62c-1.48,2.42-3.31,4.55-5.47,6.38-2.16,1.84-3.67,2.5-4.53,1.99-.86-.51-.84-2.03.07-4.56.91-2.53,2.27-4.95,4.08-7.25l29.49-38.27c1.08-1.39,1.84-1.95,2.28-1.69.44.26.21,1.13-.7,2.62l-25.22,40.77Z"/><path class="ab" d="M543.97,567.64c-1.17,1.9-2.82,3.5-4.58,5.02-1.77,1.53-2.99,2.11-3.63,1.67-.64-.44-.34-1.97.34-3.91.68-1.93,1.66-4.18,3.11-6.02l29.73-38.74c.87-1.11,1.65-2.1,1.97-1.91.32.18-.14.89-.71,1.78-.13.2-.26.41-.39.62l-25.85,41.49Z"/><path class="ab" d="M543.97,567.64c-1.17,1.9-2.82,3.5-4.58,5.02-1.77,1.53-2.99,2.11-3.63,1.67-.64-.44-.34-1.97.34-3.91.68-1.93,1.66-4.18,3.11-6.02l29.73-38.74c.87-1.11,1.65-2.1,1.97-1.91.32.18-.14.89-.71,1.78-.13.2-.26.41-.39.62l-25.85,41.49Z"/><path class="aa" d="M571.45,522.88c.23.13.36.35.4.59.04.23.01.47-.05.72-.1.37-.3.82-.59,1.34l-.32.54h0s-25.22,40.77-25.22,40.77c-1.41,2.31-3.13,4.35-5.14,6.13l-.41.35c-1.09.93-2.04,1.58-2.85,1.94-.8.35-1.55.45-2.15.1-.62-.36-.85-1.06-.83-1.88.01-.83.26-1.89.72-3.17.92-2.58,2.31-5.03,4.14-7.37l29.49-38.27h0c.55-.7,1.03-1.23,1.46-1.54.4-.29.9-.52,1.36-.25Z"/><path class="x" d="M874.63,621.93h-156.48c-26.7-46.35-2.3-124.96,78.9-124.96s101.69,76.76,77.58,124.96Z"/><path class="w" d="M874.63,621.93h-156.48c-26.7-46.35-2.3-124.96,78.9-124.96s101.69,76.76,77.58,124.96Z"/><path class="x" d="M796.3,518.92v-17.5M807.04,519.39l1.8-16.72M817.82,522.21l5.32-16.32M828.61,526.92l7.92-15.04M837.31,533.73l9.99-12.92M846.99,542.65l10.59-12.16M854.33,552.34l12.22-10.71M860.97,562.75l12.65-8.83M865.75,573.93l14.73-5.14M867.37,585.69l16.91-2.22M784.11,519.65l-1.65-16.72M772.87,522.9l-4.14-17.22M763.49,528.12l-7.32-16.13M754.21,534.63l-10.98-13.19M745.26,543.09l-11.73-11.72M738.08,552.76l-13.91-10.19M730.78,563.29l-13.36-8.05M727.58,574.57l-16.39-3.86M724.81,586.71l-17.03-.19"/><path class="o" d="M796.3,519.2v-21.49M807.04,519.67l2.45-19.74M817.82,522.48l6.26-19.22M828.61,527.17l10.43-19.48M837.31,533.95l14.44-18.51M846.99,542.83l15.05-17.67M854.33,552.48l16.61-14.72M860.97,562.84l15.9-10.99M865.75,573.99l14.73-5.12M867.37,585.7l16.91-2.21M784.11,519.93l-1.91-20.74M772.87,523.16l-4.89-20.65M763.49,528.36l-9.29-19.94M754.21,534.85l-13.05-16.37M745.26,543.27l-14.49-14.91M738.08,552.9l-16.95-12.54M730.78,563.39l-16.33-10.05M727.58,574.62l-16.39-3.85M724.81,586.71l-17.03-.19"/><path class="x" d="M874.63,621.93h-156.48c-26.7-46.35-2.3-124.96,78.9-124.96s101.69,76.76,77.58,124.96Z"/><path class="ab" d="M800.58,588.97c-.93,3.82-3.56,6.8-7.89,8.96-4.32,2.16-8.43,2.43-12.32.81-3.89-1.62-6.47-4.66-7.74-9.1-1.26-4.44-.75-8.33,1.53-11.68l35.84-56.02c1.34-2.02,3.01-2.61,5.01-1.77,2.01.84,2.72,2.42,2.16,4.76l-16.59,64.04Z"/><path class="ab" d="M797.21,587.07c-.71,2.82-2.68,5.03-5.92,6.64-3.23,1.61-6.3,1.83-9.2.65-2.9-1.18-4.81-3.4-5.74-6.67-.92-3.27-.53-6.14,1.19-8.61l33.31-54.5c1-1.49,1.92-2.82,3.28-2.21,1.59.73.76,2.13.33,3.86l-17.25,60.84Z"/><path class="y" d="M961.7,507.26c-47.71,56.97,29.32,105.53,33.93,82.94"/><path class="u" d="M961.7,507.26c-47.71,56.97,29.32,105.97,33.93,83.37"/><path class="ab" d="M986.35,509.28c-3.53-8.34-8.27-15.92-14.22-22.72-5.94-6.81-10.4-9.63-13.35-8.44-2.96,1.19-3.6,5.99-1.94,14.4,1.67,8.41,4.81,16.68,9.43,24.8l74.87,134.63c2.74,4.88,4.87,7.01,6.4,6.4,1.52-.61,1.2-3.47-.96-8.58l-60.23-140.49Z"/><path class="ab" d="M982.58,505.44c-2.79-6.55-7.22-12.36-12.08-18-4.85-5.65-8.42-8.05-10.64-6.98-2.22,1.07-1.99,6.06-.76,12.48,1.23,6.42,3.25,13.97,6.96,20.46l75.4,136.23c2.2,3.9,4.19,7.39,5.31,6.96,1.08-.41-.01-2.87-1.38-5.94-.31-.69-.63-1.41-.94-2.15l-61.88-143.07Z"/><path class="ab" d="M982.58,505.44c-2.79-6.55-7.22-12.36-12.08-18-4.85-5.65-8.42-8.05-10.64-6.98-2.22,1.07-1.99,6.06-.76,12.48,1.23,6.42,3.25,13.97,6.96,20.46l75.4,136.23c2.2,3.9,4.19,7.39,5.31,6.96,1.08-.41-.01-2.87-1.38-5.94-.31-.69-.63-1.41-.94-2.15l-61.88-143.07Z"/><path class="ab" d="M973.05,498.05c-.26-.91-2.1-3.35-3.06-4.34,0,0-3.41-3.71-4.36-3.23-.95.48-.36,5.51-.36,5.51.17,1.37.74,4,1.49,5.1l8.99,12.66c.35.47.88,1.02,1.37.77.49-.25.55-1.09.38-1.65l-4.45-14.81Z"/><path class="t" d="M1048.03,659.57c.77-.31,1.28-.92,1.54-1.67.24-.69.26-1.49.17-2.3-.15-1.42-.7-3.23-1.56-5.4l-.39-.95h0s-60.24-140.49-60.24-140.49l-.34-.79c-3.55-8.16-8.24-15.59-14.1-22.28-3-3.44-5.7-5.96-8.08-7.46-2.35-1.48-4.68-2.16-6.74-1.33-2.12.85-3.16,2.93-3.51,5.53-.35,2.61-.06,6.08.78,10.34,1.7,8.56,4.89,16.96,9.58,25.19l74.86,134.62h0c1.39,2.48,2.68,4.35,3.88,5.55,1.11,1.11,2.59,2.06,4.16,1.43Z"/><path class="y" d="M973.74,502.64s31.9,8.77,40.57,25.31c34.29,65.46,75.21,11.15,104.91,67.49"/><path class="u" d="M973.74,502.49s31.9,8.77,40.57,25.31c34.29,65.46,75.21,11.15,104.91,67.48"/><path class="q" d="M1331.47,590.55c18.96,0,34.34-17.41,34.34-38.87s-14.08-37.16-31.94-38.56c-2.3-13.22-8.58-25.15-17.82-33.7-9.2-8.59-20.74-13.25-32.66-13.25-19.85,0-37.09,12.75-45.68,31.4-10.09,1.24-19.43,6.65-26.2,15.2-6.8,8.55-10.54,19.63-10.54,31.13,0,25.73,18.47,46.64,41.21,46.64h80.15v24.84h10.03l-20.33,28.76-20.33-28.76h10.03v-11.66c0-2.14-1.51-3.89-3.44-3.89s-3.43,1.75-3.43,3.89v3.89h-5.94c-2.13,0-4.05,1.36-4.98,3.54-.93,2.21-.69,4.74.65,6.65l23.15,32.69c2.09,2.99,6.52,2.99,8.62,0l23.11-32.69c1.34-1.91,1.62-4.43.69-6.65-.93-2.18-2.85-3.54-4.98-3.54h-5.98v-17.06h2.27ZM1242.18,575.01c-15.18,0-27.48-13.91-27.48-31.09,0-15.94,10.51-29.23,24.46-30.86l7.35-.85,3.43-7.39c3.16-6.96,7.97-12.79,13.84-16.87,5.91-4.08,12.71-6.22,19.61-6.22,18,0,33.52,14.46,37.02,34.44l2.06,11.66,10.51.85c5.15.39,9.99,2.99,13.53,7.27,3.57,4.24,5.53,9.87,5.57,15.74,0,12.83-9.28,23.32-20.61,23.32h-89.29Z"/><path class="z" d="M1352.08,551.68c0,12.83-9.28,23.32-20.61,23.32h-89.29c-15.18,0-27.47-13.91-27.47-31.09,0-15.94,10.5-29.23,24.45-30.86l7.35-.85,3.43-7.39c3.16-6.96,7.97-12.79,13.84-16.87,5.91-4.08,12.71-6.22,19.61-6.22,18,0,33.52,14.46,37.02,34.44l2.06,11.66,10.51.85c5.15.39,10,2.99,13.53,7.27,3.57,4.24,5.53,9.87,5.57,15.74Z"/><path class="ab" d="M1261.22,530.73c.69-.74,1.45-1.28,2.24-1.59.82-.31,1.68-.51,2.61-.51.79,0,1.58.15,2.3.43.68.27,1.37.62,1.99,1.01.58.43,1.13.82,1.61,1.24.48.43.86.78,1.17,1.09h.76v-6.88c-.48-.23-1-.51-1.62-.82-.62-.31-1.27-.58-2.02-.82-.72-.19-1.51-.39-2.34-.51-.86-.12-1.82-.2-2.85-.2-1.89,0-3.64.35-5.25,1.01-1.62.7-2.96,1.67-4.06,2.92-1.09,1.24-1.99,2.88-2.57,4.66-.59,1.83-.89,3.89-.89,6.1,0,2.41.3,4.55.92,6.37.66,1.83,1.51,3.34,2.65,4.59,1.13,1.21,2.47,2.14,4.05,2.76,1.54.62,3.26.93,5.12.93,1.27,0,2.26-.08,2.95-.19.72-.16,1.48-.35,2.3-.62.62-.2,1.24-.43,1.79-.7.58-.31,1.16-.58,1.82-.89v-6.76h-.69c-.31.31-.69.66-1.17,1.09-.44.39-.96.78-1.51,1.17-.65.43-1.34.82-2.13,1.05-.75.27-1.54.43-2.3.43-.82,0-1.65-.15-2.51-.47-.82-.31-1.58-.78-2.26-1.48-.69-.7-1.24-1.63-1.69-2.8-.41-1.2-.65-2.68-.65-4.43s.21-3.15.62-4.31c.41-1.2.93-2.14,1.61-2.88Z"/><path class="ab" d="M1299.45,527.11c-2.27-2.64-5.43-3.96-9.45-3.96s-7.14,1.32-9.41,3.96c-2.3,2.64-3.43,6.22-3.43,10.77s1.13,8.09,3.43,10.73c2.27,2.64,5.43,3.96,9.41,3.96s7.18-1.32,9.48-3.96c2.27-2.64,3.4-6.22,3.4-10.73s-1.13-8.12-3.43-10.77ZM1295.74,541.96c-.27,1.2-.76,2.21-1.37,3.07-.55.74-1.21,1.32-1.96,1.67-.76.35-1.55.55-2.37.55s-1.61-.2-2.37-.55c-.76-.35-1.41-.89-1.96-1.63-.55-.74-.99-1.71-1.34-2.92-.34-1.17-.51-2.6-.51-4.28s.17-3.11.51-4.35c.35-1.24.83-2.22,1.38-2.92.61-.78,1.27-1.32,1.99-1.63.72-.35,1.47-.51,2.3-.51s1.58.16,2.33.51c.73.35,1.38.89,1.96,1.67.55.74,1,1.67,1.34,2.88.38,1.17.55,2.64.55,4.32s-.17,2.95-.48,4.12Z"/></g><rect class="ae" width="1280" height="623"/><path class="ag" d="M231.57,206.8h12.86c6.78,0,12.03,1.44,15.74,4.32,3.78,2.82,5.66,6.78,5.66,11.9,0,3.97-1.18,7.26-3.55,9.89-2.3,2.62-5.66,4.38-10.08,5.28v.58c4.22.83,7.68,2.82,10.37,5.95,2.69,3.14,4.7,7.01,6.05,11.62,1.22,4.22,2.4,7.52,3.55,9.89,1.22,2.3,2.53,3.97,3.94,4.99,1.47,1.02,3.2,1.76,5.18,2.21v.58h-3.94c-2.82,0-5.15-.51-7.01-1.54-1.79-1.02-3.33-2.75-4.61-5.18s-2.5-5.79-3.65-10.08c-1.86-6.59-4.32-11.26-7.39-14.02s-6.82-4.13-11.23-4.13h-.58v-1.73h.58c10.3,0,15.46-4.74,15.46-14.21s-4.83-14.02-14.5-14.02h-6.34v64.9h-6.53v-67.2ZM292.6,274v-67.2h29.28v4.7l-16.8-2.21c-2.94-.38-4.93-.58-5.95-.58v29.28c.83,0,2.82-.1,5.95-.29l15.74-.96v4.42l-15.74-.96c-3.14-.19-5.12-.29-5.95-.29v32.16c1.15,0,3.17-.19,6.05-.58l16.99-2.21v4.7h-29.57ZM357.08,274v-65.28c-.96,0-2.94.19-5.95.58l-18.82,2.4v-4.9h56.06v4.9l-18.82-2.4c-3.01-.38-4.99-.58-5.95-.58v65.28h-6.53ZM403.41,274v-67.2h6.53v31.1h40.32v-31.1h6.53v67.2h-6.53v-33.79h-40.32v33.79h-6.53ZM481.21,274v-67.2h6.53v67.2h-6.53ZM510.71,274l2.4-68.54h1.15l48.29,58.37h.58l-2.11-57.02h6.53l-2.4,68.54h-1.15l-48.29-58.37h-.58l2.11,57.02h-6.53ZM631.99,274l-31.49-34.46,29.18-32.74h8.26l-31.58,30.05,34.27,37.15h-8.64ZM590.52,274v-67.2h6.53v67.2h-6.53ZM679.76,280.53v-80.26h3.07v80.26h-3.07ZM732.53,206.8h12.86c6.78,0,12.03,1.44,15.74,4.32,3.78,2.82,5.66,6.78,5.66,11.9,0,3.97-1.18,7.26-3.55,9.89-2.3,2.62-5.66,4.38-10.08,5.28v.58c4.22.83,7.68,2.82,10.37,5.95,2.69,3.14,4.7,7.01,6.05,11.62,1.22,4.22,2.4,7.52,3.55,9.89,1.22,2.3,2.53,3.97,3.94,4.99,1.47,1.02,3.2,1.76,5.18,2.21v.58h-3.94c-2.82,0-5.15-.51-7.01-1.54-1.79-1.02-3.33-2.75-4.61-5.18-1.28-2.43-2.5-5.79-3.65-10.08-1.86-6.59-4.32-11.26-7.39-14.02-3.07-2.75-6.82-4.13-11.23-4.13h-.58v-1.73h.58c10.3,0,15.46-4.74,15.46-14.21s-4.83-14.02-14.5-14.02h-6.34v64.9h-6.53v-67.2ZM793.56,274v-67.2h29.28v4.7l-16.8-2.21c-2.94-.38-4.93-.58-5.95-.58v29.28c.83,0,2.82-.1,5.95-.29l15.74-.96v4.42l-15.74-.96c-3.14-.19-5.12-.29-5.95-.29v32.16c1.15,0,3.17-.19,6.05-.58l16.99-2.21v4.7h-29.57ZM842.68,274v-67.2h28.22v4.7l-15.94-2.21c-2.88-.38-4.8-.58-5.76-.58v30.05c1.02,0,3.01-.1,5.95-.29l14.69-.96v4.42l-14.69-.96c-2.94-.19-4.93-.29-5.95-.29v33.31h-6.53ZM889.09,274v-67.2h6.53v67.2h-6.53ZM918.58,274l2.4-68.54h1.15l48.29,58.37h.58l-2.11-57.02h6.53l-2.4,68.54h-1.15l-48.29-58.37h-.58l2.11,57.02h-6.53ZM998.39,274v-67.2h29.28v4.7l-16.8-2.21c-2.94-.38-4.93-.58-5.95-.58v29.28c.83,0,2.81-.1,5.95-.29l15.74-.96v4.42l-15.74-.96c-3.14-.19-5.12-.29-5.95-.29v32.16c1.15,0,3.17-.19,6.05-.58l16.99-2.21v4.7h-29.57ZM439.54,350.8h12.86c6.78,0,12.03,1.44,15.74,4.32,3.78,2.82,5.66,6.78,5.66,11.9,0,3.97-1.18,7.26-3.55,9.89-2.3,2.62-5.66,4.38-10.08,5.28v.58c4.22.83,7.68,2.82,10.37,5.95,2.69,3.14,4.7,7.01,6.05,11.62,1.22,4.22,2.4,7.52,3.55,9.89,1.22,2.3,2.53,3.97,3.94,4.99,1.47,1.02,3.2,1.76,5.18,2.21v.58h-3.94c-2.82,0-5.15-.51-7.01-1.54-1.79-1.02-3.33-2.75-4.61-5.18s-2.5-5.79-3.65-10.08c-1.86-6.59-4.32-11.26-7.39-14.02-3.07-2.75-6.82-4.13-11.23-4.13h-.58v-1.73h.58c10.3,0,15.46-4.74,15.46-14.21s-4.83-14.02-14.5-14.02h-6.34v64.9h-6.53v-67.2ZM500.57,418v-67.2h29.28v4.7l-16.8-2.21c-2.94-.38-4.93-.58-5.95-.58v29.28c.83,0,2.82-.1,5.95-.29l15.74-.96v4.42l-15.74-.96c-3.14-.19-5.12-.29-5.95-.29v32.16c1.15,0,3.17-.19,6.05-.58l16.99-2.21v4.7h-29.57ZM543.83,415.89l.58-5.76h.58c2.5,2.18,5.31,3.87,8.45,5.09,3.14,1.22,6.24,1.82,9.31,1.82,4.35,0,7.87-1.18,10.56-3.55,2.69-2.43,4.03-5.66,4.03-9.7,0-2.24-.51-4.32-1.54-6.24-.96-1.92-2.59-3.87-4.9-5.86-2.24-1.98-5.34-4.13-9.31-6.43-2.75-1.6-5.38-3.26-7.87-4.99-2.5-1.79-4.54-3.84-6.14-6.14-1.6-2.37-2.4-5.18-2.4-8.45,0-4.86,1.76-8.77,5.28-11.71,3.52-3.01,8.16-4.51,13.92-4.51,2.56,0,5.31.29,8.26.86,2.94.51,5.22,1.18,6.82,2.02l-.48,5.38h-.58c-3.65-3.97-8.32-5.95-14.02-5.95-4.1,0-7.39,1.06-9.89,3.17-2.5,2.05-3.74,4.83-3.74,8.35,0,2.62.67,4.9,2.02,6.82,1.41,1.86,3.2,3.55,5.38,5.09,2.18,1.47,4.51,2.91,7.01,4.32,2.88,1.66,5.66,3.42,8.35,5.28,2.75,1.86,4.99,4.1,6.72,6.72,1.79,2.56,2.69,5.79,2.69,9.7,0,3.58-.83,6.75-2.5,9.5-1.66,2.69-4.03,4.8-7.1,6.34-3.01,1.54-6.53,2.3-10.56,2.3-2.56,0-5.57-.32-9.02-.96-3.46-.64-6.75-1.47-9.89-2.5ZM600.29,350.8h6.53v40.51c0,7.74,1.89,13.79,5.66,18.14,3.84,4.29,9.22,6.43,16.13,6.43,4.35,0,8.13-.83,11.33-2.5,3.26-1.73,5.76-4.1,7.49-7.1,1.79-3.01,2.62-6.46,2.5-10.37l-1.63-45.12h6.53l-1.63,45.12c-.26,7.68-2.56,13.5-6.91,17.47-4.29,3.97-10.43,5.95-18.43,5.95-8.64,0-15.39-2.5-20.26-7.49-4.86-5.06-7.3-11.97-7.3-20.74v-40.32ZM677.27,350.8h12.86c6.78,0,12.03,1.44,15.74,4.32,3.78,2.82,5.66,6.78,5.66,11.9,0,3.97-1.18,7.26-3.55,9.89-2.3,2.62-5.66,4.38-10.08,5.28v.58c4.22.83,7.68,2.82,10.37,5.95s4.7,7.01,6.05,11.62c1.22,4.22,2.4,7.52,3.55,9.89,1.22,2.3,2.53,3.97,3.94,4.99,1.47,1.02,3.2,1.76,5.18,2.21v.58h-3.94c-2.82,0-5.15-.51-7.01-1.54-1.79-1.02-3.33-2.75-4.61-5.18-1.28-2.43-2.5-5.79-3.65-10.08-1.86-6.59-4.32-11.26-7.39-14.02-3.07-2.75-6.82-4.13-11.23-4.13h-.58v-1.73h.58c10.3,0,15.46-4.74,15.46-14.21s-4.83-14.02-14.5-14.02h-6.34v64.9h-6.53v-67.2ZM769.93,386.13v-2.3h24.29v26.11c-2.94,2.94-6.56,5.25-10.85,6.91-4.22,1.66-8.96,2.5-14.21,2.5s-10.34-.86-14.88-2.59c-4.54-1.79-8.51-4.26-11.9-7.39-3.39-3.2-6.05-6.91-7.97-11.14-1.86-4.22-2.78-8.83-2.78-13.82s.93-9.6,2.78-13.82c1.92-4.22,4.58-7.9,7.97-11.04,3.39-3.2,7.36-5.66,11.9-7.39,4.54-1.79,9.5-2.69,14.88-2.69,2.3,0,4.8.16,7.49.48,2.75.32,5.38.77,7.87,1.34,2.5.51,4.61,1.15,6.34,1.92l-.48,5.38h-.58c-2.56-2.24-5.63-3.94-9.22-5.09-3.58-1.15-7.39-1.73-11.42-1.73-6.02,0-11.3,1.38-15.84,4.13-4.54,2.69-8.1,6.5-10.66,11.42-2.5,4.86-3.74,10.56-3.74,17.09s1.25,12.26,3.74,17.18c2.56,4.86,6.11,8.67,10.66,11.42,4.54,2.69,9.82,4.03,15.84,4.03,3.71,0,7.14-.51,10.27-1.54,3.2-1.02,5.95-2.5,8.26-4.42v-24.96h-17.76ZM815.73,418v-67.2h29.28v4.7l-16.8-2.21c-2.94-.38-4.93-.58-5.95-.58v29.28c.83,0,2.82-.1,5.95-.29l15.74-.96v4.42l-15.74-.96c-3.14-.19-5.12-.29-5.95-.29v32.16c1.15,0,3.17-.19,6.05-.58l16.99-2.21v4.7h-29.57Z"/></g></svg>