<svg width="40" height="103" viewBox="0 0 40 103" fill="none" xmlns="http://www.w3.org/2000/svg">
<path d="M20.85 93.626C20.0173 95.6535 17 95.058 17 92.8662V48C17 47.4477 17.4477 47 18 47H37.0165C38.4393 47 39.407 48.4437 38.8665 49.7598L20.85 93.626Z" fill="white"/>
<path d="M19.15 9.37402C19.9827 7.34654 23 7.94203 23 10.1338V55C23 55.5523 22.5523 56 22 56H2.98355C1.56075 56 0.592956 54.5563 1.1335 53.2402L19.15 9.37402Z" fill="white"/>
<path d="M17.0738 62.9254C17.0738 62.9254 18.0214 58.9789 16 57C13.9786 55.0211 10 56 10 56C12.969 52.9675 16.0981 51.735 18.9783 53.9048C20.8023 57.0157 21.0432 59.8824 17.0738 62.9254Z" fill="white"/>
<path d="M22.9288 40.155C22.9288 40.155 21.9857 44.0139 24 46C26.0143 47.9861 29.9776 47.106 29.9776 47.106C26.9966 50.1285 23.8644 51.3487 20.9918 49.1687C19.1791 46.0512 18.9472 43.1846 22.9288 40.155Z" fill="white"/>
</svg>
