<?xml version="1.0" encoding="UTF-8"?><svg id="q" xmlns="http://www.w3.org/2000/svg" viewBox="0 0 80 54.17"><defs><style>.u{fill:#383727;}.v{fill:#0050aa;}.w{fill:#543c1c;}.x{fill:#cebc98;}.y{fill:#6d5736;}.z{fill:#f9e9d2;}.aa{fill:#fdf6ed;}.ab{opacity:.5;}</style></defs><rect class="w" x="10.52" y="4.97" width="29.23" height="41.78"/><rect class="w" x="40.25" y="4.97" width="29.14" height="41.78"/><path class="w" d="M69.04,1.61H10.73c-1.11,0-2.01.9-2.01,2.01v45.46c0,.23.04.44.11.64.06.21.17.41.31.58.36.48.94.79,1.59.79h58.31c.65,0,1.23-.31,1.59-.79.14-.17.24-.37.31-.58.07-.2.11-.41.11-.64V3.62c0-1.11-.9-2.01-2.01-2.01ZM10.27,4.72h59.37v42.28H10.27V4.72Z"/><path class="z" d="M69.04,1.49H10.73c-1.18,0-2.14.95-2.14,2.13v45.46c0,.22.03.44.1.64.07.21.16.41.29.58.38.56,1.03.92,1.75.92h58.31c.72,0,1.36-.36,1.74-.92.13-.17.22-.37.29-.58.07-.2.1-.42.1-.64V3.62c0-1.18-.96-2.13-2.13-2.13ZM70.92,49.08c0,.22-.04.44-.12.64-.07.21-.18.41-.33.58-.34.41-.85.67-1.43.67H10.73c-.58,0-1.09-.26-1.43-.67-.16-.17-.27-.37-.34-.58-.08-.2-.12-.42-.12-.64V3.62c0-1.04.85-1.88,1.89-1.88h58.31c1.04,0,1.88.84,1.88,1.88v45.46Z"/><path class="y" d="M10.27,4.72v42.28h59.37V4.72H10.27ZM39.75,46.75H10.52V4.97h29.23v41.78ZM69.39,46.75h-29.14V4.97h29.14v41.78Z"/><path class="y" d="M78.21,50.3c-1.41.85-4.15,1.42-7.31,1.43H9.04c-3.16,0-5.9-.58-7.31-1.43h76.48Z"/><rect class="z" x="1.77" y="49.72" width="76.45" height=".58"/><path class="x" d="M46.46,49.71v.53c-.01.2-.26.36-.58.36h-11.88c-.32,0-.58-.16-.59-.36v-.53h13.05Z"/><path class="z" d="M45.88,50.65h-11.88c-.35,0-.63-.18-.64-.41v-.53h.1v.53c0,.17.25.31.54.31h11.88c.29,0,.52-.14.53-.31v-.53h.1v.53c-.01.23-.28.41-.63.41Z"/><rect class="u" x="10.52" y="4.97" width="29.23" height="41.78"/><path class="x" d="M33.75,11.33v6.5h-17.5v-6.5h17.5ZM34,11.08h-18v7h18v-7h0Z"/><rect class="x" x="16" y="23.2" width="18" height=".25"/><rect class="x" x="16" y="24.95" width="18" height=".25"/><rect class="x" x="16" y="21.45" width="18" height=".25"/><rect class="x" x="16" y="26.7" width="9.82" height=".25"/><rect class="x" x="16" y="31.95" width="18" height=".25"/><rect class="x" x="16" y="33.7" width="4.91" height=".25"/><g class="ab"><rect class="x" x="16" y="37.33" width="8.18" height="1.75"/></g><rect class="x" x="25.82" y="37.33" width="8.18" height="1.75"/><rect class="aa" x="40.25" y="4.97" width="29.14" height="41.78"/><path class="v" d="M62.75,11.33v6.5h-17.5v-6.5h17.5ZM63,11.08h-18v7h18v-7h0Z"/><rect class="v" x="45" y="23.2" width="18" height=".25"/><rect class="v" x="45" y="24.95" width="18" height=".25"/><rect class="v" x="45" y="21.45" width="18" height=".25"/><rect class="v" x="45" y="26.7" width="9.82" height=".25"/><rect class="v" x="45" y="31.95" width="18" height=".25"/><rect class="v" x="45" y="33.7" width="4.91" height=".25"/><g class="ab"><rect class="v" x="45" y="37.33" width="8.18" height="1.75"/></g><rect class="v" x="54.82" y="37.33" width="8.18" height="1.75"/></svg>