<?xml version="1.0" encoding="UTF-8"?>
<svg id="Layer_1" xmlns="http://www.w3.org/2000/svg" xmlns:xlink="http://www.w3.org/1999/xlink" version="1.1" viewBox="0 0 250 250">
  <!-- Generator: Adobe Illustrator 30.3.0, SVG Export Plug-In . SVG Version: 2.1.3 Build 182)  -->
  <defs>
    <style>
      .st0, .st1, .st2, .st3 {
        fill: none;
      }

      .st4 {
        mask: url(#mask);
      }

      .st5, .st6 {
        fill: #543c1c;
      }

      .st7 {
        fill: #f9e9d2;
      }

      .st7, .st2, .st3, .st8 {
        stroke: #543c1c;
      }

      .st9 {
        fill: #fff;
      }

      .st1 {
        stroke-width: 12px;
      }

      .st1, .st6 {
        stroke: #cebc98;
      }

      .st2 {
        stroke-width: 5px;
      }

      .st3 {
        stroke-width: 6px;
      }

      .st6 {
        stroke-width: 2px;
      }

      .st10 {
        clip-path: url(#clippath);
      }

      .st8 {
        fill: #cebc98;
      }
    </style>
    <clipPath id="clippath">
      <rect class="st0" width="250" height="250"/>
    </clipPath>
    <mask id="mask" x="114.92" y="25.34" width="16.6" height="19.89" maskUnits="userSpaceOnUse">
      <g id="path-5-inside-1_1880_10215">
        <ellipse class="st9" cx="123.22" cy="35.29" rx="3.3" ry="4.95"/>
      </g>
    </mask>
  </defs>
  <g class="st10">
    <g>
      <ellipse class="st1" cx="124.9" cy="144.4" rx="99.48" ry="100.19"/>
      <circle class="st2" cx="124.54" cy="144.46" r="93.15"/>
      <circle class="st2" cx="124.54" cy="144.46" r="103.04"/>
      <circle class="st3" cx="123.22" cy="16.49" r="13.49"/>
      <g class="st4">
        <path class="st5" d="M126.52,35.29h-5c0,.52-.15.76-.13.72.02-.03.14-.2.43-.39.32-.2.8-.39,1.39-.39v10c3.1,0,5.3-1.89,6.49-3.68,1.22-1.82,1.81-4.06,1.81-6.27h-5ZM123.22,40.24v-5c.6,0,1.08.19,1.39.39.29.19.42.36.43.39.02.03-.13-.21-.13-.72h-10c0,2.22.59,4.45,1.81,6.27,1.19,1.79,3.39,3.68,6.49,3.68v-5ZM119.92,35.29h5c0-.52.15-.76.13-.72-.02.03-.14.2-.43.39-.32.2-.8.39-1.39.39v-10c-3.1,0-5.3,1.89-6.49,3.68-1.22,1.82-1.81,4.06-1.81,6.27h5ZM123.22,30.34v5c-.6,0-1.08-.19-1.39-.39-.29-.19-.42-.36-.43-.39-.02-.03.13.21.13.72h10c0-2.22-.59-4.45-1.81-6.27-1.19-1.79-3.39-3.68-6.49-3.68v5Z"/>
      </g>
      <path class="st5" d="M118.49,74.41v-14h1.82l6.99,10.96v-10.96h1.68v14h-1.81l-7-10.96v10.96h-1.68Z"/>
      <path class="st5" d="M123.66,230.87c-.75,0-1.48-.12-2.18-.35-.7-.24-1.31-.58-1.84-1.02-.52-.44-.89-.96-1.11-1.57l1.57-.59c.13.37.38.7.74.98.37.27.8.49,1.29.64.49.15,1,.23,1.53.23.6,0,1.16-.1,1.67-.29.52-.2.94-.48,1.26-.83.32-.35.48-.77.48-1.24s-.17-.88-.5-1.19c-.33-.31-.76-.56-1.28-.74-.52-.19-1.06-.33-1.63-.43-.97-.16-1.83-.39-2.6-.68-.76-.3-1.36-.72-1.81-1.25-.44-.53-.66-1.24-.66-2.11,0-.81.23-1.52.7-2.13.47-.61,1.1-1.08,1.87-1.41.77-.33,1.61-.5,2.5-.5.74,0,1.46.12,2.15.35.7.23,1.32.56,1.85,1,.53.44.92.98,1.15,1.61l-1.59.58c-.13-.38-.38-.71-.75-.98-.36-.28-.79-.49-1.28-.64-.49-.15-1-.23-1.53-.23-.59,0-1.15.09-1.66.29-.51.2-.93.48-1.25.83-.32.35-.48.76-.48,1.23,0,.56.15.99.44,1.29.3.29.71.51,1.22.66.51.15,1.09.28,1.73.39.91.15,1.75.4,2.52.73.77.33,1.39.76,1.86,1.31.47.55.71,1.22.71,2.02s-.24,1.52-.71,2.13c-.47.61-1.09,1.08-1.86,1.41-.77.33-1.61.5-2.52.5Z"/>
      <path class="st5" d="M41,150.41l-5.08-14h1.78l4.34,11.95,4.35-11.95h1.77l-5.08,14h-2.08Z"/>
      <path class="st5" d="M200.85,149.41l-1.46-.84.79-1.37c-.79-.66-1.44-1.48-1.93-2.47-.49-.99-.73-2.06-.73-3.21,0-1,.18-1.94.54-2.81.36-.88.86-1.65,1.49-2.32.63-.67,1.37-1.19,2.2-1.56.83-.38,1.72-.57,2.67-.57.51,0,1.01.06,1.48.18.48.11.93.28,1.36.49l.75-1.3,1.46.84-.79,1.36c.8.65,1.44,1.48,1.92,2.47.48.99.72,2.06.72,3.22,0,1-.18,1.94-.54,2.82-.35.87-.85,1.64-1.48,2.31-.63.67-1.37,1.19-2.2,1.57-.83.37-1.73.56-2.68.56-.5,0-.99-.06-1.46-.18-.47-.12-.93-.28-1.36-.49l-.75,1.3ZM201.06,145.66l5.35-9.24c-.29-.15-.61-.27-.95-.35-.34-.09-.69-.13-1.04-.13-.73,0-1.41.15-2.04.44-.63.29-1.18.7-1.66,1.22-.47.51-.85,1.11-1.12,1.78-.27.67-.4,1.38-.4,2.14,0,.83.17,1.61.51,2.33.34.72.79,1.32,1.35,1.81ZM204.42,147.1c.73,0,1.4-.15,2.03-.44.63-.29,1.19-.7,1.66-1.21.48-.52.85-1.11,1.12-1.78.27-.67.41-1.39.41-2.15,0-.83-.17-1.61-.5-2.33-.33-.72-.78-1.33-1.34-1.82l-5.35,9.25c.3.15.62.27.95.36.34.08.68.12,1.02.12Z"/>
      <path class="st6" d="M119.89,138.63l.46,17.6-47.57-7.8,47.11-9.79Z"/>
      <path class="st6" d="M132.76,155.37l.19-17.6,47.25,9.42-47.44,8.18Z"/>
      <path class="st6" d="M118.44,156.04l18.38-.73-7.38,45.94-11-45.21Z"/>
      <path class="st6" d="M135.72,143.34l-18.4.1,9.07-45.66,9.32,45.56Z"/>
      <path class="st8" d="M115.08,141.41l21.73,14.97-51.25,46.39,29.52-61.36Z"/>
      <path class="st8" d="M136.71,156.77l-21.73-14.97,51.22-46.42-29.49,61.39Z"/>
      <circle class="st7" cx="126.85" cy="149.41" r="7.09"/>
    </g>
  </g>
</svg>