<svg width="250" height="250" viewBox="0 0 250 250" fill="none" xmlns="http://www.w3.org/2000/svg">
<g clip-path="url(#clip0_1880_10215)">
<ellipse cx="124.897" cy="144.405" rx="99.4794" ry="100.192" stroke="#CEBC98" stroke-width="12"/>
<circle cx="124.541" cy="144.459" r="93.1464" stroke="#543C1C" stroke-width="5"/>
<circle cx="124.541" cy="144.459" r="103.041" stroke="#543C1C" stroke-width="5"/>
<circle cx="123.221" cy="16.4908" r="13.4908" stroke="#543C1C" stroke-width="6"/>
<mask id="path-5-inside-1_1880_10215" fill="white">
<ellipse cx="123.222" cy="35.29" rx="3.29815" ry="4.94723"/>
</mask>
<path d="M126.52 35.29H121.52C121.52 35.8067 121.371 36.0483 121.394 36.0147C121.412 35.9875 121.533 35.813 121.827 35.6265C122.143 35.4264 122.626 35.2372 123.222 35.2372V40.2372V45.2372C126.325 45.2372 128.522 43.3509 129.714 41.5617C130.93 39.7376 131.52 37.5056 131.52 35.29H126.52ZM123.222 40.2372V35.2372C123.818 35.2372 124.301 35.4264 124.617 35.6265C124.911 35.813 125.032 35.9875 125.05 36.0147C125.072 36.0483 124.924 35.8067 124.924 35.29H119.924H114.924C114.924 37.5056 115.513 39.7376 116.73 41.5617C117.922 43.3509 120.119 45.2372 123.222 45.2372V40.2372ZM119.924 35.29H124.924C124.924 34.7733 125.072 34.5317 125.05 34.5653C125.032 34.5925 124.911 34.767 124.617 34.9535C124.301 35.1536 123.818 35.3428 123.222 35.3428V30.3428V25.3428C120.119 25.3428 117.922 27.2291 116.73 29.0183C115.513 30.8424 114.924 33.0744 114.924 35.29H119.924ZM123.222 30.3428V35.3428C122.626 35.3428 122.143 35.1536 121.827 34.9535C121.533 34.767 121.412 34.5925 121.394 34.5653C121.371 34.5317 121.52 34.7733 121.52 35.29H126.52H131.52C131.52 33.0744 130.93 30.8424 129.714 29.0183C128.522 27.2291 126.325 25.3428 123.222 25.3428V30.3428Z" fill="#543C1C" mask="url(#path-5-inside-1_1880_10215)"/>
<path d="M118.485 74.4092V60.4092H120.305L127.295 71.3692V60.4092H128.975V74.4092H127.165L120.165 63.4492V74.4092H118.485Z" fill="#543C1C"/>
<path d="M124.075 236.938C123.322 236.938 122.595 236.821 121.895 236.588C121.195 236.348 120.582 236.008 120.055 235.568C119.535 235.128 119.165 234.604 118.945 233.998L120.515 233.408C120.649 233.781 120.895 234.108 121.255 234.388C121.622 234.661 122.052 234.874 122.545 235.028C123.039 235.181 123.549 235.258 124.075 235.258C124.675 235.258 125.232 235.161 125.745 234.968C126.265 234.768 126.685 234.491 127.005 234.138C127.325 233.784 127.485 233.371 127.485 232.898C127.485 232.411 127.319 232.014 126.985 231.708C126.652 231.394 126.225 231.148 125.705 230.968C125.185 230.781 124.642 230.638 124.075 230.538C123.109 230.378 122.242 230.151 121.475 229.858C120.715 229.558 120.112 229.141 119.665 228.608C119.225 228.074 119.005 227.371 119.005 226.498C119.005 225.684 119.239 224.974 119.705 224.368C120.179 223.761 120.802 223.291 121.575 222.958C122.349 222.624 123.182 222.458 124.075 222.458C124.815 222.458 125.532 222.574 126.225 222.808C126.925 223.034 127.542 223.368 128.075 223.808C128.609 224.248 128.992 224.784 129.225 225.418L127.635 225.998C127.502 225.618 127.252 225.291 126.885 225.018C126.525 224.738 126.099 224.524 125.605 224.378C125.119 224.224 124.609 224.148 124.075 224.148C123.482 224.141 122.929 224.238 122.415 224.438C121.902 224.638 121.485 224.914 121.165 225.268C120.845 225.621 120.685 226.031 120.685 226.498C120.685 227.058 120.832 227.488 121.125 227.788C121.425 228.081 121.832 228.301 122.345 228.448C122.859 228.594 123.435 228.724 124.075 228.838C124.982 228.991 125.822 229.234 126.595 229.568C127.369 229.894 127.989 230.331 128.455 230.878C128.929 231.424 129.165 232.098 129.165 232.898C129.165 233.711 128.929 234.421 128.455 235.028C127.989 235.634 127.369 236.104 126.595 236.438C125.822 236.771 124.982 236.938 124.075 236.938Z" fill="#543C1C"/>
<path d="M41.1302 148.287L36.0502 134.287H37.8302L42.1702 146.237L46.5202 134.287H48.2902L43.2102 148.287H41.1302Z" fill="#543C1C"/>
<path d="M207.167 149.177L205.707 148.337L206.497 146.967C205.704 146.307 205.06 145.484 204.567 144.497C204.08 143.504 203.837 142.434 203.837 141.287C203.837 140.287 204.017 139.35 204.377 138.477C204.737 137.597 205.234 136.824 205.867 136.157C206.5 135.49 207.234 134.97 208.067 134.597C208.9 134.217 209.79 134.027 210.737 134.027C211.25 134.027 211.744 134.087 212.217 134.207C212.697 134.32 213.15 134.484 213.577 134.697L214.327 133.397L215.787 134.237L214.997 135.597C215.797 136.25 216.437 137.074 216.917 138.067C217.397 139.054 217.637 140.127 217.637 141.287C217.637 142.287 217.457 143.227 217.097 144.107C216.744 144.98 216.25 145.75 215.617 146.417C214.984 147.084 214.25 147.607 213.417 147.987C212.584 148.36 211.69 148.547 210.737 148.547C210.237 148.547 209.75 148.487 209.277 148.367C208.804 148.247 208.35 148.084 207.917 147.877L207.167 149.177ZM207.377 145.427L212.727 136.187C212.434 136.034 212.117 135.917 211.777 135.837C211.437 135.75 211.09 135.707 210.737 135.707C210.01 135.707 209.33 135.854 208.697 136.147C208.07 136.44 207.517 136.847 207.037 137.367C206.564 137.88 206.19 138.474 205.917 139.147C205.65 139.814 205.517 140.527 205.517 141.287C205.517 142.12 205.687 142.897 206.027 143.617C206.367 144.337 206.817 144.94 207.377 145.427ZM210.737 146.867C211.464 146.867 212.14 146.72 212.767 146.427C213.4 146.134 213.954 145.73 214.427 145.217C214.907 144.697 215.28 144.104 215.547 143.437C215.82 142.764 215.957 142.047 215.957 141.287C215.957 140.454 215.79 139.677 215.457 138.957C215.124 138.237 214.677 137.63 214.117 137.137L208.767 146.387C209.067 146.54 209.384 146.66 209.717 146.747C210.057 146.827 210.397 146.867 210.737 146.867Z" fill="#543C1C"/>
<path d="M119.891 138.635L120.35 156.23L72.7832 148.427L119.891 138.635Z" fill="#543C1C" stroke="#CEBC98" stroke-width="2"/>
<path d="M132.762 155.367L132.952 137.767L180.201 147.183L132.762 155.367Z" fill="#543C1C" stroke="#CEBC98" stroke-width="2"/>
<path d="M118.437 156.041L136.819 155.313L129.436 201.25L118.437 156.041Z" fill="#543C1C" stroke="#CEBC98" stroke-width="2"/>
<path d="M135.718 143.336L117.32 143.438L126.394 97.7781L135.718 143.336Z" fill="#543C1C" stroke="#CEBC98" stroke-width="2"/>
<path d="M115.082 141.414L136.812 156.383L85.5588 202.777L115.082 141.414Z" fill="#CEBC98" stroke="#543C1C"/>
<path d="M136.709 156.773L114.977 141.803L166.194 95.3794L136.709 156.773Z" fill="#CEBC98" stroke="#543C1C"/>
<circle cx="126.849" cy="149.406" r="7.08575" fill="#F9E9D2" stroke="#543C1C"/>
</g>
<defs>
<clipPath id="clip0_1880_10215">
<rect width="250" height="250" fill="white"/>
</clipPath>
</defs>
</svg>
