<svg width="255" height="255" viewBox="0 0 255 255" fill="none" xmlns="http://www.w3.org/2000/svg">
<path d="M242.055 158.603C235.362 144.602 226.418 132.418 215.159 121.99C203.901 111.504 190.766 103.244 175.755 97.2106C160.744 91.1767 144.669 88.1306 127.594 88.1306C110.519 88.1306 94.0061 91.2353 78.8072 97.3863C77.1185 98.0893 75.4297 98.7923 73.7409 99.5538V58.7816H55.4772L92.505 15.4317L129.533 58.7816H111.269V76.3558C111.269 79.6363 114.084 82.2139 117.524 82.2139C120.964 82.2139 123.778 79.6363 123.778 76.3558V70.4977H134.662C138.54 70.4977 141.98 68.4474 143.731 65.1669C145.42 61.8863 144.919 58.0786 142.48 55.2081L100.386 5.88304C96.508 1.37232 88.502 1.37232 84.6241 5.88304L42.53 55.2081C40.0907 58.0786 39.6529 61.8863 41.3416 65.1669C43.0304 68.4474 46.4705 70.4977 50.4109 70.4977H61.2315V105.998C53.163 110.684 45.7825 116.132 39.0899 122.4C27.8315 132.945 18.9498 145.364 12.3824 159.599C5.81499 173.834 2.5 189.065 2.5 205.292C2.5 215.837 4.77207 228.018 6.87828 235.93C8.09006 240.482 9.61463 245.718 12.6638 248.097C15.7129 250.001 22.8275 252.381 28.4176 252.381C35.024 252.381 36.7757 252.381 41.3416 252.381H127.594C127.594 252.381 178.65 252.381 211.365 252.381C215.931 252.381 223.053 252.857 227.627 251.905C231.866 251.023 238.807 250.001 242.055 245.718C245.302 241.434 245.664 240.958 248.497 235.051C253.128 225.396 252.563 214.255 252.375 203.535C252.187 187.542 248.747 172.546 242.055 158.603ZM197.959 147.59L145.107 221.695C141.542 226.791 135.85 229.486 127.907 229.779C119.963 230.072 113.396 227.729 108.204 222.866C103.013 218.004 100.636 211.97 101.199 204.882C101.699 197.735 104.639 192.404 110.081 188.89L189.203 139.389C192.142 137.631 194.769 137.866 197.209 140.092C199.585 142.376 199.836 144.837 197.959 147.59Z" fill="#543C1C" stroke="#CEBC98" stroke-width="5" stroke-miterlimit="10"/>
<path d="M125.5 122.766V95.5M140.086 125.226L143.903 96.6071M154.709 129.15L164.592 101.252M169.366 135.703L183.357 109.372M183.357 144L200.197 120.374M196 155.5L214.631 133.767M204.273 171.079L226.822 150.51M213.292 185.563L234.876 170.202M219.78 201.133L242.538 192.604M221.985 217.5L245.5 215" stroke="#CEBC98" stroke-width="3" stroke-linecap="round"/>
<path d="M125.5 122.766V95.5M110.914 125.226L107.097 96.6071M96.291 129.15L86.4077 101.252M81.6339 135.703L67.6431 109.372M67.6431 144L50.803 120.374M55 155.5L36.3687 133.767M46.727 171.079L24.1783 150.51M37.7079 185.563L16.1242 170.202M31.2199 201.133L8.46228 192.604M29.0153 217.5L5.5 215" stroke="#CEBC98" stroke-width="3" stroke-linecap="round"/>
<path d="M217.5 217.5L32.5 217.5C32.5 167.242 73.9137 126.5 125 126.5C176.086 126.5 217.5 167.242 217.5 217.5Z" fill="#CEBC98" fill-opacity="0.2"/>
<path d="M197.929 147.99L145.077 222.095C141.512 227.192 135.82 229.886 127.876 230.179C119.933 230.472 113.365 228.129 108.174 223.267C102.983 218.404 100.606 212.371 101.169 205.282C101.669 198.135 104.609 192.805 110.051 189.29L189.172 139.789C192.112 138.032 194.739 138.266 197.178 140.492C199.555 142.777 199.805 145.237 197.929 147.99Z" fill="#F9E9D2" stroke="#543C1C" stroke-width="4" stroke-miterlimit="10"/>
</svg>
