<svg width="250" height="250" viewBox="0 0 250 250" fill="none" xmlns="http://www.w3.org/2000/svg">
<path d="M210.442 53.7153C269.336 124.038 174.253 183.979 168.555 156.092" stroke="#CEBC98" stroke-width="8.62493" stroke-linecap="round"/>
<path d="M210.441 53.716C269.335 124.039 174.252 184.519 168.553 156.632" stroke="#F9E9D2" stroke-width="4.31247" stroke-linecap="round"/>
<path d="M180.017 56.2047C184.373 45.9049 190.223 36.5583 197.566 28.1649C204.903 19.7544 210.397 16.2825 214.049 17.7492C217.702 19.2159 218.499 25.141 216.442 35.5246C214.385 45.9081 210.505 56.1119 204.802 66.1359L112.387 232.321C108.999 238.34 106.365 240.972 104.484 240.216C102.603 239.461 102.996 235.929 105.662 229.62L180.017 56.2047Z" fill="#543C1C"/>
<path d="M184.662 51.4626C188.109 43.3755 193.575 36.2105 199.567 29.2492C205.554 22.2757 209.963 19.3091 212.702 20.6315C215.442 21.9539 215.162 28.1173 213.647 36.0418C212.131 43.9664 209.636 53.2864 205.053 61.3002L111.979 229.458C109.258 234.266 106.797 238.574 105.413 238.05C104.081 237.547 105.435 234.508 107.125 230.713C107.505 229.86 107.902 228.97 108.289 228.061L184.662 51.4626Z" fill="#CEBC98"/>
<path d="M184.662 51.4626C188.109 43.3755 193.575 36.2105 199.567 29.2492C205.554 22.2757 209.963 19.3091 212.702 20.6315C215.442 21.9539 215.162 28.1173 213.647 36.0418C212.131 43.9664 209.636 53.2864 205.053 61.3002L111.979 229.458C109.258 234.266 106.797 238.574 105.413 238.05C104.081 237.547 105.435 234.508 107.125 230.713C107.505 229.86 107.902 228.97 108.289 228.061L184.662 51.4626Z" fill="#CEBC98"/>
<path d="M196.429 42.3405C196.755 41.2126 199.022 38.2055 200.21 36.9832C200.21 36.9832 204.417 32.4069 205.593 32.9962C206.769 33.5856 206.036 39.7942 206.036 39.7942C205.82 41.4846 205.126 44.734 204.197 46.0882L193.101 61.7123C192.669 62.287 192.017 62.968 191.412 62.6645C190.806 62.3609 190.737 61.3182 190.936 60.6272L196.429 42.3405Z" fill="#543C1C"/>
<path d="M103.881 241.717C102.922 241.332 102.29 240.578 101.971 239.659C101.674 238.803 101.649 237.823 101.76 236.822C101.956 235.068 102.624 232.831 103.691 230.161L104.172 228.991L104.176 228.983L178.528 55.5747L178.947 54.5973C183.324 44.5247 189.125 35.3568 196.348 27.0998L196.349 27.1011C200.057 22.8501 203.384 19.7442 206.325 17.8859C209.225 16.0536 212.098 15.223 214.652 16.2486C217.266 17.2984 218.557 19.8627 218.99 23.0773C219.424 26.3023 219.07 30.5852 218.029 35.8387C215.935 46.4073 211.989 56.7742 206.208 66.9358L113.8 233.106L113.796 233.114C112.08 236.162 110.488 238.479 109.013 239.953C107.638 241.327 105.814 242.493 103.881 241.717Z" stroke="#543C1C" stroke-width="3.23435"/>
<path d="M195.573 48.016C195.573 48.016 156.195 58.8406 145.499 79.2576C103.171 160.058 52.6553 93.023 15.9998 162.561" stroke="#CEBC98" stroke-width="8.62493" stroke-linecap="round"/>
<path d="M195.573 47.8285C195.573 47.8285 156.195 58.6531 145.499 79.0701C103.171 159.87 52.6553 92.8355 15.9998 162.374" stroke="#F9E9D2" stroke-width="4.31247" stroke-linecap="round"/>
</svg>
