<svg width="506" height="361" viewBox="0 0 506 361" fill="none" xmlns="http://www.w3.org/2000/svg">
<g clip-path="url(#clip0_2038_10314)">
<path d="M457.501 342.681H50.9269C-18.4411 222.25 44.9406 18 255.92 18C466.899 18 520.125 217.433 457.501 342.681Z" fill="#CEBC98" stroke="#CEBC98" stroke-width="19.2689" stroke-linecap="round"/>
<path d="M457.501 342.681H50.9269C-18.4411 222.25 44.9406 18 255.92 18C466.899 18 520.125 217.433 457.501 342.681Z" stroke="#543C1C" stroke-width="38.5378" stroke-linecap="round"/>
<path d="M253.992 75.0289V29.5615M281.909 76.2458L286.597 32.8135M309.896 83.5718L323.719 41.1717M337.949 95.806L358.522 56.7424M360.54 113.494L386.492 79.9347M385.691 136.668L413.199 105.064M404.759 161.85L436.498 134.025M422.021 188.892L454.9 165.956M434.438 217.959L472.716 204.608M438.658 248.515L482.599 242.742M222.314 76.9297L218.015 33.4975M193.121 85.3648L182.354 40.62M168.755 98.9177L149.741 57.0187M144.622 115.853L116.081 81.5689M121.388 137.818L90.8984 107.365M102.728 162.949L66.5877 136.472M83.7635 190.309L49.0536 169.379M75.4495 219.605L32.8599 209.566M68.2448 251.154L24 250.651" stroke="#543C1C" stroke-width="19.2689" stroke-linecap="round"/>
<path d="M253.992 75.7603V19.9277M281.909 76.9722L288.278 25.6844M309.896 84.2678L326.17 34.3194M337.949 96.4512L365.035 45.8328M360.54 114.066L398.069 65.9812M385.691 137.144L424.793 91.2226M404.759 162.222L447.915 123.98M422.021 189.151L463.331 160.591M434.438 218.098L472.716 204.801M438.658 248.527L482.599 242.777M222.314 77.6533L217.35 23.7655M193.121 86.0534L180.429 32.4005M168.755 99.55L144.622 47.7517M144.622 116.415L110.71 73.8806M121.388 138.289L83.7335 99.55M102.728 163.315L58.684 130.724M83.7635 190.562L41.342 164.444M75.4495 219.736L32.8599 209.739M68.2448 251.154L24 250.654" stroke="#F9E9D2" stroke-width="9.63444" stroke-linecap="round"/>
<path d="M457.501 342.681H50.9269C-18.4411 222.25 44.9406 18 255.92 18C466.899 18 520.125 217.433 457.501 342.681Z" stroke="#F9E9D2" stroke-width="19.2689" stroke-linecap="round"/>
<path d="M291.06 251.323C288.582 260.875 281.565 268.343 270.01 273.728C258.484 279.138 247.527 279.812 237.138 275.75C226.749 271.689 219.869 264.106 216.497 253C213.126 241.895 214.486 232.158 220.577 223.788L316.193 83.6713C319.758 78.6218 324.216 77.1429 329.566 79.2346C334.917 81.3263 336.835 85.2979 335.321 91.1492L291.06 251.323Z" fill="#543C1C"/>
<path d="M280.516 249.537C278.626 256.586 273.36 262.12 264.717 266.139C256.096 270.175 247.919 270.719 240.187 267.772C232.455 264.824 227.356 259.265 224.888 251.096C222.421 242.927 223.478 235.746 228.058 229.551L316.91 93.2369C319.591 89.5004 322.047 86.1688 325.652 87.7139C329.901 89.5346 327.679 93.0391 326.524 97.3577L280.516 249.537Z" fill="#F9E9D2"/>
</g>
<defs>
<clipPath id="clip0_2038_10314">
<rect width="506" height="361" fill="white"/>
</clipPath>
</defs>
</svg>
