<svg width="500" height="500" viewBox="0 0 500 500" fill="none" xmlns="http://www.w3.org/2000/svg">
<path d="M454.501 412.681H47.9269C-21.4411 292.25 41.9406 88 252.92 88C463.899 88 517.125 287.433 454.501 412.681Z" fill="#CEBC98" stroke="#CEBC98" stroke-width="19.2689" stroke-linecap="round"/>
<path d="M454.501 412.681H47.9269C-21.4411 292.25 41.9406 88 252.92 88C463.899 88 517.125 287.433 454.501 412.681Z" stroke="#543C1C" stroke-width="38.5378" stroke-linecap="round"/>
<path d="M250.992 145.029V99.5615M278.909 146.246L283.597 102.814M306.896 153.572L320.719 111.172M334.949 165.806L355.522 126.742M357.54 183.494L383.492 149.935M382.691 206.668L410.199 175.064M401.759 231.85L433.498 204.025M419.021 258.892L451.9 235.956M431.438 287.959L469.716 274.608M435.658 318.515L479.599 312.742M219.314 146.93L215.015 103.497M190.121 155.365L179.354 110.62M165.755 168.918L146.741 127.019M141.622 185.853L113.081 151.569M118.388 207.818L87.8984 177.365M99.7278 232.949L63.5877 206.472M80.7635 260.309L46.0536 239.379M72.4495 289.605L29.8599 279.566M65.2448 321.154L21 320.651" stroke="#543C1C" stroke-width="19.2689" stroke-linecap="round"/>
<path d="M250.992 145.76V89.9277M278.909 146.972L285.278 95.6844M306.896 154.268L323.17 104.319M334.949 166.451L362.035 115.833M357.54 184.066L395.069 135.981M382.691 207.144L421.793 161.223M401.759 232.222L444.915 193.98M419.021 259.151L460.331 230.591M431.438 288.098L469.716 274.801M435.658 318.527L479.599 312.777M219.314 147.653L214.35 93.7655M190.121 156.053L177.429 102.401M165.755 169.55L141.622 117.752M141.622 186.415L107.71 143.881M118.388 208.289L80.7335 169.55M99.7278 233.315L55.684 200.724M80.7635 260.562L38.342 234.444M72.4495 289.736L29.8599 279.739M65.2448 321.154L21 320.654" stroke="#F9E9D2" stroke-width="9.63444" stroke-linecap="round"/>
<path d="M454.501 412.681H47.9269C-21.4411 292.25 41.9406 88 252.92 88C463.899 88 517.125 287.433 454.501 412.681Z" stroke="#F9E9D2" stroke-width="19.2689" stroke-linecap="round"/>
<path d="M266.654 327.04C264.175 336.962 257.159 344.72 245.604 350.314C234.078 355.933 223.12 356.633 212.732 352.414C202.343 348.195 195.463 340.318 192.091 328.782C188.72 317.247 190.08 307.131 196.171 298.437L291.787 152.886C295.352 147.641 299.81 146.105 305.16 148.278C310.51 150.45 312.429 154.576 310.915 160.654L266.654 327.04Z" fill="#543C1C"/>
<path d="M257.672 322.093C255.782 329.415 250.516 335.164 241.873 339.339C233.252 343.532 225.075 344.097 217.343 341.035C209.611 337.972 204.512 332.198 202.045 323.713C199.577 315.227 200.634 307.767 205.214 301.332L294.067 159.731C296.748 155.85 299.203 152.389 302.809 153.994C307.057 155.885 304.835 159.526 303.68 164.012L257.672 322.093Z" fill="#F9E9D2"/>
</svg>
