<svg width="506" height="368" viewBox="0 0 506 368" fill="none" xmlns="http://www.w3.org/2000/svg">
<path d="M457.501 346.681H50.9269C-18.4411 226.25 44.9406 22 255.92 22C466.899 22 520.125 221.433 457.501 346.681Z" fill="#CEBC98" stroke="#CEBC98" stroke-width="19.2689" stroke-linecap="round"/>
<path d="M457.501 346.681H50.9269C-18.4411 226.25 44.9406 22 255.92 22C466.899 22 520.125 221.433 457.501 346.681Z" stroke="#543C1C" stroke-width="38.5378" stroke-linecap="round"/>
<path d="M253.992 79.0289V33.5615M281.909 80.2458L286.597 36.8135M309.896 87.5718L323.719 45.1717M337.949 99.806L358.522 60.7424M360.54 117.494L386.492 83.9347M385.691 140.668L413.199 109.064M404.759 165.85L436.498 138.025M422.021 192.892L454.9 169.956M434.438 221.959L472.716 208.608M438.658 252.515L482.599 246.742M222.314 80.9297L218.015 37.4975M193.121 89.3648L182.354 44.62M168.755 102.918L149.741 61.0187M144.622 119.853L116.081 85.5689M121.388 141.818L90.8984 111.365M102.728 166.949L66.5877 140.472M83.7635 194.309L49.0536 173.379M75.4495 223.605L32.8599 213.566M68.2448 255.154L24 254.651" stroke="#543C1C" stroke-width="19.2689" stroke-linecap="round"/>
<path d="M253.992 79.7603V23.9277M281.909 80.9722L288.278 29.6844M309.896 88.2678L326.17 38.3194M337.949 100.451L365.035 49.8328M360.54 118.066L398.069 69.9812M385.691 141.144L424.793 95.2226M404.759 166.222L447.915 127.98M422.021 193.151L463.331 164.591M434.438 222.098L472.716 208.801M438.658 252.527L482.599 246.777M222.314 81.6533L217.35 27.7655M193.121 90.0534L180.429 36.4005M168.755 103.55L144.622 51.7517M144.622 120.415L110.71 77.8806M121.388 142.289L83.7335 103.55M102.728 167.315L58.684 134.724M83.7635 194.562L41.342 168.444M75.4495 223.736L32.8599 213.739M68.2448 255.154L24 254.654" stroke="#F9E9D2" stroke-width="9.63444" stroke-linecap="round"/>
<path d="M457.501 346.681H50.9269C-18.4411 226.25 44.9406 22 255.92 22C466.899 22 520.125 221.433 457.501 346.681Z" stroke="#F9E9D2" stroke-width="19.2689" stroke-linecap="round"/>
<path d="M291.06 260.197C288.582 269.933 281.565 277.546 270.01 283.036C258.484 288.55 247.527 289.237 237.138 285.097C226.749 280.957 219.869 273.227 216.497 261.906C213.126 250.586 214.486 240.659 220.577 232.127L316.193 89.2937C319.758 84.1463 324.216 82.6387 329.566 84.771C334.917 86.9033 336.835 90.9518 335.321 96.9166L291.06 260.197Z" fill="#543C1C"/>
<path d="M280.516 258.376C278.626 265.561 273.36 271.203 264.717 275.3C256.096 279.414 247.919 279.969 240.187 276.964C232.455 273.959 227.356 268.293 224.888 259.965C222.421 251.638 223.478 244.317 228.058 238.002L316.91 99.0449C319.591 95.2358 322.047 91.8397 325.652 93.4147C329.901 95.2708 327.679 98.8432 326.524 103.246L280.516 258.376Z" fill="#F9E9D2"/>
</svg>
