<svg width="500" height="500" viewBox="0 0 500 500" fill="none" xmlns="http://www.w3.org/2000/svg">
<path d="M409.257 311.026C430.897 311.026 450.467 312.112 464.606 313.86C471.685 314.736 477.355 315.772 481.23 316.905C483.178 317.475 484.599 318.048 485.508 318.597C486.506 319.2 486.497 319.53 486.497 319.48C486.497 319.432 486.505 319.762 485.508 320.364C484.599 320.913 483.178 321.487 481.23 322.057C477.355 323.19 471.685 324.226 464.606 325.102C450.467 326.85 430.897 327.936 409.257 327.936C387.617 327.936 368.047 326.85 353.908 325.102C346.83 324.226 341.16 323.19 337.284 322.057C335.337 321.487 333.915 320.913 333.007 320.364C332.01 319.762 332.018 319.432 332.018 319.48C332.018 319.53 332.009 319.2 333.007 318.597C333.915 318.048 335.337 317.475 337.284 316.905C341.16 315.772 346.83 314.736 353.908 313.86C368.047 312.112 387.617 311.026 409.257 311.026Z" fill="#543C1C" stroke="#F9E9D2" stroke-width="2.50736"/>
<path d="M334.206 322.614C334.491 322.672 334.772 322.749 335.105 322.91C336.143 323.411 337.618 323.832 339.196 324.205C340.798 324.583 342.608 324.935 344.36 325.271C347.926 325.956 351.777 326.375 356.618 326.964C361.519 327.56 369.559 328.29 378.103 328.789C386.664 329.289 399.364 329.088 408.361 329.188C417.387 329.287 422.809 329.54 431.904 329.187C440.939 328.836 453.441 328.3 460.223 327.513C466.915 326.736 474.517 325.77 477.69 325.034C479.236 324.676 480.79 324.302 482.117 323.921C482.902 323.696 483.659 323.454 484.306 323.193C483.457 324.548 482.555 325.88 481.819 326.728C479.626 329.256 478.164 330.463 475.38 332.42C472.648 334.339 470.015 335.349 466.2 337.187C466.252 337.162 466.197 337.193 465.91 337.245C465.662 337.29 465.32 337.337 464.882 337.384C464.008 337.478 462.813 337.566 461.332 337.648C458.372 337.813 454.326 337.951 449.54 338.06C439.971 338.278 427.483 338.383 414.895 338.379C402.306 338.375 389.625 338.261 379.671 338.041C374.693 337.931 370.405 337.794 367.153 337.632C365.527 337.551 364.169 337.464 363.118 337.371C362.039 337.276 361.362 337.181 361.048 337.102C357.573 336.22 354.36 335.521 351.381 334.727C348.432 333.94 345.969 333.122 344.188 332.102C340.374 329.917 337.245 327.507 335.581 325.369C335.059 324.698 334.423 323.639 333.822 322.545C333.962 322.569 334.08 322.589 334.206 322.614Z" fill="#CEBC98" stroke="#543C1C" stroke-width="2.50736"/>
<rect x="399.31" y="46.1525" width="6.25776" height="276.931" rx="3.12888" transform="rotate(12.3063 399.31 46.1525)" fill="#CEBC98" stroke="#543C1C" stroke-width="2.50736"/>
<rect x="407.895" y="46.2085" width="6.25776" height="280.773" rx="3.12888" transform="rotate(-12.1977 407.895 46.2085)" fill="#CEBC98" stroke="#543C1C" stroke-width="2.50736"/>
<path d="M398.257 319.623C396.435 322.332 392.21 320.559 392.867 317.361L406.309 251.896C406.474 251.09 407.262 250.571 408.068 250.737L435.815 256.434C437.891 256.86 438.87 259.257 437.687 261.015L398.257 319.623Z" fill="#F9E9D2"/>
<path d="M421.016 196.181C422.839 193.472 427.063 195.245 426.406 198.443L412.965 263.908C412.799 264.713 412.012 265.233 411.206 265.067L383.459 259.37C381.383 258.944 380.403 256.547 381.586 254.789L421.016 196.181Z" fill="#F9E9D2"/>
<path d="M401.944 273.697C401.944 273.697 404.509 268.222 402.152 264.729C399.796 261.236 393.697 261.472 393.697 261.472C398.938 257.937 403.873 257.076 407.425 261.105C409.155 266.191 408.647 270.446 401.944 273.697Z" fill="#F9E9D2"/>
<path d="M417.308 242.225C417.308 242.225 414.776 247.573 417.12 251.074C419.464 254.576 425.51 254.479 425.51 254.479C420.255 257.996 415.32 258.838 411.781 254.797C410.07 249.705 410.591 245.453 417.308 242.225Z" fill="#F9E9D2"/>
<rect x="400.972" y="48.0834" width="6.25776" height="283.431" rx="3.12888" transform="rotate(3.68145 400.972 48.0834)" fill="#CEBC98" stroke="#543C1C" stroke-width="2.50736"/>
<circle cx="405.634" cy="38.6125" r="10.8019" fill="#CEBC98" stroke="#543C1C" stroke-width="4.38787"/>
<path d="M90.4932 404.868C112.134 404.868 131.704 405.953 145.843 407.702C152.921 408.578 158.591 409.614 162.467 410.747C164.414 411.316 165.836 411.889 166.744 412.438C167.742 413.042 167.733 413.372 167.733 413.322C167.733 413.274 167.741 413.604 166.744 414.206C165.836 414.755 164.414 415.329 162.467 415.898C158.591 417.032 152.921 418.068 145.843 418.943C131.704 420.692 112.134 421.777 90.4932 421.777C68.8529 421.777 49.2837 420.692 35.1445 418.943C28.0664 418.068 22.3963 417.032 18.5205 415.898C16.5732 415.329 15.1516 414.755 14.2432 414.206C13.2462 413.603 13.2539 413.274 13.2539 413.322C13.2539 413.372 13.2451 413.042 14.2432 412.438C15.1516 411.889 16.5733 411.316 18.5205 410.747C22.3963 409.614 28.0663 408.578 35.1445 407.702C49.2837 405.953 68.8529 404.868 90.4932 404.868Z" fill="#543C1C" stroke="#F9E9D2" stroke-width="2.50736"/>
<path d="M15.4424 416.456C15.7274 416.514 16.0079 416.591 16.3418 416.752C17.3795 417.253 18.8544 417.674 20.4326 418.047C22.0341 418.425 23.8447 418.777 25.5967 419.113C29.1628 419.798 33.0132 420.217 37.8545 420.806C42.7557 421.402 50.795 422.132 59.3389 422.631C67.9007 423.131 80.6007 422.93 89.5977 423.029C98.6233 423.129 104.046 423.381 113.141 423.028C122.176 422.678 134.677 422.141 141.459 421.354C148.152 420.578 155.754 419.611 158.927 418.876C160.472 418.518 162.026 418.143 163.354 417.763C164.139 417.537 164.896 417.295 165.542 417.035C164.693 418.39 163.791 419.722 163.056 420.569C160.862 423.098 159.401 424.305 156.616 426.262C153.885 428.181 151.252 429.191 147.437 431.028C147.488 431.003 147.433 431.035 147.146 431.087C146.898 431.132 146.556 431.179 146.118 431.226C145.245 431.319 144.05 431.408 142.568 431.49C139.609 431.655 135.562 431.792 130.776 431.901C121.208 432.119 108.72 432.225 96.1309 432.221C83.5424 432.217 70.8613 432.103 60.9072 431.883C55.9294 431.773 51.6409 431.636 48.3896 431.474C46.7634 431.392 45.4052 431.306 44.3545 431.213C43.2749 431.118 42.5979 431.023 42.2842 430.943C38.8097 430.062 35.5965 429.363 32.6172 428.568C29.668 427.782 27.2058 426.964 25.4238 425.943C21.6101 423.759 18.4815 421.349 16.8174 419.211C16.2949 418.54 15.659 417.481 15.0586 416.387C15.1981 416.41 15.3161 416.431 15.4424 416.456Z" fill="#CEBC98" stroke="#543C1C" stroke-width="2.50736"/>
<rect x="80.5443" y="139.994" width="6.25776" height="276.931" rx="3.12888" transform="rotate(12.3063 80.5443 139.994)" fill="#CEBC98" stroke="#543C1C" stroke-width="2.50736"/>
<rect x="89.1308" y="140.05" width="6.25776" height="280.773" rx="3.12888" transform="rotate(-12.1977 89.1308 140.05)" fill="#CEBC98" stroke="#543C1C" stroke-width="2.50736"/>
<circle cx="96.1604" cy="360.112" r="52.8791" fill="#CEBC98" stroke="#F9E9D2" stroke-width="7.44776"/>
<path d="M114.78 337.712C110.528 333.473 103.043 330.528 96.1604 330.342M96.1604 330.342C87.9679 330.12 80.6443 333.813 80.6443 343.899C80.6443 362.461 114.78 353.18 114.78 371.742C114.78 382.329 105.694 386.876 96.1604 386.536M96.1604 330.342V319.149M77.541 377.929C81.538 383.251 88.9795 386.282 96.1604 386.536M96.1604 386.536V399.585" stroke="#F9E9D2" stroke-width="7.44776" stroke-linecap="round" stroke-linejoin="round"/>
<rect x="82.2083" y="141.925" width="6.25776" height="283.431" rx="3.12888" transform="rotate(3.68145 82.2083 141.925)" fill="#CEBC98" stroke="#543C1C" stroke-width="2.50736"/>
<circle cx="86.8703" cy="132.454" r="10.8019" fill="#CEBC98" stroke="#543C1C" stroke-width="4.38787"/>
<path d="M277.534 460.142L298.863 498.51H183.355L205.802 460.142H277.534Z" fill="#CEBC98" stroke="#543C1C" stroke-width="2.97911"/>
<path d="M254.938 420.114L266.324 457.577C265.99 457.657 265.608 457.751 265.181 457.851C263.518 458.237 261.198 458.75 258.572 459.26C253.288 460.285 246.878 461.272 242.076 461.216C237.26 461.16 231.269 460.17 226.425 459.176C224.015 458.681 221.911 458.19 220.411 457.822C220.067 457.738 219.755 457.657 219.479 457.587L229.892 420.114H254.938Z" fill="#CEBC98" stroke="#543C1C" stroke-width="2.97911"/>
<path d="M254.438 349.949V417.366C254.383 417.375 254.326 417.385 254.269 417.395C253.393 417.536 252.173 417.724 250.793 417.912C248.011 418.291 244.661 418.655 242.181 418.644C239.695 418.632 236.481 418.268 233.845 417.896C232.536 417.711 231.386 417.527 230.564 417.389C230.534 417.384 230.505 417.378 230.476 417.373V349.949H254.438Z" fill="#CEBC98" stroke="#543C1C" stroke-width="2.97911"/>
<path d="M254.976 279.415C254.984 279.433 254.992 279.452 255.001 279.471C255.271 280.061 255.658 280.922 256.122 282.001C257.052 284.161 258.292 287.189 259.531 290.656C262.027 297.638 264.458 306.227 264.468 313.098C264.478 320.003 262.047 328.64 259.546 335.661C258.304 339.148 257.06 342.193 256.127 344.365C255.661 345.451 255.274 346.318 255.003 346.911C254.994 346.931 254.985 346.951 254.976 346.971H229.922C229.91 346.945 229.897 346.918 229.884 346.891C229.603 346.296 229.2 345.429 228.716 344.343C227.747 342.168 226.456 339.121 225.167 335.633C222.57 328.607 220.049 319.977 220.06 313.098C220.07 306.216 222.591 297.635 225.183 290.658C226.469 287.195 227.756 284.172 228.721 282.016C229.203 280.938 229.604 280.078 229.884 279.489C229.896 279.464 229.908 279.439 229.92 279.415H254.976Z" fill="#CEBC98" stroke="#543C1C" stroke-width="2.97911"/>
<rect x="230.704" y="209.775" width="23.2227" height="66.6606" fill="#CEBC98" stroke="#543C1C" stroke-width="2.97911"/>
<path d="M255.028 139.24C255.037 139.258 255.045 139.277 255.054 139.296C255.323 139.886 255.71 140.747 256.175 141.826C257.104 143.986 258.344 147.014 259.584 150.481C262.08 157.463 264.511 166.053 264.521 172.923C264.531 179.828 262.1 188.465 259.599 195.486C258.356 198.973 257.113 202.018 256.18 204.19C255.714 205.276 255.326 206.143 255.056 206.736C255.046 206.756 255.037 206.776 255.028 206.796H229.975C229.962 206.77 229.949 206.743 229.937 206.716C229.656 206.122 229.252 205.255 228.769 204.168C227.8 201.993 226.509 198.946 225.22 195.458C222.622 188.432 220.102 179.802 220.112 172.923C220.123 166.042 222.644 157.46 225.235 150.483C226.522 147.02 227.809 143.997 228.773 141.841C229.256 140.763 229.657 139.903 229.937 139.314C229.949 139.289 229.961 139.264 229.973 139.24H255.028Z" fill="#CEBC98" stroke="#543C1C" stroke-width="2.97911"/>
<mask id="path-25-inside-1_1880_10118" fill="white">
<rect x="220.939" y="131.634" width="42.2578" height="6.11727" rx="1.88052"/>
</mask>
<rect x="220.939" y="131.634" width="42.2578" height="6.11727" rx="1.88052" fill="#CEBC98" stroke="#543C1C" stroke-width="5.95821" mask="url(#path-25-inside-1_1880_10118)"/>
<path d="M238.951 99.4678L238.568 99.043L235.702 95.8643L234 93.0107L233.44 90.5859V86.3115L235.456 81.9072H250.318L252.016 86.2646V90.5088L251.14 93.084L250.084 95.8574L246.989 98.4268L246.451 98.873V107.082L246.678 107.444L248.123 109.757L248.19 109.864L248.274 109.959L251.058 113.077V130.145H234.091V113.145L237.335 110.044L237.522 109.865L237.638 109.634L238.951 107.007V99.4678Z" fill="#CEBC98" stroke="#543C1C" stroke-width="2.97911"/>
<path d="M289.98 30.3296C292.39 29.001 296.564 27.9156 300.591 27.1621C304.844 26.3665 311.167 26.3882 316.139 26.5678C320.094 26.7106 323.27 27.1128 326.336 27.4999C327.226 27.6123 328.103 27.7225 328.993 27.8265C329.703 27.9095 330.375 27.9864 331.02 28.0602C333.992 28.3999 336.415 28.6765 339.339 29.194C340.956 29.4801 342.293 29.8304 343.511 30.1489C345.063 30.555 346.409 30.9048 348.071 31.0961C351.157 31.4514 353.699 31.3869 356.11 31.2811C357.057 31.2396 357.997 31.3464 358.734 31.4271C359.602 31.5221 360.157 31.5735 360.586 31.5282C360.774 31.5083 360.865 31.4754 360.898 31.4594C360.918 31.4501 360.923 31.4462 360.937 31.4276C361.12 31.186 361.2 30.9854 361.248 30.78C361.306 30.5307 361.324 30.2594 361.347 29.7711C361.377 29.1456 361.411 28.2443 361.747 27.2197L361.816 27.0089C362.399 25.2244 362.862 23.7881 364.453 21.8991C364.745 21.5525 365.012 21.2244 365.279 20.8958C366.241 19.7098 367.163 18.5671 368.77 17.316C369.865 16.463 371.535 15.5909 373.135 14.8891C374.751 14.1804 376.49 13.5607 377.792 13.2734L377.805 13.2707C380.091 12.7662 381.723 12.3982 384.374 12.7412C387.01 13.0824 389.122 14.0082 391.564 15.2671C394.158 16.6041 395.836 18.0146 397.904 19.7638C400.188 21.6961 401.913 24.098 403.395 26.4315C404.269 27.8074 405.025 29.895 405.517 31.6467C405.768 32.545 405.969 33.423 406.087 34.1593C406.145 34.5249 406.188 34.8883 406.201 35.2191C406.211 35.4795 406.22 35.9714 406.047 36.4458L406.025 36.5074L406 36.5736C405.947 36.721 405.857 36.9799 405.75 37.1984C405.661 37.3801 405.37 37.9603 404.689 38.2751C403.945 38.619 403.273 38.4136 403.003 38.3126C402.724 38.2082 402.458 38.0531 402.289 37.954C401.595 37.5464 401.144 36.8669 400.885 36.4381C400.588 35.9489 400.309 35.3754 400.072 34.891C399.839 34.4169 399.633 34.0007 399.425 33.6381C399.061 33.0053 398.434 32.2807 397.555 31.2849C397.035 30.695 396.45 30.032 395.895 29.3252C395.285 28.5492 394.357 27.5185 393.326 26.5859C392.267 25.6289 391.233 24.8963 390.41 24.5681C388.505 23.8088 387.326 23.7623 385.004 23.8674C382.716 23.971 380.109 24.4253 377.927 25.9185C375.579 27.5253 374.289 29.1436 373.65 31.2434C373.108 33.0235 373.374 34.5903 373.731 36.4989L373.73 36.4992L373.731 36.4999C373.732 36.5078 373.737 36.5336 373.738 36.5394C373.775 36.7329 373.812 36.932 373.848 37.1312C373.861 37.2055 373.874 37.2807 373.887 37.356C373.977 37.8779 374.134 38.2658 374.333 38.7435C374.497 39.138 374.795 39.8116 374.853 40.5918C374.918 41.4649 374.688 42.292 374.217 43.1307C373.613 44.2053 372.898 44.9741 371.924 45.4782C371.06 45.9254 370.091 46.0955 369.295 46.2479L368.812 46.3417C367.102 46.6805 364.75 46.7029 362.444 46.7324C361.55 46.7439 360.639 46.7556 359.721 46.7817C356.491 46.8737 352.705 46.8547 348.335 46.8329L347.335 46.8275C344.913 46.8158 342.574 46.7702 340.25 46.7245C337.922 46.6787 335.609 46.6331 333.219 46.6215C331.574 46.6135 330.125 46.5395 328.795 46.4723C326.107 46.3365 323.914 46.23 321.185 46.6452C316.861 47.3031 313.698 48.1061 310.887 49.6571C307.782 51.3702 305.855 52.6069 304.479 54.721C304.475 54.7299 304.415 54.8432 304.359 55.1463C304.302 55.4598 304.267 55.8769 304.259 56.4091C304.241 57.4841 304.331 58.8012 304.437 60.3192C304.567 62.1862 304.718 64.3192 304.639 66.3138C304.562 68.2739 304.26 70.364 303.302 72.0358L303.111 72.3691L302.804 72.5991C302.01 73.1956 300.569 73.8163 298.945 74.4286C297.232 75.0743 295.049 75.8052 292.572 76.5832C287.614 78.1406 281.39 79.9147 275.199 81.6171C262.74 85.0431 250.544 88.1452 248.585 88.7235L247.809 88.9524L247.112 88.5431C246.156 87.9801 245.512 87.1407 245.02 86.1844C244.541 85.253 244.151 84.0968 243.763 82.7595C243.371 81.4125 242.945 79.7495 242.425 77.7832C241.902 75.8018 241.272 73.4659 240.459 70.7116L240.055 69.3404L241.275 68.5955C243.2 67.4199 246.262 66.2762 249.6 65.1933C252.986 64.0949 256.853 62.9987 260.482 61.9573C264.139 60.9081 267.536 59.9192 270.07 59.0175C271.343 58.5646 272.328 58.1584 272.996 57.8048C273.263 57.6632 273.441 57.5487 273.551 57.4678C274.014 55.9041 274.36 54.5187 274.69 53.2209C275.033 51.868 275.37 50.5755 275.806 49.3694C276.285 48.0472 276.674 46.9721 276.958 46.0716C277.697 43.7329 278.717 42.2494 279.748 40.7363C279.994 40.3759 280.238 40.0174 280.489 39.6361C280.655 39.3832 280.811 39.1422 280.964 38.9073C282.044 37.2464 282.893 35.934 284.567 34.2944C286.441 32.4594 287.739 31.565 289.98 30.3296Z" fill="#CEBC98" stroke="#543C1C" stroke-width="3.72388"/>
<path d="M178.287 63.2951C175.542 63.4879 171.447 64.8429 167.656 66.3971C163.653 68.038 158.355 71.4893 154.277 74.3401C151.034 76.6073 148.584 78.6698 146.22 80.6593C145.534 81.2369 144.857 81.8057 144.166 82.3764C143.615 82.8318 143.093 83.261 142.591 83.6732C140.279 85.5724 138.395 87.1202 136.221 89.1425C135.019 90.2605 134.085 91.281 133.236 92.2094C132.153 93.3931 131.213 94.4179 129.921 95.4808C127.523 97.4547 125.353 98.7808 123.27 100.001C122.452 100.481 121.721 101.081 121.146 101.549C120.469 102.1 120.031 102.444 119.646 102.639C119.477 102.725 119.383 102.746 119.346 102.751C119.325 102.754 119.319 102.753 119.297 102.745C119.012 102.642 118.836 102.517 118.684 102.37C118.5 102.192 118.337 101.974 118.053 101.577C117.688 101.068 117.17 100.33 116.332 99.6513L116.159 99.5118C114.701 98.3299 113.532 97.375 111.171 96.6528C110.737 96.5203 110.334 96.3899 109.932 96.2587C108.48 95.7853 107.085 95.3264 105.057 95.148C103.674 95.0263 101.798 95.2009 100.073 95.4805C98.3312 95.7629 96.5345 96.1867 95.2853 96.6523L95.2734 96.6568C93.0797 97.4744 91.5095 98.0515 89.4696 99.7789C87.4408 101.497 86.17 103.421 84.8027 105.804C83.3505 108.336 82.7072 110.431 81.9205 113.023C81.0516 115.886 80.9077 118.839 80.93 121.603C80.9431 123.233 81.4413 125.397 81.9801 127.135C82.2564 128.026 82.5643 128.872 82.8653 129.555C83.0147 129.893 83.1761 130.222 83.3448 130.507C83.4776 130.731 83.738 131.148 84.1403 131.453L84.1927 131.493L84.249 131.535C84.3736 131.63 84.5903 131.798 84.7985 131.924C84.9717 132.028 85.5311 132.357 86.274 132.252C87.0857 132.136 87.5386 131.599 87.7104 131.368C87.888 131.129 88.0271 130.854 88.1151 130.679C88.477 129.96 88.4863 129.144 88.4714 128.643C88.4544 128.072 88.3775 127.439 88.3141 126.903C88.252 126.378 88.1988 125.917 88.1769 125.5C88.1385 124.771 88.2723 123.821 88.4691 122.508C88.5856 121.731 88.7171 120.856 88.7996 119.961C88.8902 118.978 89.1099 117.609 89.4695 116.266C89.8385 114.887 90.3094 113.711 90.8226 112.988C92.0098 111.316 92.9746 110.637 94.9816 109.464C96.9586 108.309 99.3951 107.275 102.038 107.344C104.882 107.419 106.844 108.077 108.521 109.493C109.943 110.694 110.57 112.154 111.307 113.951L111.308 113.95L111.307 113.952C111.31 113.959 111.32 113.983 111.322 113.989C111.397 114.171 111.473 114.359 111.552 114.545C111.581 114.615 111.611 114.685 111.641 114.755C111.848 115.243 111.927 115.654 112.02 116.163C112.096 116.583 112.212 117.31 112.587 117.997C113.006 118.765 113.648 119.335 114.5 119.783C115.59 120.358 116.608 120.615 117.699 120.51C118.668 120.416 119.574 120.033 120.325 119.729L120.782 119.545C122.402 118.901 124.389 117.643 126.341 116.416C127.098 115.94 127.869 115.455 128.655 114.978C131.417 113.302 134.586 111.231 138.244 108.839L139.08 108.292C141.108 106.967 143.048 105.658 144.974 104.358C146.904 103.056 148.822 101.762 150.822 100.454C152.199 99.5544 153.377 98.7051 154.457 97.9267C156.64 96.3532 158.424 95.0728 160.941 93.9398C164.929 92.1445 168.022 91.1013 171.224 90.8774C174.762 90.6301 177.052 90.6222 179.355 91.6505C179.363 91.6556 179.475 91.7181 179.686 91.9426C179.905 92.1749 180.16 92.5062 180.457 92.9483C181.055 93.8415 181.694 94.9966 182.43 96.3289C183.334 97.9673 184.366 99.8402 185.515 101.473C186.644 103.077 188.033 104.668 189.745 105.551L190.086 105.728L190.469 105.754C191.459 105.824 193.007 105.563 194.703 105.195C196.492 104.807 198.722 104.236 201.224 103.544C206.233 102.16 212.424 100.27 218.547 98.3379C230.87 94.4499 242.795 90.4331 244.755 89.8547L245.53 89.6258L245.893 88.9036C246.39 87.9117 246.476 86.8568 246.369 85.7869C246.266 84.7448 245.965 83.5622 245.566 82.2282C245.163 80.8845 244.618 79.2564 243.987 77.3232C243.35 75.3752 242.611 73.0717 241.798 70.3174L241.393 68.9462L239.964 68.983C237.709 69.0412 234.516 69.7437 231.125 70.6468C227.686 71.5628 223.843 72.7419 220.23 73.8378C216.59 74.9421 213.2 75.9564 210.582 76.5753C209.268 76.8862 208.22 77.08 207.467 77.1456C207.166 77.1718 206.954 77.1721 206.818 77.1641C205.58 76.1021 204.537 75.1268 203.556 74.2159C202.533 73.2664 201.548 72.3637 200.527 71.5878C199.407 70.7373 198.497 70.0456 197.769 69.4439C195.879 67.881 194.217 67.1891 192.529 66.4787C192.127 66.3095 191.727 66.1411 191.31 65.9568C191.033 65.8346 190.771 65.7172 190.515 65.6028C188.707 64.7944 187.281 64.1535 184.985 63.6856C182.415 63.162 180.839 63.116 178.287 63.2951Z" fill="#CEBC98" stroke="#543C1C" stroke-width="3.72388"/>
</svg>
