<svg width="403" height="70" viewBox="0 0 403 70" fill="none" xmlns="http://www.w3.org/2000/svg">
<path d="M-0.000467777 1.34394H12.8635C19.6475 1.34394 24.8955 2.78394 28.6075 5.66394C32.3835 8.47994 34.2715 12.4479 34.2715 17.5679C34.2715 21.5359 33.0875 24.8319 30.7195 27.4559C28.4155 30.0799 25.0555 31.8399 20.6395 32.7359V33.3119C24.8635 34.1439 28.3195 36.1279 31.0075 39.2639C33.6955 42.3999 35.7115 46.2719 37.0555 50.8799C38.2715 55.1039 39.4555 58.3999 40.6075 60.7679C41.8235 63.0719 43.1355 64.7359 44.5435 65.7599C46.0155 66.7839 47.7435 67.5199 49.7275 67.9679V68.5439H45.7915C42.9755 68.5439 40.6395 68.0319 38.7835 67.0079C36.9915 65.9839 35.4555 64.2559 34.1755 61.8239C32.8955 59.3919 31.6795 56.0319 30.5275 51.7439C28.6715 45.1519 26.2075 40.4799 23.1355 37.7279C20.0635 34.9759 16.3195 33.5999 11.9035 33.5999H11.3275V31.8719H11.9035C22.2075 31.8719 27.3595 27.1359 27.3595 17.6639C27.3595 8.31994 22.5275 3.64794 12.8635 3.64794H6.52753V68.5439H-0.000467777V1.34394ZM60.5373 68.5439V1.34394H89.8173V6.04794L73.0173 3.83994C70.0733 3.45594 68.0893 3.26394 67.0653 3.26394V32.5439C67.8973 32.5439 69.8813 32.4479 73.0173 32.2559L88.7613 31.2959V35.7119L73.0173 34.7519C69.8813 34.5599 67.8973 34.4639 67.0653 34.4639V66.6239C68.2173 66.6239 70.2333 66.4319 73.1133 66.0479L90.1053 63.8399V68.5439H60.5373ZM103.313 66.4319L103.889 60.6719H104.465C106.961 62.8479 109.777 64.5439 112.913 65.7599C116.049 66.9759 119.153 67.5839 122.225 67.5839C126.577 67.5839 130.097 66.3999 132.785 64.0319C135.473 61.5999 136.817 58.3679 136.817 54.3359C136.817 52.0959 136.305 50.0159 135.281 48.0959C134.321 46.1759 132.689 44.2239 130.385 42.2399C128.145 40.2559 125.041 38.1119 121.073 35.8079C118.321 34.2079 115.697 32.5439 113.201 30.8159C110.705 29.0239 108.657 26.9759 107.057 24.6719C105.457 22.3039 104.657 19.4879 104.657 16.2239C104.657 11.3599 106.417 7.45594 109.937 4.51194C113.457 1.50394 118.097 -5.91278e-05 123.857 -5.91278e-05C126.417 -5.91278e-05 129.169 0.287941 132.113 0.863941C135.057 1.37594 137.329 2.04794 138.929 2.87994L138.449 8.25594H137.873C134.225 4.28794 129.553 2.30394 123.857 2.30394C119.761 2.30394 116.465 3.35994 113.969 5.47194C111.473 7.51995 110.225 10.3039 110.225 13.8239C110.225 16.4479 110.897 18.7199 112.241 20.6399C113.649 22.4959 115.441 24.1919 117.617 25.7279C119.793 27.1999 122.129 28.6399 124.625 30.0479C127.505 31.7119 130.289 33.4719 132.977 35.3279C135.729 37.1839 137.969 39.4239 139.697 42.0479C141.489 44.6079 142.385 47.8399 142.385 51.7439C142.385 55.3279 141.553 58.4959 139.889 61.2479C138.225 63.9359 135.857 66.0479 132.785 67.5839C129.777 69.1199 126.257 69.8879 122.225 69.8879C119.665 69.8879 116.657 69.5679 113.201 68.9279C109.745 68.2879 106.449 67.4559 103.313 66.4319ZM159.278 1.34394H165.806V41.8559C165.806 49.5999 167.694 55.6479 171.47 59.9999C175.31 64.2879 180.686 66.4319 187.598 66.4319C191.95 66.4319 195.726 65.5999 198.926 63.9359C202.19 62.2079 204.686 59.8399 206.414 56.8319C208.206 53.8239 209.038 50.3679 208.91 46.4639L207.278 1.34394H213.806L212.174 46.4639C211.918 54.1439 209.614 59.9679 205.262 63.9359C200.974 67.9039 194.83 69.8879 186.83 69.8879C178.19 69.8879 171.438 67.3919 166.574 62.3999C161.71 57.3439 159.278 50.4319 159.278 41.6639V1.34394ZM235.776 1.34394H248.64C255.424 1.34394 260.672 2.78394 264.384 5.66394C268.16 8.47994 270.048 12.4479 270.048 17.5679C270.048 21.5359 268.864 24.8319 266.496 27.4559C264.192 30.0799 260.832 31.8399 256.416 32.7359V33.3119C260.64 34.1439 264.096 36.1279 266.784 39.2639C269.472 42.3999 271.488 46.2719 272.832 50.8799C274.048 55.1039 275.232 58.3999 276.384 60.7679C277.6 63.0719 278.912 64.7359 280.32 65.7599C281.792 66.7839 283.52 67.5199 285.504 67.9679V68.5439H281.568C278.752 68.5439 276.416 68.0319 274.56 67.0079C272.768 65.9839 271.232 64.2559 269.952 61.8239C268.672 59.3919 267.456 56.0319 266.304 51.7439C264.448 45.1519 261.984 40.4799 258.912 37.7279C255.84 34.9759 252.096 33.5999 247.68 33.5999H247.104V31.8719H247.68C257.984 31.8719 263.136 27.1359 263.136 17.6639C263.136 8.31994 258.304 3.64794 248.64 3.64794H242.304V68.5439H235.776V1.34394ZM327.942 36.6719V34.3679H352.23V60.4799C349.286 63.4239 345.67 65.7279 341.382 67.3919C337.158 69.0559 332.422 69.8879 327.174 69.8879C321.798 69.8879 316.838 69.0239 312.294 67.2959C307.75 65.5039 303.782 63.0399 300.39 59.9039C296.998 56.7039 294.342 52.9919 292.422 48.7679C290.566 44.5439 289.638 39.9359 289.638 34.9439C289.638 29.9519 290.566 25.3439 292.422 21.1199C294.342 16.8959 296.998 13.2159 300.39 10.0799C303.782 6.87994 307.75 4.41594 312.294 2.68794C316.838 0.895941 321.798 -5.91278e-05 327.174 -5.91278e-05C329.478 -5.91278e-05 331.974 0.159941 334.662 0.47994C337.414 0.79994 340.038 1.24794 342.534 1.82394C345.03 2.33594 347.142 2.97594 348.87 3.74394L348.39 9.11994H347.814C345.254 6.87994 342.182 5.18394 338.598 4.03194C335.014 2.87994 331.206 2.30394 327.174 2.30394C321.158 2.30394 315.878 3.67994 311.334 6.43194C306.79 9.11994 303.238 12.9279 300.678 17.8559C298.182 22.7199 296.934 28.4159 296.934 34.9439C296.934 41.4719 298.182 47.1999 300.678 52.1279C303.238 56.9919 306.79 60.7999 311.334 63.5519C315.878 66.2399 321.158 67.5839 327.174 67.5839C330.886 67.5839 334.31 67.0719 337.446 66.0479C340.646 65.0239 343.398 63.5519 345.702 61.6319V36.6719H327.942ZM373.257 68.5439V1.34394H402.537V6.04794L385.737 3.83994C382.793 3.45594 380.809 3.26394 379.785 3.26394V32.5439C380.617 32.5439 382.601 32.4479 385.737 32.2559L401.481 31.2959V35.7119L385.737 34.7519C382.601 34.5599 380.617 34.4639 379.785 34.4639V66.6239C380.937 66.6239 382.953 66.4319 385.833 66.0479L402.825 63.8399V68.5439H373.257Z" fill="white"/>
</svg>
